<?xml version="1.0" encoding="utf-8"?>
<!-- Generator: Adobe Illustrator 16.0.0, SVG Export Plug-In . SVG Version: 6.00 Build 0)  -->
<!DOCTYPE svg PUBLIC "-//W3C//DTD SVG 1.1//EN" "http://www.w3.org/Graphics/SVG/1.1/DTD/svg11.dtd">
<svg version="1.1" id="Layer_1" xmlns="http://www.w3.org/2000/svg" xmlns:xlink="http://www.w3.org/1999/xlink" x="0px" y="0px"
	 width="500px" height="500px" viewBox="0 0 500 500" enable-background="new 0 0 500 500" xml:space="preserve">
<g>
	<g>
		<path fill="#21939D" d="M429.432,230.275c0,98.931-80.201,179.123-179.12,179.123c-98.928,0-179.127-80.191-179.127-179.123
			c0-98.926,80.199-179.122,179.127-179.122C349.23,51.153,429.432,131.349,429.432,230.275z"/>
		<g>
			<path fill-rule="evenodd" clip-rule="evenodd" fill="#E6E6E6" d="M316.033,28.492c15.059,0,29.55,0,44.462,0
				c0.068,1.362,0.186,2.667,0.186,3.973c0.01,23.379,0.039,46.757-0.049,70.136c0,2.521,0.733,4.144,2.797,5.679
				c19.038,14.137,37.979,28.389,56.958,42.606c0.997,0.743,1.965,1.506,3.393,2.606c-9.055,11.631-18.011,23.116-27.095,34.776
				c-6.19-4.576-12.145-8.981-18.862-13.944c0,54.108,0,107.252,0,160.642c-85.085,0-169.681,0-254.791,0
				c0-53.302,0-106.539,0-160.867c-6.764,5.065-12.7,9.504-19.004,14.232c-9.04-11.592-17.99-23.077-27.193-34.879
				c5.408-4.063,10.629-8.008,15.868-11.929c51.333-38.399,102.681-76.761,153.926-115.278c2.956-2.222,4.674-2.036,7.456,0.071
				c19.341,14.67,38.814,29.159,58.254,43.701c0.978,0.724,1.975,1.396,3.695,2.601C316.033,57.455,316.033,43.042,316.033,28.492z
				 M353.181,310.828c0-2.117,0-3.794,0-5.471c0-8.513-0.02-17.024-0.02-25.536c0.01-39.142,0-78.294,0.06-117.441
				c0-2.333-0.597-3.98-2.592-5.461c-32.365-24.127-64.727-48.304-96.982-72.586c-2.537-1.912-4.107-1.97-6.684-0.022
				c-31.972,24.106-64.03,48.104-96.134,72.031c-2.538,1.887-3.503,3.838-3.496,7.03c0.112,47.659,0.073,95.318,0.081,142.977
				c0,1.433,0.117,2.865,0.181,4.347c19.463,0,38.555,0,57.994,0c0-30.88,0,31.021,0,0.205c29.987,0,59.633,0,89.739,0
				c0,30.948,0-30.875,0-0.073C314.714,310.828,333.635,310.828,353.181,310.828z"/>
		</g>
		<g>
			<g>
				<path fill-rule="evenodd" clip-rule="evenodd" fill="#E4D7B1" d="M373.666,353.866c0,58.582-53.623,113.872-119.802,113.872
					c-66.165,0-119.798-55.29-119.798-113.872c0-58.581,53.633-98.271,119.798-98.271
					C320.043,255.596,373.666,295.285,373.666,353.866z"/>
				<path fill-rule="evenodd" clip-rule="evenodd" fill="#281A1F" d="M182.498,272.674c0,0-34.862,11.934-49.84,28.313
					c-14.978,16.378-24.098,21.526-34.163,31.588c-10.062,10.058-4.909,15.675,0,22.695c4.916,7.021-0.467-4.913-0.467-4.913
					s30.425,41.415,35.571,48.905c5.146,7.485,10.995,10.761,16.378,1.169C155.361,390.838,174.775,278.057,182.498,272.674z"/>
				<path fill-rule="evenodd" clip-rule="evenodd" fill="#281A1F" d="M322.889,270.918c0,0,33.226,14.506,42.584,27.374
					c9.357,12.873,26.215,21.996,28.787,22.7c2.562,0.699-7.726,0-7.726,0s19.89,13.416,21.287,19.347
					c1.408,5.92-20.817,30.258-29.716,42.422c-8.889,12.169-11.45,25.741-19.409,15.68c-7.96-10.062-15.919-64.11-22.001-82.127
					C330.613,298.292,321.49,275.832,322.889,270.918z"/>
				<path fill-rule="evenodd" clip-rule="evenodd" fill="#6D6C74" d="M181.799,446.643c0,0,34.162-90.786,72.539-90.552
					c38.37,0.23,71.602,89.383,71.602,89.383S264.63,498.584,181.799,446.643z"/>
				<path fill-rule="evenodd" clip-rule="evenodd" fill="#050707" d="M277.033,400.719c0,7.144-10.795,12.932-24.101,12.932
					c-13.318,0-24.101-5.788-24.101-12.932c0-7.138,10.783-12.927,24.101-12.927C266.238,387.792,277.033,393.581,277.033,400.719z"
					/>
				<path fill="#050707" d="M223.094,430.273c0,0,0.883,0.494,2.445,1.296c0.772,0.41,1.73,0.89,2.831,1.403
					c0.555,0.249,1.146,0.518,1.768,0.797c0.628,0.269,1.22,0.664,1.899,0.973c2.657,1.311,5.879,2.713,9.47,3.363
					c1.779,0.304,3.684,0.411,5.427-0.107c1.729-0.519,3.197-1.726,4.012-3.397c0.841-1.672,1.158-3.613,1.239-5.521
					c0.093-1.901,0.049-3.896,0.081-5.764c0.02-3.76,0.044-7.275,0.063-10.282c0.024-0.753-0.052-1.477,0.024-2.161
					c0.056-0.684,0.117-1.339,0.173-1.945c0.112-1.228,0.206-2.293,0.237-3.153c0.105-1.766,0.169-2.772,0.169-2.772
					s0.122,0.997,0.347,2.748c0.117,0.885,0.206,1.955,0.294,3.178c0.049,0.611,0.093,1.262,0.149,1.945
					c0.059,0.689-0.02,1.408,0,2.161c-0.02,3.007-0.045,6.522-0.064,10.282c-0.036,1.896,0.02,3.794-0.08,5.833
					c-0.086,2.019-0.411,4.136-1.387,6.077c-0.934,1.955-2.794,3.515-4.862,4.111c-2.065,0.606-4.156,0.465-6.065,0.146
					c-3.828-0.704-7.118-2.151-9.852-3.49c-0.672-0.343-1.349-0.631-1.936-1.003c-0.577-0.386-1.12-0.753-1.635-1.1
					c-1.015-0.699-1.885-1.335-2.589-1.868C223.847,430.953,223.094,430.273,223.094,430.273z"/>
				<path fill="#050707" d="M282.92,430.273c0,0-0.753,0.68-2.161,1.75c-0.704,0.533-1.564,1.169-2.591,1.868
					c-0.514,0.347-1.057,0.714-1.633,1.1c-0.587,0.372-1.262,0.66-1.937,1.003c-2.729,1.339-6.023,2.786-9.852,3.49
					c-1.901,0.318-3.994,0.46-6.067-0.146c-2.063-0.597-3.926-2.156-4.859-4.111c-0.971-1.941-1.299-4.059-1.382-6.077
					c-0.104-2.039-0.049-3.937-0.08-5.833c-0.024-3.76-0.049-7.275-0.068-10.282c0.02-0.753-0.062-1.472,0-2.161
					c0.056-0.684,0.107-1.334,0.148-1.945c0.096-1.223,0.177-2.293,0.294-3.178c0.225-1.751,0.354-2.748,0.354-2.748
					s0.056,1.007,0.168,2.772c0.024,0.86,0.118,1.926,0.237,3.153c0.049,0.606,0.11,1.262,0.166,1.945
					c0.076,0.685,0,1.408,0.032,2.161c0.013,3.007,0.036,6.522,0.063,10.282c0.027,1.867-0.02,3.862,0.076,5.764
					c0.078,1.907,0.396,3.849,1.236,5.521c0.816,1.672,2.283,2.879,4.014,3.397c1.751,0.519,3.652,0.411,5.428,0.107
					c3.588-0.65,6.815-2.053,9.465-3.363c0.685-0.309,1.281-0.704,1.907-0.973c0.616-0.279,1.207-0.548,1.76-0.797
					c1.104-0.514,2.063-0.993,2.841-1.403C282.035,430.768,282.92,430.273,282.92,430.273z"/>
				<ellipse fill-rule="evenodd" clip-rule="evenodd" fill="#050707" cx="193.496" cy="354.801" rx="17.004" ry="18.72"/>
				<path fill-rule="evenodd" clip-rule="evenodd" fill="#FFFFFF" d="M193.498,347.452c0,4.063-2.931,7.349-6.551,7.349
					c-3.623,0-6.554-3.286-6.554-7.349s2.931-7.354,6.554-7.354C190.567,340.099,193.498,343.39,193.498,347.452z"/>
				<path fill-rule="evenodd" clip-rule="evenodd" fill="#050707" d="M325.939,354.801c0,10.34-7.617,18.72-17.005,18.72
					c-9.392,0-17.009-8.38-17.009-18.72c0-10.336,7.617-18.716,17.009-18.716C318.322,336.085,325.939,344.465,325.939,354.801z"/>
				<path fill-rule="evenodd" clip-rule="evenodd" fill="#FFFFFF" d="M308.935,347.452c0,4.063-2.938,7.349-6.556,7.349
					c-3.618,0-6.552-3.286-6.552-7.349s2.934-7.354,6.552-7.354C305.996,340.099,308.935,343.39,308.935,347.452z"/>
				<path fill-rule="evenodd" clip-rule="evenodd" fill="#FFFFFF" d="M200.206,349.413c0,1.08-0.56,1.96-1.249,1.96
					c-0.685,0-1.247-0.88-1.247-1.96c0-1.081,0.563-1.961,1.247-1.961C199.646,347.452,200.206,348.332,200.206,349.413z"/>
				<path fill-rule="evenodd" clip-rule="evenodd" fill="#FFFFFF" d="M313.55,349.413c0,1.08-0.567,1.96-1.251,1.96
					c-0.685,0-1.242-0.88-1.242-1.96c0-1.081,0.558-1.961,1.242-1.961C312.982,347.452,313.55,348.332,313.55,349.413z"/>
			</g>
			<path fill-rule="evenodd" clip-rule="evenodd" fill="#1A1A1A" d="M264.332,394.49c0,0.953-5.173,1.721-11.551,1.721
				s-11.543-0.768-11.543-1.721c0-0.948,5.166-1.716,11.543-1.716S264.332,393.542,264.332,394.49z"/>
			<ellipse fill-rule="evenodd" clip-rule="evenodd" fill="#1A1A1A" cx="399.96" cy="439.729" rx="0.234" ry="0"/>
			<path fill-rule="evenodd" clip-rule="evenodd" fill="#1A1A1A" d="M344.586,288.338c0,0,11.46,4.914,16.848,14.506
				c5.388,9.598,20.124,15.68,20.124,15.68h-6.082c0,0,19.674,12.79,24.25,21.575c4.586,8.796-23.536,32.42-27.575,45.581
				c0.743-23.634,14.081-24.313-2.522-49.595C353.015,310.804,362.598,308.696,344.586,288.338z"/>
			<path fill="#1A1A1A" d="M236.41,380.297c0,0,0.492-0.283,1.394-0.689c0.91-0.396,2.21-0.968,3.833-1.481
				c1.619-0.508,3.53-1.085,5.625-1.472c1.046-0.225,2.149-0.356,3.256-0.518c1.119-0.083,2.259-0.216,3.4-0.245
				c1.144,0.01,2.288-0.054,3.412,0.054c1.12,0.069,2.229,0.157,3.285,0.357c1.057,0.156,2.078,0.352,3.021,0.65
				c0.944,0.273,1.849,0.469,2.636,0.821c0.807,0.298,1.525,0.606,2.156,0.88c0.616,0.332,1.144,0.626,1.574,0.865
				c0.87,0.479,1.35,0.777,1.35,0.777s-0.528-0.195-1.467-0.532c-0.45-0.177-1.013-0.392-1.643-0.631
				c-0.665-0.172-1.403-0.367-2.21-0.611c-0.782-0.278-1.682-0.392-2.616-0.577c-0.934-0.215-1.936-0.298-2.963-0.42
				c-1.026-0.162-2.102-0.167-3.192-0.23c-1.085-0.093-2.195-0.01-3.295-0.01c-1.11,0.015-2.218,0.127-3.308,0.19
				c-1.083,0.152-2.164,0.206-3.192,0.382c-1.032,0.166-2.034,0.293-2.973,0.479c-0.946,0.156-1.831,0.361-2.652,0.542
				c-1.631,0.387-3.004,0.699-3.946,0.983C236.953,380.141,236.41,380.297,236.41,380.297z"/>
			<path fill="#1A1A1A" d="M245.763,372.519c0,0,0.87-0.631,2.371-1.218c0.741-0.298,1.631-0.586,2.621-0.802
				c0.983-0.229,2.053-0.347,3.134-0.396c0.537,0.005,1.075-0.02,1.613,0.034c0.527,0.034,1.051,0.098,1.55,0.2
				c0.503,0.088,0.982,0.19,1.423,0.353c0.449,0.137,0.865,0.254,1.231,0.449c0.748,0.318,1.32,0.66,1.702,0.948
				c0.381,0.27,0.586,0.431,0.586,0.431s-0.259-0.068-0.714-0.181c-0.21-0.059-0.479-0.137-0.782-0.226
				c-0.313-0.054-0.664-0.122-1.036-0.21c-0.372-0.098-0.787-0.127-1.218-0.195c-0.425-0.083-0.885-0.103-1.354-0.151
				c-0.47-0.063-0.959-0.044-1.457-0.068c-0.489-0.039-0.998,0.005-1.506,0.005c-1.01,0.02-2.024,0.112-2.968,0.22
				c-0.958,0.107-1.848,0.244-2.616,0.356C246.797,372.338,245.763,372.519,245.763,372.519z"/>
			<path fill-rule="evenodd" clip-rule="evenodd" fill="#1A1A1A" d="M169.796,285.767c0,0-8.886,27.862-10.758,50.665
				c0.467-29.139-0.467-35.935-18.251-22.24c-17.784,13.689-34.637,22.295-29.95,37.182c-7.019-7.108-11.23-9.915-4.212-17.405
				c7.018-7.49,28.075-24.807,34.162-31.828C146.871,295.124,169.796,285.767,169.796,285.767z"/>
			<path fill="#D5B87F" d="M213.629,299.182c0,0,1.14,0.343,3.154,0.832c0.99,0.269,2.229,0.513,3.623,0.86
				c1.413,0.278,2.98,0.67,4.723,0.978c1.73,0.347,3.603,0.675,5.6,0.992c1.978,0.372,4.107,0.558,6.273,0.885
				c2.178,0.25,4.437,0.45,6.728,0.641c2.3,0.098,4.63,0.353,6.962,0.294c1.17,0.02,2.334,0.039,3.5,0.054
				c1.164,0.02,2.313-0.083,3.457-0.117c1.144-0.064,2.293-0.099,3.407-0.133c1.13-0.112,2.229-0.225,3.319-0.332
				c1.091-0.107,2.156-0.215,3.213-0.317c1.036-0.172,2.053-0.333,3.051-0.494c1.975-0.318,3.862-0.592,5.559-1.047
				c1.716-0.396,3.29-0.758,4.693-1.075c1.369-0.43,2.563-0.797,3.545-1.104c2-0.582,3.129-0.915,3.129-0.915
				s-1.056,0.523-2.924,1.433c-0.948,0.445-2.093,0.979-3.412,1.594c-1.359,0.509-2.914,1.047-4.615,1.614
				c-0.852,0.269-1.722,0.63-2.66,0.855c-0.938,0.22-1.916,0.449-2.924,0.689c-0.997,0.229-2.023,0.474-3.08,0.724
				c-1.065,0.19-2.171,0.317-3.275,0.483c-1.115,0.156-2.239,0.318-3.394,0.484c-1.148,0.088-2.317,0.166-3.495,0.229
				c-1.179,0.054-2.361,0.176-3.56,0.176c-1.188-0.01-2.391-0.01-3.591-0.01c-2.396,0.02-4.779-0.264-7.131-0.4
				c-2.347-0.216-4.635-0.567-6.852-0.895c-2.203-0.406-4.336-0.768-6.327-1.281c-0.997-0.239-1.96-0.475-2.901-0.699
				c-0.927-0.269-1.821-0.533-2.682-0.777c-1.724-0.465-3.254-1.056-4.63-1.506c-1.369-0.509-2.55-0.948-3.503-1.364
				c-0.963-0.391-1.704-0.738-2.208-0.978C213.896,299.31,213.629,299.182,213.629,299.182z"/>
		</g>
		<text transform="matrix(1 0 0 1 206.0449 220.7461)" fill="#E6E6E6" font-family="'NuevaStd-Bold'" font-size="33.8236">HOME</text>
	</g>
	<path fill-rule="evenodd" clip-rule="evenodd" fill="none" stroke="#E6E6E6" stroke-miterlimit="10" d="M329.22,210.425
		c7.91-3.041,13.475-10.223,13.475-18.608c0-11.137-9.817-20.167-21.913-20.167c-11.822,0-21.434,8.62-21.874,19.395h-97.198
		c-0.44-10.775-10.052-19.395-21.872-19.395c-12.103,0-21.917,9.03-21.917,20.167c0,8.385,5.563,15.567,13.479,18.608
		c-7.916,3.046-13.479,10.228-13.479,18.613c0,11.137,9.815,20.167,21.917,20.167c10.008,0,18.435-6.18,21.055-14.613h98.835
		c2.621,8.434,11.04,14.613,21.053,14.613c12.096,0,21.913-9.03,21.913-20.167C342.694,220.653,337.13,213.471,329.22,210.425z
		 M309.086,208.851c1.027,0.602,2.112,1.139,3.257,1.574c-1.145,0.44-2.229,0.978-3.257,1.579V208.851z M191.533,212.004
		c-1.032-0.601-2.114-1.139-3.258-1.579c1.144-0.435,2.227-0.973,3.258-1.574V212.004z"/>
	<text transform="matrix(1 0 0 1 213.6328 169.7344)" fill="#E6E6E6" font-family="'NuevaStd-Bold'" font-size="25.4881">new</text>
</g>
</svg>
