<?xml version="1.0" encoding="utf-8"?>
<!-- Generator: Adobe Illustrator 16.0.0, SVG Export Plug-In . SVG Version: 6.00 Build 0)  -->
<!DOCTYPE svg PUBLIC "-//W3C//DTD SVG 1.1//EN" "http://www.w3.org/Graphics/SVG/1.1/DTD/svg11.dtd">
<svg version="1.1" id="Layer_1" xmlns="http://www.w3.org/2000/svg" xmlns:xlink="http://www.w3.org/1999/xlink" x="0px" y="0px"
	 width="100px" height="100px" viewBox="0 0 100 100" enable-background="new 0 0 100 100" xml:space="preserve">
<path fill="#CCCCCC" d="M98.857,93.337L77.753,72.232c6.313-7.552,10.122-17.267,10.122-27.857c0-23.986-19.514-43.5-43.5-43.5
	c-23.986,0-43.5,19.514-43.5,43.5c0,23.986,19.514,43.5,43.5,43.5c10.591,0,20.306-3.809,27.857-10.122l21.104,21.104
	c1.524,1.523,3.996,1.524,5.521,0S100.382,94.861,98.857,93.337z M44.375,79.875c-19.575,0-35.5-15.925-35.5-35.5
	c0-19.575,15.925-35.5,35.5-35.5c19.575,0,35.5,15.925,35.5,35.5C79.875,63.95,63.95,79.875,44.375,79.875z"/>
</svg>
