<?xml version="1.0" encoding="utf-8"?>
<!-- Generator: Adobe Illustrator 16.0.0, SVG Export Plug-In . SVG Version: 6.00 Build 0)  -->
<!DOCTYPE svg PUBLIC "-//W3C//DTD SVG 1.1//EN" "http://www.w3.org/Graphics/SVG/1.1/DTD/svg11.dtd">
<svg version="1.1" id="Layer_1" xmlns="http://www.w3.org/2000/svg" xmlns:xlink="http://www.w3.org/1999/xlink" x="0px" y="0px"
	 width="500px" height="500px" viewBox="0 0 500 500" enable-background="new 0 0 500 500" xml:space="preserve">
<g>
	<path fill="#276276" d="M256.686,431.252c42.954,0,82.564-14.291,114.356-38.366c-15.021-25.58-43.827-42.895-76.907-42.895
		h-68.957c-34.404,0-64.176,18.727-78.638,45.998C177.586,418.188,215.609,431.252,256.686,431.252z"/>
	<ellipse fill="#F5F6F7" cx="256.421" cy="379.826" rx="53.587" ry="27.482"/>
	<rect x="209.314" y="313.68" fill="#EDC49A" width="92.84" height="57.509"/>
	<ellipse fill="#EDC49A" cx="255.734" cy="372.762" rx="46.42" ry="22.767"/>
	<path opacity="0.2" d="M209.314,349.991c0,0,16.119,19.236,40.738,19.629c24.619,0.392,24.232,6.677,24.232,6.677l-1.863-5.108
		c0,0,29.438,16.114,25.659,25.919c10.555-5.506,18.501-20.124,4.073-31.605v-29.268l-92.84,0.466V349.991z"/>
	<path fill="#EDC49A" d="M365.748,228.237c0-11.55-9.275-20.904-20.713-20.904c-1.015,0-2.005,0.093-2.976,0.24
		c-13.628-29.826-44.847-50.69-81.212-50.69c-17.202,0-36.665-6.505-50.249,1.574c-15.148,9.01-23.815,33.438-30.992,49.185
		c-1.127-0.187-2.275-0.309-3.451-0.309c-11.442,0-20.708,9.354-20.708,20.904c0,10.358,7.471,18.933,17.266,20.589
		c4.098,42.896,41.983,76.506,88.134,76.506c46.185,0,84.085-33.649,88.144-76.584C358.536,246.88,365.748,238.414,365.748,228.237z
		"/>
	<path fill="#7C5848" d="M167.88,216.716c0,0-1.961,37.292,0,64.579c1.966,27.281,7.461,38.669,7.461,38.669v-9.03
		c0,0,2.353,13.345,22.767,21.198c20.413,7.854,36.905,16.879,36.905,16.879l-1.961-3.53c0,0,22.521,7.849,23.697,17.271
		c1.765-5.447,0-10.158,0-10.158s3.235,1.029,3.089,3.53c3.687-1.324-0.143-4.56,9.569-8.241c9.716-3.682,28.12-5.893,38.865-16.34
		c-1.323,4.118-2.647,6.183-2.647,6.183s29.297-16.197,34.592-36.508c0.887,7.064,0,10.305,0,10.305s12.368-25.301,6.48-93.62
		c-9.422,11.771-10.011,29.434-10.011,29.434s-6.187,45.342-15.016,42.396c2.652,2.059,7.358,0,7.358,0s-16.486,13.545-28.561,0
		c-12.07-13.545-27.086-20.315-40.925-19.433c-13.834,0.887-29.944-1.461-48.872,21.791c-11.663,14.324-25.649-5.397-26.536-11.879
		c3.833,7.657,2.687,3.339,3.863,3.927c1.177,0.594-5.299-9.123-5.888-20.903C181.528,251.459,180.439,197.578,167.88,216.716z"/>
	<path fill="#896351" d="M182.028,237.914c0,0-24.728-30.62-22.178-49.072c0.784,2.554,4.902,8.441,4.902,8.441
		s-16.482-74.393,61.048-83.227c-4.515-7.26-6.083-20.609,0-24.928c10.408,10.408,44.558,20.026,64.187,16.688
		s45.532,11.187,52.014,22.766c-0.196-8.437-3.143-11.383-3.143-11.383s23.556,29.443,18.653,56.333
		c3.726-4.319,5.295-8.829,5.295-8.829s-12.957,59.862-23.948,69.285c-0.976-20.609-9.858-42.984-9.858-42.984
		s-17.619,2.353-22.129-6.873c4.117,2.358,9.613,0,9.613,0s-23.164-1.961-23.556-18.839c-15.702,23.158-65.554,11.187-77.143-3.339
		c-13.736,10.011-20.016,27.875-20.016,27.875l-0.196-3.731C195.573,186.096,180.655,226.923,182.028,237.914z"/>
	<path fill="#7C5848" d="M225.605,94.041c0,0,13.741,23.061,32.287,25.712c-2.652,1.177-7.947,0-7.947,0
		s24.139,13.246,39.749,12.952c-21.497,3.535-41.813,1.471-51.234-9.123c2.476,2.377,7.951,2.059,7.951,2.059
		S226.585,121.91,225.605,94.041z"/>
	<path fill="#7C5848" d="M225.605,116.807c0,0,4.515,8.246,7.652,11.775c-28.463,7.461-34.738,22.963-40.238,39.062
		c-0.784-4.515,2.162-13.276,2.162-13.276s-19.433,19.359-17.859,39.577c0,0-3.927-12.364-1.574-20.217
		c-4.319,9.422-3.534,37.493,1.961,50.053c-6.868-10.01-12.957-22.962-12.957-22.962l4.123,3.726c0,0-10.202-41.023,7.461-58.294
		c-1.917,2.104-1.569,6.672-1.569,6.672S179.597,127.7,225.605,116.807z"/>
	<path fill="#7C5848" d="M298.081,165.536c0,0,2.799,13.393,18.845,12.511c-5.006,1.029-8.977,0.044-8.977,0.044
		s7.873,4.388,15.6,4.961c9.206,0.687,11.579,11.874,11.579,11.874s1.49-21.006-14.374-22.914
		c-13.089-1.573-11.775-8.491-11.775-8.491s-2.063,6.873,4.412,8.491C307.797,171.424,303.527,174.071,298.081,165.536z"/>
	<path fill="#444645" d="M238.434,289.829h42.695c0,0,4.417,23.851-21.345,23.851S238.434,289.829,238.434,289.829z"/>
	<rect x="237.63" y="289.829" fill="#FFFFFF" width="44.258" height="7.756"/>
	<path fill="#7C5848" d="M230.365,293.707c0,0,6.476-0.392,8.54-1.716c0,0-0.147,0.687-0.627,0.858
		c2.461-0.015,4.304-1.525,4.746-1.893c-0.441,0.774-1.069,1.143-1.069,1.143s7.805-0.368,8.099-3.167
		C250.347,286.138,224.59,286.662,230.365,293.707z"/>
	<path fill="#7C5848" d="M265.348,288.358c0,0,4.324,4.123,7.756,4.319c-1.505-0.299-1.373-1.471-1.373-1.471s7.56,5,13.835,4.02
		c6.284-0.98-1.569-7.309-1.863-7.529S265.348,288.358,265.348,288.358z"/>
	<path fill="#7C5848" d="M302.154,109.542c0,0,27.287,8.883,34.939,33.91c-2.506-3.677-4.564-4.858-4.564-4.858
		s16.345,40.238,8.491,88.918c0,0,12.427-26.556,16.879-51.033c-0.407,1.24-4.55,2.579-4.55,2.579s3.961-26.331-6.245-43.013
		c0.588,3.338,1.573,6.476,1.573,6.476S335.324,115.434,302.154,109.542z"/>
	<path fill="#7C5848" d="M336.618,174.899c0,0,6.089,25.125,4.52,33.37c2.73-3.309,5.295-5.496,5.295-6.672
		c0-1.182,1.378-31.998,1.378-31.998l-3.535,12.957l-9.54-23.35c0,0,8.56,22.958,1.883,14.712"/>
	<path fill="#050707" d="M223.09,223.78c-3.696,1.726-6.294,5.75-6.294,10.442c0,6.26,4.618,11.334,10.305,11.334
		c5.697,0,10.31-5.074,10.31-11.334c0-1.613-0.309-3.147-0.863-4.535L223.09,223.78z"/>
	<path fill="#050707" d="M292.203,223.78c3.696,1.726,6.295,5.75,6.295,10.442c0,6.26-4.618,11.334-10.305,11.334
		c-5.697,0-10.305-5.074-10.305-11.334c0-1.613,0.309-3.147,0.862-4.535L292.203,223.78z"/>
	<ellipse fill="#FFFFFF" cx="231.689" cy="231.678" rx="2.294" ry="2.995"/>
	<path fill="#FFFFFF" d="M294.271,231.678c0,1.652-1.02,2.995-2.289,2.995c-1.265,0-2.289-1.343-2.289-2.995
		c0-1.652,1.024-2.991,2.289-2.991C293.252,228.688,294.271,230.026,294.271,231.678z"/>
	<path fill="#D56C60" d="M246.131,310.768c3.108,1.774,7.295,2.912,12.913,2.912c5.917,0,10.226-1.266,13.378-3.207
		c-0.456-3.906-6.152-7-13.133-7C252.141,303.473,246.337,306.723,246.131,310.768z"/>
	<g>
		<path fill="#D04F46" d="M256.686,443.032c-111.042,0-201.383-90.345-201.383-201.393c0-111.042,90.34-201.383,201.383-201.383
			c111.043,0,201.388,90.34,201.388,201.383C458.073,352.688,367.729,443.032,256.686,443.032z M256.686,63.808
			c-98.056,0-177.832,79.776-177.832,177.832c0,98.062,79.776,177.837,177.832,177.837c98.062,0,177.832-79.775,177.832-177.837
			C434.518,143.583,354.747,63.808,256.686,63.808z"/>
	</g>
	<path fill="#D04F46" d="M427.453,472.529c-5.515,5.516-12.496,7.486-15.584,4.397l-64.319-64.318
		c-3.088-3.094-1.117-10.069,4.402-15.59l7.354-7.358c5.521-5.515,12.496-7.485,15.59-4.397l64.318,64.319
		c3.089,3.088,1.118,10.068-4.402,15.589L427.453,472.529z"/>
	<g>
		<path fill-rule="evenodd" clip-rule="evenodd" d="M436.998,144.182c-0.529,1.284-1.068,2.598-2.49,3.142
			c-0.765,0.29-1.608,0.544-2.417,0.544c-9.623,0.039-19.247,0.039-28.87,0.005c-0.735,0-1.466-0.304-2.206-0.412
			c-0.304-0.044-0.755-0.059-0.931,0.118c-1.05,1.083-2.138,2.152-3.03,3.368c-4.01,5.496-7.446,11.349-10.584,17.383
			c-0.515,1.005-0.799,2.005-0.76,3.172c0.142,3.437,0.157,6.878,0.255,10.324c0.068,2.446-1.118,4.162-3.177,5.236
			c-3.235,1.696-6.569,1.701-9.952,0.279c-1.784-0.755-2.848-2.093-3.5-3.819c-1.196-3.157-2.461-6.299-3.5-9.505
			c-0.976-2.996-1.157-6.074-0.529-9.216c0.627-3.104,1.049-6.246,1.559-9.369c0.034-0.235,0.024-0.475,0.044-0.838
			c-0.406,0-0.75,0-1.093,0c-7.29,0-14.585,0.01-21.874,0.005c-1.726,0-3.402-0.21-4.932-1.107c-2.402-1.412-3.53-3.638-3.79-6.285
			c-0.279-2.838,0.559-5.397,2.427-7.608c0.196-0.226,0.304-0.716,0.196-0.985c-1.51-3.78-0.638-7.157,1.687-10.29
			c0.299-0.402,0.44-0.716,0.235-1.24c-1.412-3.485-0.628-6.687,1.392-9.682c0.441-0.657,0.677-1.142,0.432-2.069
			c-1.107-4.226-0.147-9.06,3.834-11.79c2.02-1.387,4.309-2.083,6.716-2.113c7.373-0.093,14.746-0.079,22.119-0.093
			c6.157-0.01,12.31,0.054,18.463-0.024c2.637-0.039,4.922,0.779,7.103,2.152c0.515,0.323,1.152,0.456,1.854,0.721
			c0.068-0.858,0.098-1.476,0.172-2.084c0.235-1.99,1.646-3.421,3.622-3.677c0.427-0.054,0.868-0.073,1.3-0.073
			c8.265-0.005,16.535,0.049,24.801-0.034c2.643-0.024,4.51,0.848,5.427,3.407C436.998,115.88,436.998,130.033,436.998,144.182z
			 M345.178,138.431c0.029,0.686-0.191,1.029-0.844,1.215c-2.804,0.799-4.309,2.775-4.735,5.579
			c-0.362,2.343,0.883,4.324,3.044,4.897c0.672,0.182,1.397,0.211,2.094,0.211c8.814,0.015,17.619,0.01,26.434,0.01
			c0.313,0,0.637,0,0.921,0c-0.745,4.49-1.485,8.888-2.216,13.295c-0.406,2.451-0.98,4.873-0.392,7.397
			c0.951,4.143,2.48,8.06,4.343,11.859c0.128,0.255,0.422,0.476,0.687,0.603c0.388,0.182,0.814,0.294,1.235,0.397
			c1.922,0.466,3.756,0.343,5.412-0.873c0.412-0.304,0.555-0.657,0.545-1.172c-0.089-3.848-0.172-7.696-0.182-11.55
			c-0.005-0.804,0.196-1.657,0.48-2.421c0.412-1.083,0.916-2.147,1.52-3.138c3.039-4.986,6.079-9.981,9.217-14.903
			c1.48-2.319,3.068-4.599,5.451-6.152c1.402-0.917,2.76-1.912,4.196-2.775c0.642-0.382,0.784-0.824,0.779-1.505
			c-0.02-9.785-0.015-19.57-0.015-29.355c0-0.137-0.015-0.274,0-0.407c0.088-0.588-0.127-0.848-0.755-0.799
			c-0.48,0.039-1.02,0.083-1.441-0.093c-1.112-0.471-2.221-0.976-3.24-1.613c-1.628-1.015-3.314-1.554-5.271-1.544
			c-12.824,0.049-25.648,0.024-38.468,0.039c-0.785,0-1.574,0.035-2.349,0.157c-2.373,0.377-4.167,1.579-5.206,3.794
			c-1.123,2.387-0.27,5.412,2.515,6.044c0.073,0.015,0.133,0.088,0.378,0.25c-0.329,0.333-0.55,0.755-0.858,0.843
			c-2.456,0.696-4.015,2.284-4.74,4.682c-0.529,1.726-0.196,3.309,1.226,4.49c0.646,0.54,1.461,0.873,2.407,1.417
			c-0.339,0.329-0.584,0.77-0.922,0.853c-2.417,0.637-3.927,2.226-4.696,4.515c-0.79,2.333,0.284,4.456,2.593,5.393
			C344.619,138.191,344.913,138.318,345.178,138.431z M406.947,143.559c0.289,0.02,0.5,0.049,0.715,0.049
			c8.079,0,16.158-0.01,24.237,0.015c0.726,0.005,0.839-0.274,0.839-0.902c-0.016-13.07-0.016-26.14,0.005-39.204
			c0-0.701-0.177-0.937-0.902-0.932c-8.001,0.02-16.001,0.015-23.997,0.02c-0.289,0-0.578,0.034-0.896,0.054
			C406.947,116.316,406.947,129.891,406.947,143.559z"/>
		<path fill-rule="evenodd" clip-rule="evenodd" fill="#FFFFFF" d="M345.178,138.431c-0.265-0.113-0.559-0.24-0.854-0.358
			c-2.309-0.937-3.383-3.059-2.593-5.393c0.77-2.29,2.279-3.878,4.696-4.515c0.338-0.083,0.583-0.524,0.922-0.853
			c-0.946-0.544-1.761-0.877-2.407-1.417c-1.422-1.181-1.755-2.765-1.226-4.49c0.726-2.397,2.284-3.985,4.74-4.682
			c0.309-0.088,0.529-0.51,0.858-0.843c-0.245-0.162-0.305-0.235-0.378-0.25c-2.784-0.632-3.638-3.657-2.515-6.044
			c1.039-2.216,2.833-3.417,5.206-3.794c0.774-0.123,1.563-0.157,2.349-0.157c12.819-0.015,25.644,0.01,38.468-0.039
			c1.956-0.01,3.643,0.529,5.271,1.544c1.02,0.637,2.128,1.142,3.24,1.613c0.422,0.176,0.961,0.132,1.441,0.093
			c0.628-0.049,0.843,0.21,0.755,0.799c-0.015,0.132,0,0.27,0,0.407c0,9.785-0.005,19.57,0.015,29.355
			c0.005,0.681-0.138,1.123-0.779,1.505c-1.437,0.863-2.794,1.858-4.196,2.775c-2.383,1.554-3.971,3.833-5.451,6.152
			c-3.138,4.922-6.178,9.917-9.217,14.903c-0.604,0.99-1.107,2.054-1.52,3.138c-0.284,0.765-0.485,1.618-0.48,2.421
			c0.01,3.854,0.093,7.702,0.182,11.55c0.01,0.515-0.133,0.868-0.545,1.172c-1.656,1.216-3.49,1.338-5.412,0.873
			c-0.421-0.103-0.848-0.215-1.235-0.397c-0.265-0.127-0.559-0.348-0.687-0.603c-1.862-3.799-3.392-7.716-4.343-11.859
			c-0.589-2.524-0.015-4.946,0.392-7.397c0.73-4.407,1.471-8.805,2.216-13.295c-0.284,0-0.607,0-0.921,0
			c-8.814,0-17.619,0.005-26.434-0.01c-0.696,0-1.422-0.029-2.094-0.211c-2.161-0.574-3.406-2.554-3.044-4.897
			c0.427-2.804,1.932-4.78,4.735-5.579C344.986,139.46,345.207,139.117,345.178,138.431z"/>
		<path fill-rule="evenodd" clip-rule="evenodd" fill="#FFFFFF" d="M406.947,143.559c0-13.667,0-27.242,0-40.9
			c0.318-0.02,0.607-0.054,0.896-0.054c7.996-0.005,15.996,0,23.997-0.02c0.726-0.005,0.902,0.23,0.902,0.932
			c-0.021,13.064-0.021,26.134-0.005,39.204c0,0.627-0.113,0.907-0.839,0.902c-8.079-0.024-16.158-0.015-24.237-0.015
			C407.447,143.608,407.236,143.579,406.947,143.559z"/>
	</g>
	<g>
		<path fill-rule="evenodd" clip-rule="evenodd" d="M173.944,347.446c-0.535,1.284-1.069,2.594-2.49,3.138
			c-0.77,0.294-1.604,0.544-2.417,0.549c-9.628,0.039-19.247,0.034-28.87,0.005c-0.735,0-1.466-0.304-2.206-0.411
			c-0.304-0.045-0.76-0.064-0.926,0.117c-1.054,1.084-2.147,2.152-3.03,3.363c-4.015,5.5-7.451,11.354-10.589,17.389
			c-0.52,1-0.804,2.005-0.755,3.166c0.137,3.441,0.157,6.884,0.255,10.325c0.068,2.451-1.123,4.167-3.177,5.24
			c-3.24,1.696-6.569,1.701-9.952,0.274c-1.794-0.755-2.853-2.094-3.505-3.818c-1.201-3.157-2.456-6.295-3.5-9.506
			c-0.976-2.99-1.162-6.074-0.525-9.217c0.618-3.098,1.044-6.24,1.549-9.368c0.039-0.235,0.029-0.476,0.049-0.838
			c-0.407,0-0.745,0-1.093,0c-7.29,0.005-14.585,0.01-21.875,0.01c-1.721-0.005-3.407-0.216-4.932-1.113
			c-2.397-1.412-3.535-3.638-3.79-6.284c-0.279-2.839,0.559-5.398,2.422-7.604c0.196-0.23,0.309-0.721,0.201-0.986
			c-1.505-3.784-0.638-7.162,1.691-10.295c0.294-0.401,0.441-0.715,0.226-1.234c-1.402-3.486-0.618-6.688,1.392-9.683
			c0.441-0.662,0.677-1.143,0.441-2.068c-1.108-4.227-0.152-9.064,3.829-11.796c2.015-1.382,4.309-2.078,6.721-2.107
			c7.368-0.098,14.746-0.083,22.119-0.093c6.147-0.011,12.305,0.054,18.453-0.03c2.647-0.034,4.932,0.785,7.108,2.152
			c0.515,0.324,1.147,0.456,1.853,0.726c0.068-0.862,0.098-1.476,0.171-2.083c0.24-1.995,1.647-3.427,3.623-3.677
			c0.431-0.06,0.863-0.074,1.294-0.074c8.275-0.005,16.541,0.045,24.806-0.039c2.647-0.02,4.51,0.849,5.427,3.412
			C173.944,319.141,173.944,333.293,173.944,347.446z M82.119,341.696c0.03,0.687-0.186,1.024-0.843,1.211
			c-2.794,0.804-4.304,2.774-4.735,5.583c-0.358,2.344,0.892,4.324,3.049,4.897c0.672,0.177,1.393,0.206,2.094,0.211
			c8.81,0.01,17.619,0.005,26.428,0.005c0.324,0,0.637,0,0.932,0c-0.755,4.491-1.491,8.893-2.221,13.295
			c-0.407,2.451-0.976,4.873-0.397,7.403c0.951,4.138,2.486,8.054,4.349,11.854c0.123,0.26,0.421,0.476,0.691,0.603
			c0.383,0.187,0.809,0.295,1.23,0.397c1.922,0.466,3.75,0.349,5.407-0.872c0.412-0.3,0.559-0.657,0.549-1.172
			c-0.088-3.849-0.171-7.697-0.181-11.545c-0.005-0.81,0.196-1.662,0.485-2.422c0.412-1.084,0.912-2.152,1.52-3.143
			c3.039-4.985,6.069-9.977,9.211-14.898c1.48-2.318,3.074-4.598,5.451-6.157c1.407-0.917,2.76-1.912,4.192-2.774
			c0.647-0.383,0.784-0.818,0.784-1.5c-0.02-9.79-0.01-19.575-0.01-29.36c0-0.132-0.02-0.27,0-0.401
			c0.078-0.589-0.127-0.849-0.755-0.805c-0.485,0.039-1.03,0.084-1.451-0.093c-1.108-0.466-2.216-0.976-3.235-1.613
			c-1.628-1.015-3.314-1.549-5.275-1.544c-12.819,0.049-25.639,0.029-38.463,0.039c-0.785,0.005-1.579,0.039-2.348,0.162
			c-2.368,0.372-4.162,1.573-5.211,3.789c-1.118,2.393-0.265,5.412,2.52,6.05c0.073,0.015,0.137,0.083,0.373,0.25
			c-0.324,0.328-0.54,0.75-0.853,0.838c-2.456,0.696-4.01,2.29-4.746,4.687c-0.52,1.721-0.191,3.305,1.235,4.491
			c0.637,0.534,1.456,0.867,2.402,1.417c-0.338,0.323-0.579,0.765-0.921,0.853c-2.422,0.638-3.922,2.221-4.697,4.51
			c-0.784,2.339,0.285,4.462,2.593,5.393C81.57,341.451,81.854,341.583,82.119,341.696z M143.893,346.824
			c0.289,0.02,0.505,0.049,0.72,0.049c8.079,0,16.158-0.01,24.237,0.015c0.716,0,0.833-0.274,0.833-0.907
			c-0.02-13.069-0.02-26.134,0-39.203c0-0.696-0.171-0.937-0.902-0.932c-8.001,0.024-15.997,0.015-23.992,0.02
			c-0.289,0-0.579,0.034-0.897,0.054C143.893,319.582,143.893,333.151,143.893,346.824z"/>
		<path fill-rule="evenodd" clip-rule="evenodd" fill="#FFFFFF" d="M82.119,341.696c-0.265-0.113-0.549-0.245-0.848-0.363
			c-2.309-0.931-3.377-3.054-2.593-5.393c0.775-2.289,2.275-3.872,4.697-4.51c0.343-0.088,0.583-0.529,0.921-0.853
			c-0.946-0.55-1.765-0.883-2.402-1.417c-1.426-1.187-1.755-2.771-1.235-4.491c0.735-2.396,2.29-3.99,4.746-4.687
			c0.313-0.088,0.529-0.51,0.853-0.838c-0.235-0.167-0.299-0.235-0.373-0.25c-2.785-0.638-3.638-3.657-2.52-6.05
			c1.049-2.216,2.843-3.417,5.211-3.789c0.77-0.123,1.563-0.157,2.348-0.162c12.825-0.01,25.644,0.01,38.463-0.039
			c1.961-0.005,3.647,0.529,5.275,1.544c1.02,0.638,2.127,1.147,3.235,1.613c0.421,0.177,0.966,0.132,1.451,0.093
			c0.627-0.044,0.833,0.216,0.755,0.805c-0.02,0.132,0,0.27,0,0.401c0,9.785-0.01,19.57,0.01,29.36c0,0.682-0.137,1.117-0.784,1.5
			c-1.432,0.862-2.785,1.857-4.192,2.774c-2.377,1.56-3.971,3.839-5.451,6.157c-3.143,4.922-6.172,9.913-9.211,14.898
			c-0.608,0.99-1.108,2.059-1.52,3.143c-0.29,0.76-0.49,1.612-0.485,2.422c0.01,3.848,0.093,7.696,0.181,11.545
			c0.01,0.515-0.137,0.872-0.549,1.172c-1.657,1.221-3.485,1.338-5.407,0.872c-0.421-0.103-0.848-0.211-1.23-0.397
			c-0.27-0.127-0.568-0.343-0.691-0.603c-1.863-3.8-3.397-7.716-4.349-11.854c-0.579-2.53-0.01-4.952,0.397-7.403
			c0.73-4.402,1.466-8.804,2.221-13.295c-0.294,0-0.608,0-0.932,0c-8.81,0-17.619,0.005-26.428-0.005
			c-0.701-0.005-1.422-0.034-2.094-0.211c-2.157-0.573-3.407-2.554-3.049-4.897c0.431-2.809,1.941-4.779,4.735-5.583
			C81.933,342.721,82.148,342.383,82.119,341.696z"/>
		<path fill-rule="evenodd" clip-rule="evenodd" fill="#FFFFFF" d="M143.893,346.824c0-13.673,0-27.242,0-40.905
			c0.318-0.02,0.608-0.054,0.897-0.054c7.996-0.005,15.991,0.005,23.992-0.02c0.73-0.005,0.902,0.235,0.902,0.932
			c-0.02,13.069-0.02,26.134,0,39.203c0,0.633-0.118,0.907-0.833,0.907c-8.079-0.024-16.158-0.015-24.237-0.015
			C144.398,346.873,144.182,346.844,143.893,346.824z"/>
	</g>
	<g>
		<path fill-rule="evenodd" clip-rule="evenodd" d="M122.729,189.209c-0.529,1.29-1.068,2.599-2.49,3.143
			c-0.765,0.289-1.608,0.544-2.417,0.549c-9.623,0.034-19.247,0.034-28.87,0.005c-0.735-0.005-1.461-0.304-2.206-0.412
			c-0.304-0.049-0.755-0.063-0.932,0.113c-1.049,1.083-2.137,2.152-3.024,3.368c-4.015,5.495-7.452,11.349-10.584,17.384
			c-0.52,1.005-0.804,2.005-0.76,3.171c0.142,3.437,0.157,6.883,0.25,10.325c0.069,2.446-1.118,4.162-3.172,5.235
			c-3.24,1.696-6.569,1.706-9.957,0.279c-1.784-0.755-2.848-2.093-3.5-3.819c-1.196-3.157-2.456-6.299-3.5-9.505
			c-0.976-2.996-1.157-6.074-0.529-9.216c0.627-3.104,1.049-6.241,1.559-9.369c0.035-0.235,0.03-0.476,0.049-0.838
			c-0.412,0-0.755,0-1.098,0c-7.29,0-14.584,0.01-21.874,0.005c-1.721,0-3.402-0.211-4.932-1.108
			c-2.397-1.412-3.53-3.637-3.79-6.285c-0.279-2.838,0.564-5.397,2.427-7.604c0.196-0.23,0.304-0.72,0.196-0.99
			c-1.505-3.78-0.637-7.157,1.691-10.29c0.294-0.402,0.436-0.715,0.23-1.24c-1.412-3.48-0.628-6.687,1.392-9.677
			c0.441-0.662,0.676-1.147,0.431-2.068c-1.107-4.231-0.147-9.06,3.834-11.795c2.02-1.387,4.314-2.083,6.716-2.113
			c7.373-0.093,14.747-0.078,22.12-0.088c6.157-0.015,12.31,0.054,18.462-0.029c2.638-0.039,4.927,0.78,7.108,2.152
			c0.51,0.323,1.147,0.456,1.848,0.725c0.069-0.862,0.098-1.476,0.172-2.088c0.235-1.991,1.647-3.422,3.623-3.677
			c0.427-0.054,0.868-0.074,1.299-0.074c8.265-0.005,16.535,0.049,24.806-0.029c2.638-0.03,4.51,0.843,5.422,3.407
			C122.729,160.908,122.729,175.061,122.729,189.209z M30.909,183.459c0.029,0.691-0.187,1.029-0.843,1.216
			c-2.804,0.799-4.309,2.774-4.736,5.579c-0.363,2.348,0.883,4.324,3.044,4.897c0.671,0.181,1.397,0.211,2.093,0.211
			c8.814,0.015,17.619,0.015,26.434,0.015c0.313,0,0.637,0,0.926,0c-0.75,4.486-1.49,8.888-2.221,13.29
			c-0.407,2.451-0.98,4.873-0.392,7.398c0.951,4.142,2.48,8.059,4.343,11.858c0.127,0.255,0.422,0.476,0.687,0.603
			c0.387,0.186,0.814,0.294,1.235,0.397c1.921,0.466,3.755,0.343,5.412-0.873c0.412-0.304,0.559-0.657,0.544-1.171
			c-0.088-3.849-0.172-7.697-0.182-11.545c-0.005-0.809,0.196-1.662,0.485-2.427c0.412-1.083,0.912-2.147,1.515-3.133
			c3.04-4.99,6.079-9.986,9.217-14.903c1.48-2.324,3.068-4.604,5.451-6.158c1.402-0.917,2.765-1.912,4.196-2.774
			c0.647-0.382,0.784-0.824,0.779-1.505c-0.02-9.785-0.015-19.57-0.015-29.355c0-0.137-0.015-0.274,0.005-0.407
			c0.083-0.588-0.127-0.843-0.76-0.799c-0.48,0.04-1.02,0.088-1.441-0.093c-1.107-0.466-2.216-0.976-3.235-1.613
			c-1.627-1.015-3.319-1.554-5.275-1.544c-12.825,0.049-25.644,0.024-38.463,0.039c-0.79,0-1.579,0.035-2.354,0.157
			c-2.368,0.377-4.167,1.578-5.206,3.794c-1.123,2.388-0.265,5.413,2.52,6.045c0.069,0.015,0.128,0.088,0.373,0.25
			c-0.329,0.333-0.549,0.755-0.854,0.843c-2.461,0.696-4.015,2.285-4.745,4.682c-0.529,1.726-0.196,3.309,1.226,4.491
			c0.647,0.539,1.461,0.873,2.407,1.417c-0.338,0.329-0.583,0.77-0.917,0.858c-2.422,0.632-3.932,2.221-4.696,4.51
			c-0.794,2.333,0.284,4.456,2.588,5.393C30.35,183.219,30.645,183.346,30.909,183.459z M92.678,188.587
			c0.29,0.02,0.505,0.049,0.716,0.049c8.079,0.005,16.158-0.01,24.237,0.015c0.725,0.005,0.838-0.27,0.838-0.902
			c-0.015-13.07-0.015-26.139,0.005-39.204c0-0.701-0.177-0.936-0.902-0.931c-8,0.024-16.001,0.015-23.997,0.024
			c-0.289,0-0.573,0.029-0.897,0.049C92.678,161.345,92.678,174.919,92.678,188.587z"/>
		<path fill-rule="evenodd" clip-rule="evenodd" fill="#FFFFFF" d="M30.909,183.459c-0.265-0.113-0.559-0.24-0.853-0.358
			c-2.304-0.937-3.383-3.059-2.588-5.393c0.765-2.29,2.274-3.878,4.696-4.51c0.333-0.088,0.579-0.529,0.917-0.858
			c-0.946-0.544-1.76-0.877-2.407-1.417c-1.422-1.182-1.755-2.765-1.226-4.491c0.73-2.397,2.284-3.986,4.745-4.682
			c0.304-0.088,0.525-0.51,0.854-0.843c-0.245-0.162-0.304-0.235-0.373-0.25c-2.784-0.632-3.642-3.657-2.52-6.045
			c1.039-2.216,2.838-3.417,5.206-3.794c0.775-0.123,1.564-0.157,2.354-0.157c12.819-0.015,25.639,0.01,38.463-0.039
			c1.956-0.01,3.647,0.529,5.275,1.544c1.02,0.637,2.128,1.147,3.235,1.613c0.422,0.181,0.961,0.132,1.441,0.093
			c0.632-0.044,0.843,0.211,0.76,0.799c-0.02,0.132-0.005,0.27-0.005,0.407c0,9.785-0.005,19.57,0.015,29.355
			c0.005,0.681-0.132,1.123-0.779,1.505c-1.432,0.863-2.794,1.858-4.196,2.774c-2.383,1.554-3.971,3.834-5.451,6.158
			c-3.138,4.917-6.177,9.913-9.217,14.903c-0.603,0.985-1.103,2.049-1.515,3.133c-0.289,0.765-0.49,1.618-0.485,2.427
			c0.01,3.848,0.093,7.696,0.182,11.545c0.015,0.515-0.133,0.868-0.544,1.171c-1.657,1.216-3.491,1.338-5.412,0.873
			c-0.421-0.103-0.848-0.211-1.235-0.397c-0.265-0.127-0.559-0.348-0.687-0.603c-1.863-3.799-3.392-7.716-4.343-11.858
			c-0.588-2.525-0.015-4.947,0.392-7.398c0.73-4.402,1.471-8.804,2.221-13.29c-0.289,0-0.613,0-0.926,0
			c-8.814,0-17.619,0-26.434-0.015c-0.696,0-1.422-0.03-2.093-0.211c-2.162-0.574-3.407-2.549-3.044-4.897
			c0.427-2.804,1.932-4.78,4.736-5.579C30.723,184.488,30.938,184.15,30.909,183.459z"/>
		<path fill-rule="evenodd" clip-rule="evenodd" fill="#FFFFFF" d="M92.678,188.587c0-13.668,0-27.242,0-40.9
			c0.324-0.02,0.608-0.049,0.897-0.049c7.996-0.01,15.997,0,23.997-0.024c0.726-0.005,0.902,0.23,0.902,0.931
			c-0.02,13.065-0.02,26.134-0.005,39.204c0,0.632-0.113,0.907-0.838,0.902c-8.079-0.024-16.158-0.01-24.237-0.015
			C93.184,188.636,92.968,188.606,92.678,188.587z"/>
	</g>
	<g>
		<path fill-rule="evenodd" clip-rule="evenodd" d="M249.925,65.666c-0.54,1.289-1.074,2.603-2.49,3.142
			c-0.77,0.294-1.608,0.544-2.422,0.549c-9.619,0.034-19.247,0.034-28.87,0.005c-0.735,0-1.461-0.304-2.201-0.412
			c-0.309-0.044-0.765-0.063-0.932,0.113c-1.049,1.083-2.147,2.152-3.029,3.368c-4.01,5.5-7.452,11.349-10.584,17.388
			c-0.524,1-0.809,2.005-0.76,3.167c0.137,3.441,0.157,6.883,0.255,10.324c0.069,2.446-1.123,4.167-3.177,5.241
			c-3.24,1.691-6.569,1.701-9.952,0.274c-1.789-0.755-2.853-2.088-3.505-3.819c-1.196-3.157-2.456-6.294-3.5-9.505
			c-0.976-2.996-1.157-6.074-0.524-9.211c0.618-3.104,1.049-6.246,1.549-9.374c0.044-0.235,0.035-0.475,0.054-0.838
			c-0.407,0-0.75,0-1.093,0c-7.295,0-14.584,0.01-21.875,0.005c-1.726,0-3.412-0.21-4.932-1.107
			c-2.402-1.412-3.539-3.638-3.794-6.285c-0.274-2.838,0.564-5.397,2.427-7.604c0.191-0.23,0.309-0.721,0.201-0.99
			c-1.51-3.78-0.642-7.157,1.686-10.29c0.294-0.402,0.441-0.711,0.226-1.235c-1.402-3.485-0.618-6.687,1.393-9.682
			c0.446-0.657,0.681-1.147,0.441-2.069c-1.108-4.226-0.147-9.06,3.833-11.79c2.01-1.387,4.31-2.083,6.716-2.118
			c7.374-0.093,14.747-0.074,22.12-0.088c6.152-0.01,12.305,0.054,18.462-0.029c2.638-0.034,4.922,0.784,7.099,2.152
			c0.52,0.323,1.147,0.456,1.853,0.726c0.069-0.863,0.098-1.476,0.171-2.084c0.24-1.995,1.652-3.426,3.623-3.676
			c0.432-0.059,0.868-0.074,1.299-0.074c8.271-0.005,16.536,0.044,24.806-0.034c2.642-0.024,4.505,0.843,5.427,3.407
			C249.925,37.365,249.925,51.518,249.925,65.666z M158.1,59.916c0.025,0.691-0.186,1.034-0.843,1.215
			c-2.799,0.799-4.31,2.78-4.741,5.584c-0.353,2.343,0.892,4.319,3.054,4.897c0.672,0.177,1.392,0.211,2.093,0.211
			c8.805,0.01,17.619,0.01,26.428,0.01c0.319,0,0.633,0,0.927,0c-0.75,4.485-1.49,8.888-2.216,13.29
			c-0.412,2.451-0.98,4.878-0.397,7.402c0.956,4.138,2.485,8.055,4.343,11.859c0.127,0.255,0.422,0.471,0.691,0.598
			c0.382,0.187,0.809,0.294,1.23,0.397c1.927,0.471,3.755,0.348,5.417-0.873c0.407-0.299,0.549-0.657,0.539-1.172
			c-0.088-3.848-0.171-7.696-0.181-11.545c-0.005-0.809,0.196-1.662,0.485-2.421c0.412-1.083,0.912-2.147,1.52-3.138
			c3.04-4.991,6.069-9.981,9.216-14.903c1.476-2.324,3.069-4.604,5.452-6.157c1.402-0.917,2.755-1.912,4.196-2.77
			c0.637-0.387,0.774-0.824,0.774-1.505c-0.02-9.785-0.01-19.575-0.01-29.36c0-0.132-0.02-0.27,0-0.407
			c0.079-0.588-0.127-0.843-0.755-0.794c-0.48,0.034-1.024,0.083-1.451-0.098c-1.108-0.466-2.211-0.976-3.23-1.608
			c-1.632-1.02-3.319-1.559-5.28-1.549c-12.82,0.049-25.639,0.029-38.464,0.039c-0.779,0.005-1.573,0.04-2.343,0.157
			c-2.373,0.377-4.167,1.579-5.211,3.799c-1.123,2.382-0.27,5.407,2.515,6.04c0.079,0.02,0.137,0.088,0.373,0.25
			c-0.323,0.333-0.539,0.755-0.848,0.843c-2.456,0.701-4.015,2.289-4.75,4.687c-0.52,1.721-0.186,3.304,1.236,4.49
			c0.642,0.535,1.46,0.868,2.402,1.412c-0.333,0.329-0.578,0.77-0.921,0.858c-2.417,0.637-3.922,2.221-4.697,4.51
			c-0.784,2.338,0.29,4.461,2.599,5.393C157.546,59.68,157.83,59.808,158.1,59.916z M219.869,65.048
			c0.289,0.02,0.505,0.044,0.721,0.044c8.079,0.005,16.158-0.005,24.237,0.02c0.725,0,0.833-0.274,0.833-0.907
			c-0.015-13.07-0.02-26.14,0-39.204c0-0.701-0.167-0.932-0.902-0.932c-7.996,0.025-15.992,0.02-23.992,0.025
			c-0.289,0-0.579,0.034-0.897,0.054C219.869,37.801,219.869,51.375,219.869,65.048z"/>
		<path fill-rule="evenodd" clip-rule="evenodd" fill="#FFFFFF" d="M158.1,59.916c-0.27-0.108-0.554-0.235-0.848-0.358
			c-2.309-0.932-3.383-3.054-2.599-5.393c0.775-2.29,2.28-3.873,4.697-4.51c0.343-0.088,0.588-0.529,0.921-0.858
			c-0.941-0.544-1.76-0.877-2.402-1.412c-1.422-1.186-1.755-2.77-1.236-4.49c0.735-2.397,2.294-3.985,4.75-4.687
			c0.309-0.088,0.525-0.51,0.848-0.843c-0.235-0.162-0.294-0.23-0.373-0.25c-2.785-0.632-3.637-3.657-2.515-6.04
			c1.044-2.221,2.838-3.422,5.211-3.799c0.77-0.118,1.564-0.152,2.343-0.157c12.825-0.01,25.644,0.01,38.464-0.039
			c1.961-0.01,3.647,0.529,5.28,1.549c1.02,0.632,2.123,1.142,3.23,1.608c0.427,0.181,0.971,0.132,1.451,0.098
			c0.627-0.049,0.833,0.206,0.755,0.794c-0.02,0.137,0,0.274,0,0.407c0,9.785-0.01,19.575,0.01,29.36
			c0,0.681-0.137,1.118-0.774,1.505c-1.441,0.858-2.794,1.853-4.196,2.77c-2.383,1.554-3.976,3.833-5.452,6.157
			c-3.147,4.922-6.177,9.912-9.216,14.903c-0.608,0.99-1.108,2.054-1.52,3.138c-0.29,0.76-0.49,1.613-0.485,2.421
			c0.01,3.849,0.093,7.697,0.181,11.545c0.01,0.515-0.132,0.873-0.539,1.172c-1.662,1.221-3.49,1.343-5.417,0.873
			c-0.422-0.103-0.848-0.21-1.23-0.397c-0.27-0.127-0.564-0.343-0.691-0.598c-1.858-3.804-3.388-7.721-4.343-11.859
			c-0.583-2.524-0.015-4.951,0.397-7.402c0.726-4.402,1.466-8.805,2.216-13.29c-0.294,0-0.608,0-0.927,0
			c-8.81,0-17.624,0-26.428-0.01c-0.701,0-1.421-0.034-2.093-0.211c-2.162-0.579-3.407-2.554-3.054-4.897
			c0.431-2.804,1.941-4.785,4.741-5.584C157.914,60.95,158.125,60.606,158.1,59.916z"/>
		<path fill-rule="evenodd" clip-rule="evenodd" fill="#FFFFFF" d="M219.869,65.048c0-13.672,0-27.247,0-40.9
			c0.318-0.02,0.608-0.054,0.897-0.054c8-0.005,15.997,0,23.992-0.025c0.735,0,0.902,0.23,0.902,0.932
			c-0.02,13.064-0.015,26.134,0,39.204c0,0.632-0.108,0.907-0.833,0.907c-8.079-0.024-16.158-0.015-24.237-0.02
			C220.374,65.092,220.158,65.068,219.869,65.048z"/>
	</g>
	<g>
		<path fill-rule="evenodd" clip-rule="evenodd" d="M479.275,326.17c-0.529,1.285-1.068,2.599-2.485,3.138
			c-0.77,0.294-1.607,0.55-2.417,0.55c-9.623,0.039-19.246,0.034-28.874,0.004c-0.735,0-1.461-0.304-2.201-0.411
			c-0.31-0.044-0.761-0.063-0.932,0.117c-1.05,1.084-2.143,2.152-3.024,3.363c-4.016,5.501-7.452,11.354-10.59,17.389
			c-0.52,1.005-0.804,2.005-0.755,3.172c0.138,3.437,0.152,6.883,0.255,10.324c0.069,2.446-1.127,4.162-3.177,5.235
			c-3.245,1.696-6.568,1.701-9.951,0.274c-1.794-0.755-2.854-2.088-3.511-3.818c-1.19-3.157-2.451-6.295-3.5-9.506
			c-0.971-2.99-1.156-6.069-0.52-9.212c0.618-3.103,1.039-6.245,1.549-9.373c0.04-0.235,0.029-0.476,0.05-0.838
			c-0.402,0-0.751,0-1.094,0c-7.29,0.005-14.584,0.01-21.874,0.01c-1.721,0-3.407-0.211-4.932-1.113
			c-2.402-1.406-3.535-3.632-3.789-6.279c-0.28-2.839,0.559-5.397,2.421-7.608c0.196-0.226,0.31-0.716,0.201-0.985
			c-1.505-3.78-0.638-7.157,1.687-10.295c0.299-0.397,0.441-0.711,0.23-1.235c-1.402-3.485-0.623-6.687,1.393-9.683
			c0.441-0.656,0.676-1.142,0.436-2.068c-1.103-4.226-0.142-9.06,3.834-11.79c2.015-1.388,4.31-2.084,6.716-2.113
			c7.378-0.098,14.751-0.078,22.12-0.093c6.152-0.01,12.31,0.054,18.462-0.029c2.643-0.034,4.927,0.784,7.104,2.156
			c0.51,0.319,1.146,0.451,1.853,0.721c0.069-0.857,0.099-1.475,0.167-2.083c0.245-1.99,1.647-3.422,3.628-3.677
			c0.432-0.054,0.862-0.073,1.294-0.073c8.271-0.005,16.54,0.049,24.806-0.034c2.647-0.025,4.51,0.848,5.422,3.412
			C479.275,297.864,479.275,312.018,479.275,326.17z M387.455,320.42c0.029,0.687-0.187,1.029-0.843,1.216
			c-2.8,0.799-4.305,2.774-4.736,5.579c-0.357,2.343,0.893,4.323,3.05,4.897c0.666,0.176,1.392,0.211,2.098,0.211
			c8.805,0.015,17.614,0.01,26.424,0.01c0.323,0,0.637,0,0.927,0c-0.75,4.49-1.485,8.888-2.221,13.295
			c-0.402,2.446-0.971,4.873-0.393,7.397c0.956,4.138,2.485,8.06,4.349,11.858c0.122,0.255,0.416,0.471,0.687,0.599
			c0.387,0.186,0.809,0.294,1.23,0.396c1.921,0.471,3.755,0.349,5.417-0.867c0.406-0.305,0.554-0.657,0.544-1.177
			c-0.089-3.849-0.172-7.691-0.187-11.54c0-0.813,0.201-1.667,0.49-2.427c0.412-1.083,0.912-2.147,1.515-3.138
			c3.04-4.99,6.074-9.98,9.217-14.902c1.48-2.319,3.073-4.599,5.446-6.158c1.412-0.916,2.765-1.906,4.201-2.77
			c0.643-0.387,0.779-0.823,0.779-1.505c-0.02-9.785-0.015-19.57-0.015-29.36c0-0.132-0.015-0.27,0.005-0.401
			c0.079-0.589-0.127-0.849-0.76-0.8c-0.48,0.035-1.024,0.084-1.446-0.098c-1.107-0.466-2.216-0.976-3.235-1.607
			c-1.627-1.021-3.313-1.555-5.274-1.545c-12.825,0.049-25.64,0.024-38.464,0.039c-0.784,0-1.578,0.035-2.349,0.157
			c-2.367,0.372-4.167,1.573-5.211,3.794c-1.118,2.388-0.265,5.408,2.52,6.045c0.079,0.015,0.138,0.084,0.373,0.25
			c-0.323,0.328-0.539,0.755-0.854,0.844c-2.451,0.695-4.01,2.284-4.745,4.682c-0.524,1.726-0.191,3.309,1.23,4.49
			c0.643,0.539,1.461,0.873,2.407,1.417c-0.339,0.328-0.583,0.765-0.922,0.853c-2.422,0.638-3.922,2.221-4.696,4.516
			c-0.784,2.333,0.284,4.456,2.594,5.393C386.901,320.18,387.19,320.308,387.455,320.42z M449.225,325.548
			c0.294,0.02,0.51,0.049,0.721,0.049c8.079,0,16.158-0.01,24.236,0.015c0.727,0,0.839-0.274,0.839-0.906
			c-0.02-13.065-0.02-26.135,0-39.204c0-0.696-0.167-0.932-0.902-0.932c-7.995,0.024-15.996,0.02-23.991,0.024
			c-0.29,0-0.579,0.034-0.902,0.054C449.225,298.306,449.225,311.88,449.225,325.548z"/>
		<path fill-rule="evenodd" clip-rule="evenodd" fill="#FFFFFF" d="M387.455,320.42c-0.265-0.112-0.554-0.24-0.848-0.357
			c-2.31-0.937-3.378-3.06-2.594-5.393c0.774-2.295,2.274-3.878,4.696-4.516c0.339-0.088,0.583-0.524,0.922-0.853
			c-0.946-0.544-1.765-0.878-2.407-1.417c-1.422-1.182-1.755-2.765-1.23-4.49c0.735-2.397,2.294-3.986,4.745-4.682
			c0.314-0.089,0.53-0.516,0.854-0.844c-0.235-0.166-0.294-0.235-0.373-0.25c-2.784-0.637-3.638-3.657-2.52-6.045
			c1.044-2.221,2.844-3.422,5.211-3.794c0.771-0.122,1.564-0.157,2.349-0.157c12.824-0.015,25.639,0.01,38.464-0.039
			c1.961-0.01,3.647,0.524,5.274,1.545c1.02,0.632,2.128,1.142,3.235,1.607c0.422,0.182,0.966,0.133,1.446,0.098
			c0.633-0.049,0.839,0.211,0.76,0.8c-0.02,0.132-0.005,0.27-0.005,0.401c0,9.79-0.005,19.575,0.015,29.36
			c0,0.682-0.137,1.118-0.779,1.505c-1.437,0.863-2.789,1.854-4.201,2.77c-2.373,1.56-3.966,3.839-5.446,6.158
			c-3.143,4.922-6.177,9.912-9.217,14.902c-0.603,0.99-1.103,2.055-1.515,3.138c-0.289,0.76-0.49,1.613-0.49,2.427
			c0.015,3.849,0.098,7.691,0.187,11.54c0.01,0.52-0.138,0.872-0.544,1.177c-1.662,1.216-3.496,1.338-5.417,0.867
			c-0.422-0.103-0.844-0.211-1.23-0.396c-0.271-0.128-0.564-0.344-0.687-0.599c-1.863-3.799-3.393-7.721-4.349-11.858
			c-0.578-2.524-0.01-4.951,0.393-7.397c0.735-4.407,1.471-8.805,2.221-13.295c-0.29,0-0.604,0-0.927,0
			c-8.81,0-17.619,0.005-26.424-0.01c-0.706,0-1.432-0.035-2.098-0.211c-2.157-0.574-3.407-2.555-3.05-4.897
			c0.432-2.805,1.937-4.78,4.736-5.579C387.269,321.449,387.484,321.106,387.455,320.42z"/>
		<path fill-rule="evenodd" clip-rule="evenodd" fill="#FFFFFF" d="M449.225,325.548c0-13.668,0-27.242,0-40.9
			c0.323-0.02,0.612-0.054,0.902-0.054c7.995-0.005,15.996,0,23.991-0.024c0.735,0,0.902,0.235,0.902,0.932
			c-0.02,13.069-0.02,26.139,0,39.204c0,0.632-0.112,0.906-0.839,0.906c-8.078-0.024-16.157-0.015-24.236-0.015
			C449.734,325.597,449.519,325.567,449.225,325.548z"/>
	</g>
	<g>
		<path fill-rule="evenodd" clip-rule="evenodd" d="M353.07,429.668c-0.529,1.285-1.068,2.599-2.49,3.138
			c-0.765,0.294-1.608,0.544-2.417,0.549c-9.623,0.04-19.247,0.034-28.87,0.005c-0.735,0-1.466-0.304-2.206-0.411
			c-0.304-0.044-0.76-0.064-0.932,0.117c-1.049,1.084-2.137,2.152-3.024,3.363c-4.015,5.5-7.451,11.354-10.584,17.389
			c-0.52,1.005-0.809,2.005-0.76,3.172c0.137,3.437,0.152,6.883,0.25,10.319c0.068,2.451-1.118,4.167-3.172,5.24
			c-3.24,1.696-6.569,1.701-9.957,0.274c-1.784-0.755-2.848-2.088-3.5-3.818c-1.196-3.157-2.456-6.295-3.5-9.506
			c-0.976-2.99-1.157-6.074-0.529-9.212c0.627-3.103,1.049-6.245,1.559-9.373c0.034-0.235,0.029-0.471,0.044-0.838
			c-0.406,0-0.75,0-1.093,0c-7.29,0.005-14.585,0.01-21.874,0.01c-1.726,0-3.402-0.211-4.933-1.113
			c-2.401-1.412-3.529-3.633-3.794-6.279c-0.274-2.839,0.563-5.397,2.432-7.608c0.196-0.23,0.304-0.721,0.196-0.985
			c-1.505-3.78-0.638-7.158,1.687-10.295c0.294-0.402,0.44-0.711,0.23-1.235c-1.407-3.486-0.623-6.688,1.392-9.683
			c0.441-0.656,0.682-1.143,0.437-2.068c-1.108-4.227-0.147-9.06,3.834-11.79c2.02-1.388,4.313-2.084,6.716-2.113
			c7.373-0.098,14.746-0.078,22.119-0.093c6.157-0.01,12.31,0.054,18.462-0.029c2.638-0.035,4.927,0.784,7.108,2.156
			c0.51,0.319,1.147,0.451,1.849,0.721c0.068-0.862,0.093-1.476,0.172-2.083c0.235-1.995,1.646-3.427,3.622-3.677
			c0.427-0.054,0.868-0.074,1.3-0.074c8.265-0.004,16.53,0.045,24.801-0.034c2.642-0.024,4.515,0.849,5.427,3.412
			C353.07,401.362,353.07,415.516,353.07,429.668z M261.25,423.918c0.029,0.687-0.191,1.029-0.844,1.216
			c-2.804,0.799-4.309,2.774-4.735,5.579c-0.362,2.343,0.882,4.323,3.044,4.896c0.672,0.177,1.397,0.206,2.094,0.211
			c8.814,0.016,17.619,0.01,26.434,0.01c0.313,0,0.637,0,0.921,0c-0.745,4.491-1.485,8.889-2.216,13.291
			c-0.406,2.451-0.98,4.877-0.392,7.402c0.951,4.138,2.48,8.06,4.343,11.858c0.128,0.255,0.422,0.476,0.687,0.603
			c0.388,0.182,0.813,0.29,1.235,0.393c1.922,0.471,3.756,0.349,5.412-0.872c0.412-0.3,0.555-0.652,0.545-1.172
			c-0.089-3.849-0.172-7.692-0.182-11.545c-0.005-0.81,0.196-1.662,0.48-2.422c0.411-1.083,0.916-2.147,1.52-3.138
			c3.039-4.985,6.079-9.977,9.217-14.903c1.48-2.318,3.068-4.598,5.451-6.157c1.402-0.912,2.76-1.906,4.196-2.77
			c0.642-0.388,0.784-0.823,0.779-1.505c-0.02-9.785-0.015-19.575-0.015-29.36c0-0.132-0.015-0.27,0-0.402
			c0.088-0.588-0.128-0.848-0.755-0.799c-0.48,0.034-1.02,0.084-1.446-0.098c-1.107-0.466-2.211-0.976-3.23-1.608
			c-1.633-1.02-3.319-1.554-5.275-1.544c-12.824,0.049-25.644,0.024-38.469,0.039c-0.784,0-1.573,0.034-2.348,0.157
			c-2.373,0.372-4.167,1.573-5.206,3.794c-1.123,2.388-0.265,5.407,2.52,6.045c0.068,0.015,0.128,0.083,0.372,0.25
			c-0.333,0.328-0.549,0.755-0.853,0.843c-2.461,0.696-4.015,2.285-4.745,4.683c-0.529,1.725-0.196,3.309,1.226,4.49
			c0.646,0.539,1.461,0.872,2.407,1.416c-0.339,0.324-0.584,0.766-0.917,0.854c-2.422,0.638-3.932,2.221-4.696,4.515
			c-0.795,2.334,0.284,4.457,2.588,5.393C260.69,423.678,260.985,423.805,261.25,423.918z M323.019,429.046
			c0.29,0.02,0.501,0.049,0.716,0.049c8.079,0,16.158-0.01,24.237,0.015c0.726,0,0.839-0.274,0.839-0.907
			c-0.016-13.064-0.016-26.134,0.004-39.204c0-0.695-0.176-0.931-0.901-0.931c-8.001,0.029-16.001,0.02-23.997,0.024
			c-0.289,0-0.578,0.034-0.897,0.054C323.019,401.804,323.019,415.378,323.019,429.046z"/>
		<path fill-rule="evenodd" clip-rule="evenodd" fill="#FFFFFF" d="M261.25,423.918c-0.265-0.113-0.56-0.24-0.854-0.358
			c-2.304-0.936-3.383-3.059-2.588-5.393c0.765-2.294,2.274-3.877,4.696-4.515c0.333-0.088,0.578-0.529,0.917-0.854
			c-0.946-0.544-1.761-0.877-2.407-1.416c-1.422-1.182-1.755-2.766-1.226-4.49c0.73-2.397,2.284-3.986,4.745-4.683
			c0.304-0.088,0.52-0.515,0.853-0.843c-0.244-0.167-0.304-0.235-0.372-0.25c-2.784-0.638-3.643-3.657-2.52-6.045
			c1.039-2.221,2.833-3.422,5.206-3.794c0.774-0.123,1.563-0.157,2.348-0.157c12.825-0.015,25.645,0.01,38.469-0.039
			c1.956-0.01,3.643,0.524,5.275,1.544c1.02,0.633,2.123,1.143,3.23,1.608c0.427,0.182,0.966,0.132,1.446,0.098
			c0.627-0.049,0.843,0.211,0.755,0.799c-0.015,0.133,0,0.271,0,0.402c0,9.785-0.005,19.575,0.015,29.36
			c0.005,0.682-0.138,1.117-0.779,1.505c-1.437,0.863-2.794,1.857-4.196,2.77c-2.383,1.56-3.971,3.839-5.451,6.157
			c-3.138,4.927-6.178,9.918-9.217,14.903c-0.604,0.99-1.108,2.055-1.52,3.138c-0.284,0.76-0.485,1.612-0.48,2.422
			c0.01,3.853,0.093,7.696,0.182,11.545c0.01,0.52-0.133,0.872-0.545,1.172c-1.656,1.221-3.49,1.343-5.412,0.872
			c-0.422-0.103-0.848-0.211-1.235-0.393c-0.265-0.127-0.559-0.348-0.687-0.603c-1.862-3.799-3.392-7.721-4.343-11.858
			c-0.589-2.525-0.015-4.951,0.392-7.402c0.73-4.402,1.471-8.8,2.216-13.291c-0.284,0-0.607,0-0.921,0
			c-8.814,0-17.619,0.006-26.434-0.01c-0.696-0.005-1.422-0.034-2.094-0.211c-2.162-0.573-3.406-2.554-3.044-4.896
			c0.427-2.805,1.932-4.78,4.735-5.579C261.059,424.947,261.279,424.604,261.25,423.918z"/>
		<path fill-rule="evenodd" clip-rule="evenodd" fill="#FFFFFF" d="M323.019,429.046c0-13.668,0-27.242,0-40.9
			c0.319-0.02,0.608-0.054,0.897-0.054c7.996-0.005,15.996,0.005,23.997-0.024c0.726,0,0.901,0.235,0.901,0.931
			c-0.02,13.07-0.02,26.14-0.004,39.204c0,0.633-0.113,0.907-0.839,0.907c-8.079-0.024-16.158-0.015-24.237-0.015
			C323.52,429.095,323.309,429.065,323.019,429.046z"/>
	</g>
</g>
</svg>
