<?xml version="1.0" encoding="utf-8"?>
<!-- Generator: Adobe Illustrator 16.0.0, SVG Export Plug-In . SVG Version: 6.00 Build 0)  -->
<!DOCTYPE svg PUBLIC "-//W3C//DTD SVG 1.1//EN" "http://www.w3.org/Graphics/SVG/1.1/DTD/svg11.dtd">
<svg version="1.1" id="Layer_1" xmlns="http://www.w3.org/2000/svg" xmlns:xlink="http://www.w3.org/1999/xlink" x="0px" y="0px"
	 width="500px" height="500px" viewBox="0 0 500 500" enable-background="new 0 0 500 500" xml:space="preserve">
<rect x="83.477" y="77.13" fill-rule="evenodd" clip-rule="evenodd" fill="#FFFFFF" width="378.741" height="320.3"/>
<path fill="#299B83" d="M459.526,388.87c0,7.739-7.672,14.02-17.127,14.02H226.503c-9.456,0-17.126-6.28-17.126-14.02V94.805
	c0-7.741,7.67-14.016,17.126-14.016h215.896c9.455,0,17.127,6.274,17.127,14.016V388.87z"/>
<path fill="#299B83" d="M445.39,286.546c0,108.676-88.089,196.757-196.753,196.757c-108.668,0-196.758-88.081-196.758-196.757
	c0-108.663,88.09-196.761,196.758-196.761C357.301,89.785,445.39,177.883,445.39,286.546z"/>
<g>
	<g>
		<rect x="236.167" y="91.524" fill="#FFFFFF" width="209.816" height="298.551"/>
	</g>
	<g>
		<path fill="#CCCCCC" d="M279.66,143.419c-2.552,1.344-5.152,1.856-8.262,1.856c-7.606,0-14.059-5.572-14.059-14.481
			c0-9.558,6.634-17.818,16.937-17.818c8.079,0,13.507,5.661,13.507,13.412c0,6.959-3.901,11.044-8.26,11.044
			c-1.861,0-3.575-1.253-3.436-4.085h-0.185c-1.627,2.739-3.762,4.085-6.547,4.085c-2.688,0-5.007-2.182-5.007-5.845
			c0-5.754,4.539-11.001,10.992-11.001c1.998,0,3.761,0.417,4.965,0.974l-1.571,8.4c-0.698,3.527-0.141,5.152,1.385,5.2
			c2.371,0.044,5.017-3.111,5.017-8.494c0-6.728-4.036-11.556-11.231-11.556c-7.567,0-13.919,5.985-13.919,15.407
			c0,7.75,5.057,12.53,11.926,12.53c2.641,0,5.101-0.557,7.005-1.625L279.66,143.419z M277.108,123.373
			c-0.467-0.142-1.255-0.327-2.319-0.327c-4.088,0-7.382,3.851-7.382,8.353c0,2.042,1.02,3.528,3.067,3.528
			c2.688,0,5.147-3.435,5.659-6.31L277.108,123.373z"/>
	</g>
	<g>
		<rect x="313.7" y="137.021" fill="#E3E0D9" width="114.142" height="7.739"/>
	</g>
	<g>
		<rect x="249.859" y="153.383" fill="#E3E0D9" width="177.982" height="7.741"/>
	</g>
	<g>
		<rect x="249.859" y="171.657" fill="#E3E0D9" width="177.982" height="7.739"/>
	</g>
	<g>
		<rect x="249.859" y="190.454" fill="#E3E0D9" width="177.982" height="7.739"/>
	</g>
	<g>
		<rect x="249.859" y="208.732" fill="#E3E0D9" width="177.982" height="7.738"/>
	</g>
	<g>
		<rect x="249.859" y="228.74" fill="#E3E0D9" width="177.982" height="7.739"/>
	</g>
	<g>
		<rect x="249.859" y="247.018" fill="#E3E0D9" width="177.982" height="7.738"/>
	</g>
	<g>
		<rect x="249.859" y="265.575" fill="#E3E0D9" width="177.982" height="7.739"/>
	</g>
	<g>
		<path fill="#E3E0D9" d="M326.277,292.489h-78.352V232.21h78.352V292.489z M251.795,288.62h70.614V236.08h-70.614V288.62z"/>
	</g>
	<g>
		<path fill="#E3E0D9" d="M429.776,345.446h-78.353v-60.279h78.353V345.446z M355.293,341.578h70.614v-52.541h-70.614V341.578z"/>
	</g>
</g>
<path fill="#299B83" d="M285.206,388.87c0,7.739-7.673,14.02-17.128,14.02H52.182c-9.457,0-17.126-6.28-17.126-14.02V94.805
	c0-7.741,7.67-14.016,17.126-14.016h215.896c9.455,0,17.128,6.274,17.128,14.016V388.87z"/>
<g>
	<g>
		<rect x="47.927" y="91.524" fill="#FFFFFF" width="209.816" height="298.551"/>
	</g>
	<g>
		<path fill="#CCCCCC" d="M91.419,143.419c-2.551,1.344-5.152,1.856-8.26,1.856c-7.606,0-14.059-5.572-14.059-14.481
			c0-9.558,6.633-17.818,16.936-17.818c8.078,0,13.507,5.661,13.507,13.412c0,6.959-3.901,11.044-8.26,11.044
			c-1.862,0-3.575-1.253-3.434-4.085h-0.187c-1.626,2.739-3.761,4.085-6.547,4.085c-2.687,0-5.006-2.182-5.006-5.845
			c0-5.754,4.54-11.001,10.991-11.001c1.999,0,3.761,0.417,4.966,0.974l-1.572,8.4c-0.697,3.527-0.14,5.152,1.387,5.2
			c2.369,0.044,5.016-3.111,5.016-8.494c0-6.728-4.037-11.556-11.232-11.556c-7.566,0-13.918,5.985-13.918,15.407
			c0,7.75,5.056,12.53,11.925,12.53c2.642,0,5.102-0.557,7.005-1.625L91.419,143.419z M88.868,123.373
			c-0.466-0.142-1.254-0.327-2.32-0.327c-4.086,0-7.38,3.851-7.38,8.353c0,2.042,1.02,3.528,3.067,3.528
			c2.687,0,5.147-3.435,5.659-6.31L88.868,123.373z"/>
	</g>
	<g>
		<rect x="125.459" y="137.021" fill="#E3E0D9" width="114.142" height="7.739"/>
	</g>
	<g>
		<rect x="61.62" y="153.383" fill="#E3E0D9" width="177.982" height="7.741"/>
	</g>
	<g>
		<rect x="61.62" y="171.657" fill="#E3E0D9" width="177.982" height="7.739"/>
	</g>
	<g>
		<rect x="61.62" y="190.454" fill="#E3E0D9" width="177.982" height="7.739"/>
	</g>
	<g>
		<rect x="61.62" y="208.732" fill="#E3E0D9" width="177.982" height="7.738"/>
	</g>
	<g>
		<rect x="61.62" y="228.74" fill="#E3E0D9" width="177.982" height="7.739"/>
	</g>
	<g>
		<rect x="61.62" y="247.018" fill="#E3E0D9" width="177.982" height="7.738"/>
	</g>
	<g>
		<rect x="61.62" y="265.575" fill="#E3E0D9" width="177.982" height="7.739"/>
	</g>
	<g>
		<path fill="#E3E0D9" d="M138.038,349.034H59.685v-60.278h78.353V349.034z M63.554,345.165h70.615v-52.54H63.554V345.165z"/>
	</g>
	<g>
		<path fill="#E3E0D9" d="M241.537,345.446h-78.353v-60.279h78.353V345.446z M167.054,341.578h70.612v-52.541h-70.612V341.578z"/>
	</g>
</g>
<path fill="#299B83" d="M392.271,413.391c0,9.391-8.808,17.001-19.67,17.001H124.672c-10.861,0-19.669-7.61-19.669-17.001V56.725
	c0-9.387,8.808-17,19.669-17h247.929c10.862,0,19.67,7.612,19.67,17V413.391z"/>
<g>
	<rect x="122.836" y="61.803" fill="#FFFFFF" width="251.589" height="357.995"/>
</g>
<g>
	<rect x="215.806" y="111.719" fill="#E3E0D9" width="136.867" height="9.279"/>
</g>
<g>
	<rect x="139.252" y="131.34" fill="#E3E0D9" width="213.421" height="9.279"/>
</g>
<g>
	<rect x="139.252" y="153.253" fill="#E3E0D9" width="213.421" height="9.279"/>
</g>
<g>
	<rect x="139.252" y="175.792" fill="#E3E0D9" width="213.421" height="9.279"/>
</g>
<g>
	<rect x="139.252" y="197.706" fill="#E3E0D9" width="213.421" height="9.279"/>
</g>
<g>
	<rect x="139.252" y="314.256" fill="#E3E0D9" width="213.421" height="9.279"/>
</g>
<g>
	<rect x="139.252" y="336.167" fill="#E3E0D9" width="213.421" height="9.279"/>
</g>
<g>
	<path fill="#E3E0D9" d="M230.885,298.145h-93.952v-72.286h93.952V298.145z M141.571,293.504h84.673v-63.006h-84.673V293.504z"/>
</g>
<g>
	<path fill="#E3E0D9" d="M354.994,298.145h-93.952v-72.286h93.952V298.145z M265.682,293.504h84.674v-63.006h-84.674V293.504z"/>
</g>
<g>
	<g>
		<g>
			<path fill="#999999" d="M150.134,398.249c-0.044-2.873-0.026-6.597,0.082-10.588c-3,2.713-5.75,4.045-5.813,4.083l-0.507-1.075
				c0.28-0.132,3.32-1.617,6.37-4.58c0.385-11.654,1.559-24.821,4.178-25.111c1.195-0.149,2.029,1.528,2.926,5.746
				c1.948,9.147-1.934,15.687-5.95,19.776c-0.121,3.754-0.167,7.716-0.104,11.73L150.134,398.249z M154.525,362.146
				c-1.195,0.59-2.551,10.268-3.04,22.673c3.465-3.883,6.447-9.764,4.731-17.852C155.278,362.586,154.598,362.179,154.525,362.146z"
				/>
		</g>
	</g>
	<g>
		<g>
			<path fill="#999999" d="M161.462,388.834c-0.067,0-0.145-0.01-0.222-0.026c-0.729-0.169-0.942-0.998-1.191-1.968
				c-0.213-0.796-0.449-1.713-0.956-2.347c-0.2-0.249-0.331-0.235-0.39-0.227c-0.761,0.096-1.975,2.011-2.556,3.271l-1.078-0.498
				c0.286-0.62,1.804-3.742,3.489-3.946c0.394-0.05,0.952,0.027,1.463,0.661c0.667,0.829,0.947,1.916,1.174,2.791
				c0.095,0.372,0.218,0.855,0.331,1.064c0.113-0.063,0.344-0.243,0.743-0.706c0.793-0.925,1.433-1.977,1.944-2.823
				c0.789-1.301,1.233-2.007,1.935-1.853c0.662,0.14,0.811,0.983,0.915,1.83c0.182,1.563,1.541,2.501,2.81,2.736
				c1.463,0.271,2.727-0.308,3.384-1.55l1.047,0.554c-0.902,1.704-2.683,2.527-4.654,2.166c-2.029-0.382-3.547-1.895-3.769-3.771
				c-0.018-0.181-0.041-0.327-0.059-0.444c-0.187,0.271-0.403,0.635-0.594,0.946c-0.539,0.884-1.205,1.981-2.057,2.983
				C162.672,388.259,162.083,388.834,161.462,388.834z"/>
		</g>
	</g>
	<g>
		<g>
			<path fill="#999999" d="M189.766,388.834c-0.067,0-0.145-0.01-0.221-0.026c-0.729-0.169-0.943-0.998-1.192-1.968
				c-0.212-0.796-0.448-1.713-0.956-2.347c-0.203-0.249-0.335-0.235-0.395-0.227c-0.756,0.096-1.975,2.011-2.551,3.271l-1.079-0.498
				c0.286-0.62,1.804-3.742,3.489-3.946c0.386-0.05,0.956,0.027,1.464,0.661c0.666,0.829,0.947,1.916,1.168,2.791
				c0.101,0.372,0.223,0.855,0.336,1.064c0.113-0.063,0.344-0.243,0.743-0.706c0.793-0.925,1.432-1.977,1.943-2.823
				c0.789-1.301,1.232-2.007,1.935-1.853c0.662,0.14,0.812,0.983,0.916,1.83c0.181,1.563,1.54,2.501,2.809,2.736
				c1.464,0.271,2.728-0.308,3.384-1.55l1.047,0.554c-0.902,1.704-2.682,2.527-4.648,2.166c-2.034-0.382-3.553-1.895-3.774-3.771
				c-0.018-0.181-0.041-0.327-0.058-0.444c-0.187,0.271-0.403,0.635-0.598,0.946c-0.535,0.884-1.202,1.981-2.058,2.983
				C190.972,388.259,190.388,388.834,189.766,388.834z"/>
		</g>
	</g>
	<g>
		<g>
			<path fill="#999999" d="M175.625,410.555c-1.612,0-2.899-3.008-3.814-8.952l1.173-0.183c1.033,6.68,2.324,7.993,2.65,7.949
				c0.875-0.06,3.235-5.067,3.575-27.223c0.041-2.863,0.154-7.249,0.421-11.59c-2.084,0.072-4.077-1.097-4.187-1.169l0.621-1.011
				c0.019,0.014,1.835,1.118,3.647,0.988c0.43-6.275,1.215-12.165,2.642-12.936c0.309-0.164,0.644-0.149,0.942,0.036
				c1.133,0.734,1.328,4.418,1.151,7.357c-0.199,3.24-1.182,5.342-2.922,6.253c-0.231,0.118-0.467,0.214-0.703,0.285
				c-0.199,3.122-0.353,7.001-0.425,11.804c-0.164,10.492-0.988,28.133-4.681,28.39
				C175.685,410.555,175.653,410.555,175.625,410.555z M182.78,357.671c-0.349,0.607-1.273,2.963-1.872,11.381
				c0.023-0.009,0.045-0.017,0.068-0.03c1.345-0.703,2.111-2.479,2.289-5.271C183.464,360.443,183.088,358.352,182.78,357.671z"/>
		</g>
	</g>
</g>
<circle fill-rule="evenodd" clip-rule="evenodd" fill="#FFFFFF" stroke="#299B83" stroke-width="2" stroke-miterlimit="10" cx="386.642" cy="92.07" r="78.303"/>
<g>
	<path fill-rule="evenodd" clip-rule="evenodd" fill="#E3E0D9" d="M443.19,58.583c-1.026,3.051-3.595,4.866-5.686,7.064
		c-1.159,1.218-2.328,2.44-3.551,3.733c-8.078-8.262-16.014-16.388-24.042-24.603c3.255-2.651,5.764-6.898,10.258-8.903
		c1.025,0,2.053,0,3.077,0c1.59,1.224,3.322,2.309,4.772,3.693c3.978,3.814,7.91,7.702,11.747,11.665
		c1.315,1.364,2.293,3.054,3.424,4.59C443.19,56.746,443.19,57.665,443.19,58.583z"/>
	<path fill-rule="evenodd" clip-rule="evenodd" fill="#E3E0D9" d="M429.608,73.517c-17.421,17.31-35.183,34.956-53.029,52.683
		c-8.006-8.189-15.925-16.284-23.945-24.485c17.476-17.357,35.236-35.001,53.029-52.688
		C413.67,57.214,421.611,65.338,429.608,73.517z"/>
	<path fill-rule="evenodd" clip-rule="evenodd" fill="#E3E0D9" d="M372.461,129.798c-10.738,3.048-21.871,6.204-33.298,9.448
		c3.258-11.323,6.439-22.406,9.665-33.61C356.774,113.764,364.618,121.785,372.461,129.798z"/>
</g>
<g>
	<path fill="#E3E0D9" d="M184.271,111.043c-1.681-2.812-2.926-5.247-4.571-6.9c-1.654-1.659-3.204-1.12-4.01-0.336
		c-0.335,0.326-0.599,0.456-0.798,0.485c-0.272,0.061-0.475,0.046-0.747,0.016c-0.204-0.022-0.489-0.129-0.87-0.5
		c-0.793-0.784-2.365-1.323-4.015,0.336c-1.64,1.653-2.886,4.088-4.576,6.9c-1.681,2.823-3.765,5.757-3.212,8.031
		c0.567,2.284,2.098,3.319,4.454,2.94c2.375-0.37,3.584-0.868,4.544-0.204c0.961,0.66,2.035,0.938,4.014,0.945
		c2.271-0.022,3.041-0.285,4.01-0.945c0.974-0.664,2.17-0.166,4.535,0.204c2.366,0.379,3.897-0.657,4.454-2.94
		C188.05,116.801,185.965,113.866,184.271,111.043z"/>
	<path fill="#E3E0D9" d="M155.173,104.988c0,0-0.607-2.533-0.09-5.056c0.516-2.535,1.844-3.745,3.443-4.205
		c1.586-0.485,5.007,0.506,5.827,5.308c0.825,4.816-0.599,7.266-2.012,8.203c-1.413,0.952-3.089,0.899-3.991,0.644
		C157.443,109.624,155.816,108.33,155.173,104.988z"/>
	<path fill="#E3E0D9" d="M162.858,92.24c0,0,0.213-4.166,1.961-6.058c1.771-1.88,3.738-1.669,4.903-1.239
		c1.155,0.433,3.217,2.141,3.09,5.799c-0.126,3.639-0.476,6.482-3.135,7.546c-2.665,1.075-5.324-0.028-6.226-1.585
		C162.554,95.159,162.858,92.24,162.858,92.24z"/>
	<path fill="#E3E0D9" d="M174.18,92.633c0,0-0.548-3.485,0.992-5.548c1.545-2.057,4.204-2.481,6.524-1.197
		c2.315,1.294,3.729,5.143,2.918,8.326c-0.815,3.183-2.288,4.425-4.377,4.719c-2.067,0.302-4.078-0.856-5.066-2.617
		C174.18,94.554,174.18,92.633,174.18,92.633z"/>
	<path fill="#E3E0D9" d="M183.718,105.244c0,0-0.435-3.514,0.979-6.176c1.418-2.668,3.226-3.091,4.426-3.008
		c1.197,0.091,4.083,1.035,4.554,5.752c0.467,4.719-2.279,7.766-4.685,7.856C186.59,109.752,184.185,108.937,183.718,105.244z"/>
</g>
</svg>
