<?xml version="1.0" encoding="utf-8"?>
<!-- Generator: Adobe Illustrator 16.0.0, SVG Export Plug-In . SVG Version: 6.00 Build 0)  -->
<!DOCTYPE svg PUBLIC "-//W3C//DTD SVG 1.1//EN" "http://www.w3.org/Graphics/SVG/1.1/DTD/svg11.dtd">
<svg version="1.1" id="Layer_1" xmlns="http://www.w3.org/2000/svg" xmlns:xlink="http://www.w3.org/1999/xlink" x="0px" y="0px"
	 width="200px" height="200px" viewBox="0 0 200 200" enable-background="new 0 0 200 200" xml:space="preserve">
<path fill="#434343" d="M193.75,181.25c0,6.627-5.373,12-12,12H18.25c-6.627,0-12-5.373-12-12V17.75c0-6.627,5.373-12,12-12h163.5
	c6.627,0,12,5.373,12,12V181.25z"/>
<g>
	<path fill-rule="evenodd" clip-rule="evenodd" fill="#FFFFFF" d="M176.821,19.996c0,8.846,0,17.602,0,26.628
		c-0.689,0-1.337-0.002-1.984,0c-5.033,0.018-10.064,0-15.096,0.077c-1.273,0.019-2.566,0.245-3.811,0.54
		c-2.82,0.667-4.947,2.37-5.121,5.314c-0.396,6.652-0.455,13.324-0.655,20.19c8.361,0,16.369,0,24.667,0
		c-0.337,3.241-0.646,6.266-0.967,9.289c-0.545,5.124-1.168,10.24-1.609,15.371c-0.152,1.776-0.739,2.345-2.571,2.302
		c-5.703-0.13-11.413-0.047-17.119-0.045c-0.66,0-1.319,0-2.188,0c0,26.682,0,53.151,0,79.73c-12.081,0-23.951,0-36.047,0
		c0-26.537,0-53.008,0-79.732c-3.451,0-6.685,0-9.919,0c-4.067,0-4.066,0-4.066-4.039c0.001-6.874,0-13.747-0.001-20.62
		c0-0.663,0-1.326,0-2.172c4.671,0,9.179,0,13.968,0c0-0.886-0.011-1.592,0.002-2.298c0.132-7.297,0.015-14.609,0.475-21.886
		c0.41-6.491,2.25-12.653,6.4-17.902c4.376-5.533,10.293-8.464,17.042-9.674c4.021-0.722,8.152-1.054,12.243-1.138
		c8.281-0.171,16.567-0.056,24.852-0.051C175.792,19.878,176.269,19.951,176.821,19.996z"/>
</g>
</svg>
