<?xml version="1.0" encoding="utf-8"?>
<!-- Generator: Adobe Illustrator 16.0.0, SVG Export Plug-In . SVG Version: 6.00 Build 0)  -->
<!DOCTYPE svg PUBLIC "-//W3C//DTD SVG 1.1//EN" "http://www.w3.org/Graphics/SVG/1.1/DTD/svg11.dtd">
<svg version="1.1" id="Layer_1" xmlns="http://www.w3.org/2000/svg" xmlns:xlink="http://www.w3.org/1999/xlink" x="0px" y="0px"
	 width="500px" height="500px" viewBox="0 0 500 500" enable-background="new 0 0 500 500" xml:space="preserve">
<g>
	<path fill="#299B83" d="M450.001,256.916c0,111.964-90.753,202.713-202.703,202.713c-111.955,0-202.708-90.749-202.708-202.713
		c0-111.946,90.753-202.708,202.708-202.708C359.248,54.208,450.001,144.97,450.001,256.916z"/>
	<g>
		<rect x="201.384" y="386.791" fill="#E6E6E6" width="90.114" height="46.18"/>
		<path fill="#E6E6E6" d="M156.04,435.238c0,3.768,3.053,6.825,6.815,6.825h168.87c3.763,0,6.811-3.058,6.811-6.825
			c0-3.757-3.048-6.814-6.811-6.814h-168.87C159.093,428.424,156.04,431.481,156.04,435.238
			C156.04,435.238,156.04,431.481,156.04,435.238z"/>
		<path fill="#595558" d="M33.597,381.269c0,7.226,5.858,13.079,13.089,13.079h405.458c7.217,0,13.089-5.854,13.089-13.079V123.47
			c0-7.226-5.872-13.084-13.089-13.084H46.686c-7.23,0-13.089,5.858-13.089,13.084V381.269z"/>
		<path fill="#FFFFFF" d="M46.91,370.607c0,7.23,5.863,13.079,13.084,13.079H439.33c7.222,0,13.079-5.849,13.079-13.079V137.04
			c0-7.221-5.857-13.075-13.079-13.075H59.994c-7.221,0-13.084,5.854-13.084,13.075V370.607z"/>
		<polygon fill="#B3B3B3" points="203.093,394.348 252.876,428.424 291.498,428.424 291.498,394.348 		"/>
	</g>
	<rect x="122.268" y="40.069" fill="#EDEEEF" width="254.779" height="323.975"/>
	<rect x="243.381" y="40.069" fill="#E3E0D9" width="133.666" height="323.975"/>
	<rect x="139.203" y="148.443" fill="#B6AE9A" width="220.455" height="6.614"/>
	<rect x="139.203" y="161.756" opacity="0.2" fill="#666666" width="220.455" height="84.555"/>
	<rect x="139.203" y="130.07" fill="#B6AE9A" width="144.821" height="6.614"/>
	<rect x="139.203" y="59.384" fill="#B6AE9A" width="144.821" height="6.615"/>
	<rect x="339.848" y="59.384" fill="#B6AE9A" width="23.358" height="6.615"/>
	<rect x="291.498" y="339.206" fill="#B6AE9A" width="71.708" height="6.614"/>
	<rect x="139.203" y="267.339" fill="#B6AE9A" width="220.455" height="3.184"/>
	<rect x="139.203" y="272.119" fill="#B6AE9A" width="220.455" height="3.184"/>
	<rect x="139.203" y="276.899" fill="#B6AE9A" width="220.455" height="3.184"/>
	<rect x="139.203" y="281.679" fill="#B6AE9A" width="220.455" height="3.184"/>
	<rect x="139.203" y="286.459" fill="#B6AE9A" width="220.455" height="3.184"/>
	<rect x="139.203" y="296.019" fill="#B6AE9A" width="220.455" height="3.184"/>
	<rect x="139.203" y="300.799" fill="#B6AE9A" width="220.455" height="3.184"/>
	<rect x="139.203" y="305.578" fill="#B6AE9A" width="220.455" height="3.184"/>
	<rect x="139.203" y="310.358" fill="#B6AE9A" width="220.455" height="3.184"/>
	<rect x="139.203" y="315.139" fill="#B6AE9A" width="220.455" height="3.184"/>
</g>
</svg>
