<?xml version="1.0" encoding="utf-8"?>
<!-- Generator: Adobe Illustrator 16.0.0, SVG Export Plug-In . SVG Version: 6.00 Build 0)  -->
<!DOCTYPE svg PUBLIC "-//W3C//DTD SVG 1.1//EN" "http://www.w3.org/Graphics/SVG/1.1/DTD/svg11.dtd">
<svg version="1.1" id="Layer_1" xmlns="http://www.w3.org/2000/svg" xmlns:xlink="http://www.w3.org/1999/xlink" x="0px" y="0px"
	 width="500px" height="500px" viewBox="0 0 500 500" enable-background="new 0 0 500 500" xml:space="preserve">
<g>
	<polygon fill="#553082" points="359.145,406.04 359.145,272.613 243.597,339.351 	"/>
	<polygon fill="#442A68" points="128.007,272.613 128.007,406.04 243.597,339.351 	"/>
	<polygon fill="#67488F" points="243.597,205.878 128.007,272.613 243.597,339.351 	"/>
	<polygon fill="#442A68" points="243.597,472.776 359.145,406.04 243.597,339.351 	"/>
	<polygon fill="#371F55" points="128.007,406.04 243.597,472.776 243.597,339.351 	"/>
	<polygon fill="#745B99" points="243.597,339.351 359.145,272.613 243.597,205.878 	"/>
	<polygon fill="#67488F" points="121.836,244.925 121.836,189.118 73.494,217.044 	"/>
	<polygon fill="#553082" points="25.19,189.118 25.19,244.925 73.494,217.044 	"/>
	<polygon fill="#67488F" points="73.494,161.246 25.19,189.118 73.494,217.044 	"/>
	<polygon fill="#553082" points="73.494,272.844 121.836,244.925 73.494,217.044 	"/>
	<polygon fill="#442A68" points="25.19,244.925 73.494,272.844 73.494,217.044 	"/>
	<polygon fill="#745B99" points="73.494,217.044 121.836,189.118 73.494,161.246 	"/>
	<polygon fill="#745B99" points="245.508,143.668 245.508,66.042 178.265,104.851 	"/>
	<polygon fill="#67488F" points="111.021,66.042 111.021,143.668 178.265,104.851 	"/>
	<polygon fill="#745B99" points="178.265,27.224 111.021,66.042 178.265,104.851 	"/>
	<polygon fill="#67488F" points="178.265,182.486 245.508,143.668 178.265,104.851 	"/>
	<polygon fill="#553082" points="111.021,143.668 178.265,182.486 178.265,104.851 	"/>
	<polygon fill="#A192BD" points="178.265,104.851 245.508,66.042 178.265,27.224 	"/>
	<polygon fill="#745B99" points="398.663,152.804 398.663,79.901 335.48,116.337 	"/>
	<polygon fill="#67488F" points="272.297,79.901 272.297,152.804 335.48,116.337 	"/>
	<polygon fill="#745B99" points="335.48,43.427 272.297,79.901 335.48,116.337 	"/>
	<polygon fill="#67488F" points="335.48,189.278 398.663,152.804 335.48,116.337 	"/>
	<polygon fill="#553082" points="272.297,152.804 335.48,189.278 335.48,116.337 	"/>
	<polygon fill="#A192BD" points="335.48,116.337 398.663,79.901 335.48,43.427 	"/>
	<polygon fill="#67488F" points="474.81,267.34 474.81,206.504 422.133,236.918 	"/>
	<polygon fill="#553082" points="369.418,206.504 369.418,267.34 422.133,236.918 	"/>
	<polygon fill="#67488F" points="422.133,176.083 369.418,206.504 422.133,236.918 	"/>
	<polygon fill="#553082" points="422.133,297.755 474.81,267.34 422.133,236.918 	"/>
	<polygon fill="#442A68" points="369.418,267.34 422.133,297.755 422.133,236.918 	"/>
	<polygon fill="#745B99" points="422.133,236.918 474.81,206.504 422.133,176.083 	"/>
</g>
</svg>
