<?xml version="1.0" encoding="utf-8"?>
<!-- Generator: Adobe Illustrator 16.0.0, SVG Export Plug-In . SVG Version: 6.00 Build 0)  -->
<!DOCTYPE svg PUBLIC "-//W3C//DTD SVG 1.1//EN" "http://www.w3.org/Graphics/SVG/1.1/DTD/svg11.dtd">
<svg version="1.1" id="Layer_1" xmlns="http://www.w3.org/2000/svg" xmlns:xlink="http://www.w3.org/1999/xlink" x="0px" y="0px"
	 width="200px" height="200px" viewBox="0 0 200 200" enable-background="new 0 0 200 200" xml:space="preserve">
<g>
	<path fill="#FFFFFF" d="M100,6.25c-30.261,0-58.543,14.363-76.445,38.605L7.5,28.8v41.45h41.45L33.921,55.221
		C49.01,33.597,73.618,20.717,100,20.717c44.406,0,80.533,36.127,80.533,80.533c0,44.406-36.127,80.533-80.533,80.533
		c-44.406,0-80.533-36.127-80.533-80.533c0-0.232,0.004-0.465,0.008-0.696l0.006-0.416L5.016,99.951l-0.006,0.361
		C5.005,100.624,5,100.937,5,101.25c0,52.384,42.617,95,95,95c52.384,0,95-42.616,95-95C195,48.867,152.384,6.25,100,6.25z"/>
	<path fill="#FFFFFF" d="M92.625,36.75c-3.106,0-5.625,2.519-5.625,5.625v49.302c-1.989,1.763-3.25,4.331-3.25,7.198
		c0,5.315,4.309,9.625,9.625,9.625c0.267,0,0.528-0.019,0.79-0.04l33.551,33.552c2.196,2.196,5.758,2.196,7.955,0
		c2.196-2.197,2.196-5.759,0-7.955l-32.943-32.943c0.172-0.719,0.272-1.466,0.272-2.238c0-3.535-1.911-6.615-4.75-8.289V42.375
		C98.25,39.269,95.731,36.75,92.625,36.75z"/>
</g>
</svg>
