<?xml version="1.0" encoding="utf-8"?>
<!-- Generator: Adobe Illustrator 16.0.0, SVG Export Plug-In . SVG Version: 6.00 Build 0)  -->
<!DOCTYPE svg PUBLIC "-//W3C//DTD SVG 1.1//EN" "http://www.w3.org/Graphics/SVG/1.1/DTD/svg11.dtd">
<svg version="1.1" id="Layer_1" xmlns="http://www.w3.org/2000/svg" xmlns:xlink="http://www.w3.org/1999/xlink" x="0px" y="0px"
	 width="200px" height="200px" viewBox="0 0 200 200" enable-background="new 0 0 200 200" xml:space="preserve">
<path fill="#434343" d="M182.25,5.75H18.75c-6.627,0-12,5.373-12,12v163.5c0,6.627,5.373,12,12,12h163.5c6.627,0,12-5.373,12-12
	V17.75C194.25,11.123,188.877,5.75,182.25,5.75z M100.643,56.823c23.617,0,42.942,19.324,42.942,42.943
	c0,23.619-19.325,42.944-42.942,42.944c-23.619,0-42.943-19.325-42.943-42.944C57.699,76.147,77.023,56.823,100.643,56.823z
	 M186.527,180.284c0,3.222-2.146,5.368-5.365,5.368H20.124c-3.221,0-5.368-2.146-5.368-5.368V89.031h22.544
	c-1.072,3.221-1.072,7.515-1.072,10.735c0,35.429,28.987,64.415,64.416,64.415c35.427,0,64.413-28.985,64.413-64.415
	c0-3.221,0-7.515-1.071-10.735h22.543V180.284z M186.527,40.719c0,3.221-2.146,5.368-5.365,5.368h-21.474
	c-3.22,0-5.368-2.147-5.368-5.368V19.248c0-3.221,2.148-5.368,5.368-5.368h21.474c3.22,0,5.365,2.147,5.365,5.368V40.719z"/>
</svg>
