<?xml version="1.0" encoding="utf-8"?>
<!-- Generator: Adobe Illustrator 16.0.0, SVG Export Plug-In . SVG Version: 6.00 Build 0)  -->
<!DOCTYPE svg PUBLIC "-//W3C//DTD SVG 1.1//EN" "http://www.w3.org/Graphics/SVG/1.1/DTD/svg11.dtd">
<svg version="1.1" id="Layer_1" xmlns="http://www.w3.org/2000/svg" xmlns:xlink="http://www.w3.org/1999/xlink" x="0px" y="0px"
	 width="500px" height="500px" viewBox="0 0 500 500" enable-background="new 0 0 500 500" xml:space="preserve">
<polygon fill="#553082" points="369.558,421.122 369.558,274.713 242.766,347.919 "/>
<polygon fill="#442A68" points="115.974,274.713 115.974,421.122 242.766,347.919 "/>
<polygon fill="#67488F" points="242.766,201.51 115.974,274.713 242.766,347.919 "/>
<polygon fill="#442A68" points="242.766,494.324 369.558,421.122 242.766,347.919 "/>
<polygon fill="#371F55" points="115.974,421.122 242.766,494.324 242.766,347.919 "/>
<polygon fill="#745B99" points="242.766,347.919 369.558,274.713 242.766,201.512 "/>
<polygon fill="#67488F" points="109.206,244.372 109.206,183.16 56.195,213.766 "/>
<polygon fill="#553082" points="3.188,183.16 3.188,244.372 56.197,213.766 "/>
<polygon fill="#67488F" points="56.197,152.557 3.188,183.16 56.197,213.766 "/>
<polygon fill="#553082" points="56.197,274.975 109.207,244.372 56.197,213.764 "/>
<polygon fill="#442A68" points="3.188,244.372 56.197,274.975 56.197,213.766 "/>
<polygon fill="#745B99" points="56.197,213.766 109.207,183.16 56.197,152.557 "/>
<polygon fill="#745B99" points="244.875,133.288 244.875,48.122 171.12,90.707 "/>
<polygon fill="#67488F" points="97.364,48.122 97.364,133.288 171.12,90.707 "/>
<polygon fill="#745B99" points="171.12,5.541 97.364,48.122 171.12,90.707 "/>
<polygon fill="#67488F" points="171.12,175.871 244.875,133.288 171.12,90.705 "/>
<polygon fill="#553082" points="97.364,133.288 171.12,175.873 171.12,90.707 "/>
<polygon fill="#A192BD" points="171.12,90.707 244.875,48.122 171.12,5.541 "/>
<polygon fill="#745B99" points="412.881,143.323 412.881,63.303 343.581,103.315 "/>
<polygon fill="#67488F" points="274.284,63.303 274.284,143.323 343.581,103.315 "/>
<polygon fill="#745B99" points="343.581,23.295 274.284,63.305 343.581,103.315 "/>
<polygon fill="#67488F" points="343.581,183.334 412.881,143.323 343.581,103.315 "/>
<polygon fill="#553082" points="274.284,143.323 343.581,183.334 343.581,103.315 "/>
<polygon fill="#A192BD" points="343.581,103.315 412.881,63.303 343.581,23.295 "/>
<polygon fill="#67488F" points="496.423,268.951 496.423,202.209 438.621,235.579 "/>
<polygon fill="#553082" points="380.821,202.209 380.821,268.951 438.621,235.581 "/>
<polygon fill="#67488F" points="438.621,168.838 380.821,202.209 438.621,235.581 "/>
<polygon fill="#553082" points="438.621,302.322 496.425,268.951 438.621,235.579 "/>
<polygon fill="#442A68" points="380.821,268.951 438.621,302.322 438.621,235.579 "/>
<polygon fill="#745B99" points="438.621,235.581 496.425,202.209 438.621,168.838 "/>
</svg>
