<?xml version="1.0" encoding="utf-8"?>
<!-- Generator: Adobe Illustrator 16.0.0, SVG Export Plug-In . SVG Version: 6.00 Build 0)  -->
<!DOCTYPE svg PUBLIC "-//W3C//DTD SVG 1.1//EN" "http://www.w3.org/Graphics/SVG/1.1/DTD/svg11.dtd">
<svg version="1.1" id="Layer_1" xmlns="http://www.w3.org/2000/svg" xmlns:xlink="http://www.w3.org/1999/xlink" x="0px" y="0px"
	 width="500px" height="500px" viewBox="0 0 500 500" enable-background="new 0 0 500 500" xml:space="preserve">
<g>
	<path fill="#E0D1E4" d="M449.912,265.359c0,107.748-87.335,195.078-195.069,195.078c-107.737,0-195.072-87.33-195.072-195.078
		c0-107.73,87.335-195.074,195.072-195.074C362.577,70.286,449.912,157.629,449.912,265.359z"/>
	<g>
		<path fill="#C59E82" d="M176.083,340.031c0,0,24.788,5.556,18.108-39.283c-17.824-5.288-23.116,8.494-23.116,8.494
			L176.083,340.031z"/>
		<path fill="#484849" d="M172.458,268.314c0,0,25.165,9.597,25.165,33.826c-3.346,7.244-15.879,2.507-15.879,2.507L172.458,268.314
			z"/>
		<path fill="#C59E82" d="M67.623,340.031c0,0-24.788,5.556-18.104-39.283c17.825-5.288,23.112,8.494,23.112,8.494L67.623,340.031z"
			/>
		<path fill="#484849" d="M182.813,330.554c0,16.606-18.877,30.076-42.159,30.076h-36.647c-23.282,0-42.153-13.47-42.153-30.076
			v-42.612c0-16.616,18.871-30.085,42.153-30.085h36.647c23.282,0,42.159,13.469,42.159,30.085V330.554z"/>
		<path fill="#E6E6E6" d="M151.773,264.611c0,10.353-13.226,18.734-29.55,18.734c-16.315,0-29.536-8.382-29.536-18.734
			c0-10.339,13.221-18.735,29.536-18.735C138.548,245.876,151.773,254.272,151.773,264.611z"/>
		<path fill="#C59E82" d="M148.552,258.002c0,11.063-8.988,20.041-20.053,20.041h-12.326c-11.077,0-20.048-8.978-20.048-20.041
			v-13.373c0-11.079,8.971-20.054,20.048-20.054h12.326c11.065,0,20.053,8.975,20.053,20.054V258.002z"/>
		<path fill="#EBBFA2" d="M205.202,149.656c0-8.311-7.597-15.044-16.975-15.044c-1.86,0-3.63,0.27-5.296,0.754v-18.026
			c0-11.074-8.976-20.054-20.053-20.054H77.918c-11.064,0-20.048,8.98-20.048,20.054v17.748c-1.339-0.301-2.74-0.476-4.177-0.476
			c-9.389,0-16.989,6.733-16.989,15.044c0,7.641,6.437,13.938,14.779,14.896c-0.368,3.198-0.579,6.441-0.579,9.743
			c0,42.54,31.116,77.021,69.496,77.021c38.381,0,69.489-34.481,69.489-77.021c0-3.271-0.203-6.482-0.562-9.649
			C198.194,164.134,205.202,157.625,205.202,149.656z"/>
		<path fill="#201412" d="M198.526,68.745c0,0,11.701-0.279,12.807-3.343c1.955,4.73-4.447,17.686-4.447,17.686
			s8.629-0.984,11.418-3.212c0,6.689-3.773,14.217-4.676,15.044c-0.894,0.836,4.676,0,4.676,0s-8.916,18.665-14.765,21.446
			c4.456-0.562,8.077-2.507,8.077-2.507s-7.515,10.867-15.601,18.943c-8.072,8.072-8.907,5.291-11.975,11.971
			c-1.663-7.789-5.004-10.03-5.288-21.441c-0.278-11.418-5.785-23.466-29.175-26.251C126.186,94.3,198.526,68.745,198.526,68.745z"
			/>
		<path fill="#412E1C" d="M57.592,160.658c0,0-13.92-19.223-11.14-43.452c2.785-24.23,4.172-36.485,3.068-39.274
			c-1.119-2.781,3.895,4.457,3.895,8.634c0,4.187,17.834-45.954,63.788-45.954c-5.854,1.666-8.634,3.342-8.634,3.342
			s35.366-3.625,62.104-3.342c26.746,0.278,42.617,0.278,42.886-6.689c0.84,11.985-6.123,65.18-49.279,65.18
			c2.772,1.944,10.018,3.899,10.018,3.899s-33.982,9.474-64.897-1.393c-30.919-10.857-45.68,21.445-40.671,34.54
			c-3.333-1.684-4.73-8.912-4.73-8.912s-6.406,19.491-0.835,26.728c-4.456-1.114-6.132-5.565-6.132-5.565L57.592,160.658z"/>
		<path fill="#444645" d="M96.439,188.809h47.311c0,0,4.893,26.428-23.655,26.428C91.548,215.236,96.439,188.809,96.439,188.809z"/>
		<rect x="95.55" y="188.809" fill="#FFFFFF" width="49.044" height="8.594"/>
		<path fill="#D56C60" d="M104.96,212.006c3.451,1.972,8.082,3.23,14.307,3.23c6.563,0,11.334-1.402,14.829-3.553
			c-0.508-4.331-6.81-7.759-14.554-7.759C111.627,203.925,105.189,207.537,104.96,212.006z"/>
		<path fill="#262424" d="M102.216,157.293c0,5.031-4.105,9.119-9.186,9.119c-5.076,0-9.191-4.088-9.191-9.119
			c0-5.041,4.115-9.128,9.191-9.128C98.11,148.165,102.216,152.252,102.216,157.293z"/>
		<path fill="#FFFFFF" d="M102.369,152.828c0,1.882-1.527,3.414-3.418,3.414c-1.877,0-3.4-1.532-3.4-3.414
			c0-1.873,1.523-3.405,3.4-3.405C100.842,149.423,102.369,150.955,102.369,152.828z"/>
		<path fill="#262424" d="M157.932,157.293c0,5.031-4.12,9.119-9.191,9.119c-5.081,0-9.196-4.088-9.196-9.119
			c0-5.041,4.115-9.128,9.196-9.128C153.812,148.165,157.932,152.252,157.932,157.293z"/>
		<path fill="#FFFFFF" d="M158.071,152.828c0,1.882-1.528,3.414-3.414,3.414c-1.888,0-3.415-1.532-3.415-3.414
			c0-1.873,1.527-3.405,3.415-3.405C156.543,149.423,158.071,150.955,158.071,152.828z"/>
		<path fill="#B29B7E" d="M128.189,174.026c0,1.083-3.153,1.949-7.03,1.949c-3.881,0-7.025-0.867-7.025-1.949
			c0-1.079,3.145-1.958,7.025-1.958C125.036,172.067,128.189,172.947,128.189,174.026z"/>
		<path fill="#484849" d="M71.252,268.314c0,0-25.165,9.597-25.165,33.826c3.338,7.244,15.875,2.507,15.875,2.507L71.252,268.314z"
			/>
	</g>
	<g>
		<path fill="#302F2F" d="M279.828,255.757c0,0-34.665-183.935,43.336-208.65c49.759-14.762,64.514,4.496,64.514,4.496
			s55.537-1.177,49.445,104.864c-6.108,106.035-1.294,103.465-1.294,103.465L279.828,255.757z"/>
		<path fill="#EEC131" d="M458.522,274.482c-8.558-20.968-75.753-60.774-75.753-60.774l-22.256,5.561l-22.262-5.561
			c0,0-67.2,39.806-75.754,60.774c-8.563,20.973,0,31.675,0,31.675s22.68,38.947,98.016,38.522
			c75.319,0.425,98.009-38.522,98.009-38.522S467.076,295.455,458.522,274.482z"/>
		<path fill="#EEC131" d="M310.536,83.789c0,0,0.931-1.208,2.856-3.037c1.928-1.82,4.825-4.326,8.706-6.765
			c1.918-1.262,4.082-2.516,6.46-3.671c2.386-1.141,4.941-2.309,7.708-3.22c2.75-0.949,5.67-1.752,8.696-2.296
			c3.024-0.624,6.168-0.858,9.313-1.011c3.14-0.041,6.303,0.085,9.366,0.557c1.541,0.238,3.063,0.454,4.531,0.854
			c1.475,0.327,2.934,0.691,4.319,1.195c1.404,0.444,2.774,0.885,4.059,1.487c1.299,0.544,2.563,1.091,3.743,1.733
			c2.416,1.137,4.515,2.565,6.436,3.81c1.856,1.388,3.582,2.591,4.929,3.889c1.371,1.254,2.579,2.318,3.454,3.329
			c1.798,1.967,2.731,3.145,2.731,3.145s-1.383-0.669-3.662-1.918c-1.104-0.669-2.599-1.258-4.167-2.102
			c-1.563-0.854-3.481-1.519-5.412-2.466c-2.041-0.751-4.187-1.635-6.52-2.372c-1.14-0.413-2.353-0.728-3.585-1.043
			c-1.229-0.333-2.484-0.655-3.781-0.898c-2.563-0.584-5.237-0.943-7.964-1.222c-2.728-0.26-5.5-0.35-8.28-0.273
			c-2.784,0.093-5.574,0.269-8.306,0.683c-2.744,0.351-5.422,0.867-8.014,1.469c-5.197,1.163-9.977,2.749-14.068,4.267
			c-4.079,1.537-7.463,3.015-9.834,4.102C311.893,83.101,310.536,83.789,310.536,83.789z"/>
		<polygon fill="#D5A071" points="334.828,207.073 334.828,229.332 360.514,325.643 386.191,229.763 386.191,200.228 		"/>
		<path fill="#E5B683" d="M413.257,134.316c0,0-7.7-5.351-13.701-16.693c0.216,3.845,2.363,8.773,2.363,8.773
			s-12.206-13.912-11.343-31.04c-2.629,5.952-10.066,11.37-18.084,15.772c-5.096-2.561-10.324-3.994-15.306-3.994
			c-12.735,0-27.596,9.267-37.203,23.453c-9.573,3.172-17.609,5.176-19.501,3.944c-4.919-3.216-19.904-2.574-12.412,19.033
			c5.764,16.648,17.349,17.057,22.39,16.36c3.876,26.908,27.688,47.639,46.727,47.639c19.01,0,41.865-20.65,45.667-47.477
			c11.952-0.274,21.05-4.174,24.315-22.933C430.596,127.465,413.257,134.316,413.257,134.316z"/>
		<path fill="#302F2F" d="M302.182,134.899c0,0,36.174-5.292,47.732-13c-2.781,3.427-8.135,6.496-8.135,6.496
			s46.223-18.472,49.43-34.104c3.213-15.615-66.541-9.191-66.541-9.191L302.182,134.899z"/>
		<path fill="#262424" d="M340.166,145.6c0,3.773-3.078,6.833-6.892,6.833c-3.795,0-6.876-3.06-6.876-6.833
			c0-3.769,3.081-6.824,6.876-6.824C337.088,138.776,340.166,141.831,340.166,145.6z"/>
		<path fill="#FFFFFF" d="M340.273,142.271c0,1.406-1.15,2.548-2.565,2.548c-1.406,0-2.542-1.142-2.542-2.548
			c0-1.415,1.136-2.565,2.542-2.565C339.123,139.706,340.273,140.856,340.273,142.271z"/>
		<path fill="#262424" d="M381.879,145.6c0,3.773-3.072,6.833-6.877,6.833s-6.887-3.06-6.887-6.833c0-3.769,3.082-6.824,6.887-6.824
			S381.879,141.831,381.879,145.6z"/>
		<path fill="#FFFFFF" d="M381.981,142.271c0,1.406-1.136,2.548-2.551,2.548c-1.404,0-2.557-1.142-2.557-2.548
			c0-1.415,1.152-2.565,2.557-2.565C380.846,139.706,381.981,140.856,381.981,142.271z"/>
		<path fill="#262424" d="M340.444,182.798c0,0,1.806,1.474,4.771,2.942c0.733,0.4,1.576,0.701,2.426,1.078
			c0.891,0.288,1.802,0.643,2.798,0.854c0.477,0.122,0.98,0.234,1.479,0.351c0.512,0.063,1.032,0.122,1.556,0.189
			c1.036,0.211,2.11,0.081,3.166,0.125c1.056-0.067,2.13-0.157,3.165-0.311c1.031-0.282,2.072-0.395,3.042-0.695
			c0.954-0.355,1.905-0.647,2.809-0.93c0.877-0.382,1.697-0.759,2.456-1.087c1.578-0.597,2.73-1.414,3.648-1.823
			c0.907-0.427,1.425-0.692,1.425-0.692s-0.41,0.405-1.128,1.114c-0.759,0.643-1.718,1.784-3.222,2.682
			c-0.719,0.481-1.505,1.038-2.366,1.536c-0.912,0.44-1.874,0.903-2.898,1.338c-1.028,0.396-2.156,0.688-3.294,0.998
			c-1.151,0.197-2.357,0.35-3.548,0.449c-1.207-0.09-2.416,0.004-3.579-0.252c-1.187-0.135-2.3-0.462-3.369-0.831
			c-1.074-0.31-2.026-0.844-2.938-1.285c-0.89-0.512-1.718-0.997-2.396-1.559c-1.432-1.042-2.42-2.125-3.076-2.897
			C340.729,183.311,340.444,182.798,340.444,182.798z"/>
	</g>
	<g>
		<path fill-rule="evenodd" clip-rule="evenodd" fill="#FFFFFF" stroke="#000000" stroke-miterlimit="10" d="M292.827,323.036
			c0.846-0.489,1.672-1.002,2.529-1.473c6.729-3.689,15.019-2.111,19.954,3.772c4.748,5.661,4.803,14.289,0.091,20.129
			c-2.642,3.279-5.359,6.51-7.663,9.299c3.019-1.038,6.343-2.617,9.842-3.307c6.136-1.208,11.176,0.948,14.631,6.305
			c3.328,5.151,3.369,12.204-0.154,17.015c-2.56,3.482-5.475,6.702-8.055,10.279c0.752-0.499,1.502-1.025,2.27-1.498
			c6.43-3.927,15.111-2.842,19.761,2.441c5.49,6.253,5.975,15.042,0.827,21.079c-13.265,15.566-26.634,31.04-39.988,46.534
			c-5.502,6.388-10.8,12.982-16.64,19.032c-8.337,8.639-21.776,9.269-31.193,1.669c-11.427-9.23-22.675-18.684-34.013-28.026
			c-13.198-10.894-26.36-21.836-39.643-32.628c-3.513-2.851-4.438-5.973-3.325-10.322c9.483-37.154,18.84-74.343,28.237-111.506
			c1.37-5.422,8.337-9.269,14.339-7.93c9.25,2.058,15.005,10.336,13.472,19.803c-0.781,4.843-2.174,9.591-3.13,14.408
			c-0.647,3.27-1.119,6.576-1.478,9.883c-0.333,3.095,0.646,4.79,2.934,5.724c2.47,1.007,4.434,0.472,6.388-1.882
			c12.69-15.287,25.362-30.596,38.034-45.888c10.129-12.213,20.223-24.449,30.401-36.614c1.59-1.896,3.383-3.763,5.432-5.115
			c6.627-4.376,15.146-2.997,20.604,3.08c5.032,5.606,5.158,14.196,0.087,20.449c-12.974,16.021-26.037,31.988-39.064,47.968
			c-1.9,2.32-3.817,4.631-5.728,6.941C292.662,322.785,292.748,322.913,292.827,323.036z"/>
	</g>
</g>
</svg>
