<?xml version="1.0" encoding="utf-8"?>
<!-- Generator: Adobe Illustrator 16.0.0, SVG Export Plug-In . SVG Version: 6.00 Build 0)  -->
<!DOCTYPE svg PUBLIC "-//W3C//DTD SVG 1.1//EN" "http://www.w3.org/Graphics/SVG/1.1/DTD/svg11.dtd">
<svg version="1.1" id="Layer_1" xmlns="http://www.w3.org/2000/svg" xmlns:xlink="http://www.w3.org/1999/xlink" x="0px" y="0px"
	 width="500px" height="500px" viewBox="0 0 500 500" enable-background="new 0 0 500 500" xml:space="preserve">
<path fill="#299B83" d="M452.751,269.158c0,116.282-94.251,210.524-210.517,210.524c-116.27,0-210.521-94.242-210.521-210.524
	c0-116.26,94.251-210.521,210.521-210.521C358.5,58.637,452.751,152.898,452.751,269.158z"/>
<g>
	<rect x="194.552" y="400.721" fill="#E6E6E6" width="93.587" height="47.96"/>
	<path fill="#E6E6E6" d="M147.46,451.036c0,3.912,3.17,7.088,7.078,7.088h175.379c3.907,0,7.073-3.176,7.073-7.088
		c0-3.902-3.166-7.077-7.073-7.077H154.538C150.63,443.959,147.46,447.134,147.46,451.036
		C147.46,451.036,147.46,447.134,147.46,451.036z"/>
	<path fill="#595558" d="M20.296,394.986c0,7.504,6.084,13.583,13.593,13.583h421.087c7.494,0,13.593-6.079,13.593-13.583V127.25
		c0-7.504-6.099-13.588-13.593-13.588H33.89c-7.509,0-13.593,6.084-13.593,13.588V394.986z"/>
	<path fill="#FFFFFF" d="M34.123,383.913c0,7.51,6.089,13.584,13.588,13.584h393.958c7.5,0,13.584-6.074,13.584-13.584v-242.57
		c0-7.5-6.084-13.579-13.584-13.579H47.711c-7.5,0-13.588,6.08-13.588,13.579V383.913z"/>
	<polygon fill="#B3B3B3" points="196.326,408.569 248.028,443.959 288.139,443.959 288.139,408.569 	"/>
</g>
<rect x="122.455" y="69.089" fill-rule="evenodd" clip-rule="evenodd" fill="#FFFFFF" width="227.945" height="192.773"/>
<g>
	<path fill-rule="evenodd" clip-rule="evenodd" fill="#E3E0D9" d="M208.455,267.377c9.371,6.091,18.441,11.964,27.478,17.879
		c3.631,2.365,7.194,2.395,10.82,0.041c9.061-5.886,18.131-11.759,27.604-17.906c35.995,30.043,72.397,60.422,109.333,91.241
		c-95.027,0-189.366,0-284.572,0C135.975,327.873,172.402,297.477,208.455,267.377z"/>
	<path fill-rule="evenodd" clip-rule="evenodd" fill="#E3E0D9" d="M134.647,196.017c-18.936-12.189-37.333-24.033-56.05-36.082
		c4.295-3.28,8.338-6.382,12.396-9.468c6.739-5.124,13.438-10.294,20.245-15.322c1.833-1.35,2.472-2.826,2.462-5.09
		c-0.097-18.649,0.131-37.304-0.14-55.948c-0.136-8.518,5.619-15.254,15.164-15.101c23.357,0.371,46.724,0.053,70.09,0.194
		c3.442,0.021,6.075-0.907,8.673-3.12c8.896-7.57,17.942-14.948,26.93-22.414c4.077-3.396,8.634-3.372,12.765,0.061
		c9.482,7.875,18.926,15.79,28.5,23.543c1.271,1.033,3.214,1.736,4.843,1.746c24.656,0.121,49.303,0.111,73.959,0.099
		c9.36-0.002,14.713,5.354,14.698,14.735c-0.039,19.186,0.015,38.373-0.072,57.556c-0.015,2.167,0.64,3.507,2.429,4.738
		c9.453,6.482,18.813,13.084,28.209,19.651c1.217,0.853,2.424,1.731,4.028,2.875c-18.548,11.458-36.79,22.725-55.619,34.35
		c0-3.559,0-6.499,0-9.439c0.01-31.942,0.015-63.877,0.02-95.817c0-6.31-1.479-7.805-7.736-7.805
		c-66.333,0.01-132.686,0.02-199.028,0.029c-4.974,0-6.763,1.803-6.763,6.777c0,34.725,0,69.455,0,104.18
		C134.647,192.408,134.647,193.872,134.647,196.017z"/>
	<path fill-rule="evenodd" clip-rule="evenodd" fill="#E3E0D9" d="M405.116,352.391c-38.681-31.683-76.76-62.874-115.319-94.453
		c38.496-27.162,76.75-54.147,115.319-81.36C405.116,235.166,405.116,293.391,405.116,352.391z"/>
	<path fill-rule="evenodd" clip-rule="evenodd" fill="#E3E0D9" d="M77.569,352.485c0-59.148,0-117.284,0-175.981
		c38.501,27.162,76.765,54.14,115.426,81.423C154.576,289.405,116.429,320.649,77.569,352.485z"/>
	<path fill-rule="evenodd" clip-rule="evenodd" fill="#E3E0D9" d="M241.081,158.235c-25.398,0-50.791,0.02-76.188-0.005
		c-6.622-0.007-9.531-3.001-9.574-9.643c-0.005-0.853-0.029-1.713-0.015-2.567c0.058-5.466,3.364-8.859,8.799-8.862
		c51.319-0.014,102.647-0.017,153.981-0.007c6.365,0.002,9.361,3.098,9.395,9.54c0.005,0.749,0.005,1.498,0,2.252
		c-0.024,6.203-3.083,9.286-9.259,9.289C292.512,158.238,266.794,158.235,241.081,158.235z"/>
	<path fill-rule="evenodd" clip-rule="evenodd" fill="#E3E0D9" d="M241.231,121.668c-24.962,0-49.923-0.019-74.89,0.012
		c-9.579,0.01-14.374-7.567-10.229-16.364c1.672-3.551,4.755-4.627,8.469-4.608c11.034,0.039,22.067-0.01,33.111-0.01
		c39.844,0,79.698,0.02,119.547-0.002c3.83-0.007,7.582,0.419,9.206,4.38c1.75,4.266,1.948,8.825-0.368,13.009
		c-1.46,2.616-4.02,3.614-7.073,3.604C293.078,121.651,267.157,121.668,241.231,121.668z"/>
	<path fill-rule="evenodd" clip-rule="evenodd" fill="#E3E0D9" d="M216.822,173.727c17.152,0,34.299-0.002,51.445,0.005
		c6.884,0.002,9.734,2.843,9.686,9.769c-0.01,2.014-0.023,4.12-0.596,6.011c-1.081,3.566-4.058,5.246-8.62,5.248
		c-20.787,0.024-41.579,0.024-62.362,0.024c-13.719,0-27.429-0.037-41.153,0.005c-4.029,0.01-7.834-0.819-9.124-5.008
		c-1.377-4.504-2.147-9.536,1.493-13.354c1.537-1.609,4.508-2.557,6.845-2.582C181.898,173.637,199.365,173.727,216.822,173.727z"/>
</g>
<g>
	<path fill-rule="evenodd" clip-rule="evenodd" fill="#CCCCCC" d="M274.356,267.391c-9.473,6.147-18.543,12.021-27.604,17.906
		c-1.794,1.163-3.568,1.735-5.342,1.74v71.595c47.382,0,94.746,0,142.279,0C346.754,327.813,310.352,297.434,274.356,267.391z"/>
	<path fill-rule="evenodd" clip-rule="evenodd" fill="#CCCCCC" d="M340.438,79.958c6.258,0,7.736,1.496,7.736,7.805
		c-0.005,31.939-0.01,63.875-0.02,95.817c0,2.94,0,5.88,0,9.439c18.829-11.625,37.071-22.892,55.619-34.35
		c-1.604-1.144-2.812-2.021-4.028-2.875c-9.396-6.566-18.756-13.169-28.209-19.651c-1.789-1.231-2.443-2.571-2.429-4.738
		c0.087-19.183,0.033-38.371,0.072-57.556c0.015-9.38-5.338-14.737-14.698-14.735c-24.656,0.012-49.303,0.022-73.959-0.099
		c-1.629-0.01-3.572-0.713-4.843-1.746c-9.574-7.754-19.018-15.668-28.5-23.543c-1.862-1.551-3.815-2.368-5.769-2.528v48.774
		C274.419,79.967,307.424,79.962,340.438,79.958z"/>
	<path fill-rule="evenodd" clip-rule="evenodd" fill="#CCCCCC" d="M289.797,257.938c38.56,31.579,76.639,62.771,115.319,94.453
		c0-59,0-117.225,0-175.813C366.547,203.79,328.293,230.775,289.797,257.938z"/>
	<path fill-rule="evenodd" clip-rule="evenodd" fill="#CCCCCC" d="M318.22,158.233c6.176-0.002,9.234-3.085,9.259-9.289
		c0.005-0.754,0.005-1.503,0-2.252c-0.033-6.442-3.029-9.538-9.395-9.54c-25.563-0.005-51.121,0.002-76.673,0.002v21.081
		C267.012,158.235,292.623,158.238,318.22,158.233z"/>
	<path fill-rule="evenodd" clip-rule="evenodd" fill="#CCCCCC" d="M319.005,121.69c3.054,0.01,5.613-0.989,7.073-3.604
		c2.316-4.184,2.118-8.743,0.368-13.009c-1.624-3.961-5.376-4.387-9.206-4.38c-25.281,0.012-50.553,0.005-75.83,0.002v20.969
		C267.273,121.668,293.142,121.651,319.005,121.69z"/>
	<path fill-rule="evenodd" clip-rule="evenodd" fill="#CCCCCC" d="M268.737,194.759c4.563-0.002,7.539-1.682,8.62-5.248
		c0.572-1.891,0.586-3.997,0.596-6.011c0.049-6.925-2.802-9.766-9.686-9.769c-8.954-0.005-17.908-0.005-26.857,0v21.037
		C250.52,194.769,259.629,194.769,268.737,194.759z"/>
</g>
</svg>
