<?xml version="1.0" encoding="utf-8"?>
<!-- Generator: Adobe Illustrator 16.0.0, SVG Export Plug-In . SVG Version: 6.00 Build 0)  -->
<!DOCTYPE svg PUBLIC "-//W3C//DTD SVG 1.1//EN" "http://www.w3.org/Graphics/SVG/1.1/DTD/svg11.dtd">
<svg version="1.1" id="Layer_1" xmlns="http://www.w3.org/2000/svg" xmlns:xlink="http://www.w3.org/1999/xlink" x="0px" y="0px"
	 width="500px" height="500px" viewBox="0 0 500 500" enable-background="new 0 0 500 500" xml:space="preserve">
<path fill="#371F55" d="M462.999,264.084c0,118.623-96.15,214.769-214.759,214.769c-118.613,0-214.764-96.146-214.764-214.769
	c0-118.604,96.151-214.764,214.764-214.764C366.849,49.32,462.999,145.48,462.999,264.084z"/>
<g>
	<rect x="199.596" y="398.295" fill="#E6E6E6" width="95.474" height="48.932"/>
	<path fill="#E6E6E6" d="M151.555,449.63c0,3.986,3.234,7.23,7.22,7.23h178.914c3.986,0,7.216-3.244,7.216-7.23
		s-3.229-7.221-7.216-7.221H158.775C154.79,442.409,151.555,445.644,151.555,449.63C151.555,449.63,151.555,445.644,151.555,449.63z
		"/>
	<path fill="#371F55" d="M21.829,392.45c0,7.655,6.207,13.857,13.867,13.857H465.27c7.646,0,13.867-6.202,13.867-13.857V119.318
		c0-7.655-6.222-13.867-13.867-13.867H35.696c-7.66,0-13.867,6.212-13.867,13.867V392.45z"/>
	<path fill="#FFFFFF" d="M35.934,381.154c0,7.655,6.212,13.857,13.862,13.857h401.897c7.651,0,13.857-6.202,13.857-13.857V133.69
		c0-7.646-6.206-13.848-13.857-13.848H49.796c-7.65,0-13.862,6.202-13.862,13.848V381.154z"/>
	<polygon fill="#B3B3B3" points="201.406,406.308 254.15,442.409 295.069,442.409 295.069,406.308 	"/>
</g>
<rect x="126.046" y="59.982" fill-rule="evenodd" clip-rule="evenodd" fill="#FFFFFF" width="232.539" height="196.658"/>
<g>
	<path fill-rule="evenodd" clip-rule="evenodd" fill="#E3E0D9" d="M213.78,262.264c9.56,6.217,18.813,12.206,28.031,18.239
		c3.704,2.413,7.339,2.443,11.039,0.045c9.243-6.004,18.496-11.993,28.159-18.265c36.721,30.643,73.856,61.637,111.536,93.075
		c-96.941,0-193.182,0-290.307,0C139.839,323.984,177,292.976,213.78,262.264z"/>
	<path fill-rule="evenodd" clip-rule="evenodd" fill="#E3E0D9" d="M138.484,189.466c-19.317-12.433-38.086-24.515-57.18-36.805
		c4.381-3.348,8.506-6.513,12.646-9.664c6.875-5.222,13.709-10.499,20.652-15.627c1.87-1.375,2.522-2.883,2.512-5.193
		c-0.099-19.025,0.134-38.056-0.143-57.076c-0.139-8.689,5.732-15.564,15.469-15.406c23.828,0.376,47.665,0.055,71.503,0.198
		c3.511,0.02,6.196-0.925,8.847-3.185c9.075-7.72,18.303-15.247,27.472-22.863c4.159-3.467,8.808-3.437,13.021,0.064
		c9.674,8.031,19.308,16.103,29.075,24.015c1.296,1.054,3.278,1.771,4.94,1.781c25.153,0.124,50.296,0.114,75.449,0.099
		c9.55,0,15.009,5.465,14.994,15.035c-0.039,19.574,0.015,39.148-0.074,58.713c-0.015,2.216,0.653,3.581,2.478,4.837
		c9.645,6.612,19.194,13.348,28.778,20.049c1.241,0.87,2.473,1.76,4.11,2.928c-18.922,11.691-37.532,23.185-56.74,35.044
		c0-3.63,0-6.627,0-9.629c0.01-32.586,0.015-65.167,0.02-97.749c0-6.439-1.508-7.962-7.893-7.962
		c-67.67,0.01-135.359,0.02-203.039,0.029c-5.074,0-6.899,1.84-6.899,6.914c0,35.425,0,70.854,0,106.279
		C138.484,185.786,138.484,187.28,138.484,189.466z"/>
	<path fill-rule="evenodd" clip-rule="evenodd" fill="#E3E0D9" d="M414.404,348.993c-39.46-32.318-78.307-64.138-117.644-96.354
		c39.272-27.714,78.298-55.241,117.644-83.005C414.404,229.406,414.404,288.802,414.404,348.993z"/>
	<path fill-rule="evenodd" clip-rule="evenodd" fill="#E3E0D9" d="M80.256,349.088c0-60.336,0-119.643,0-179.523
		c39.277,27.705,78.312,55.232,117.752,83.065C158.815,284.736,119.899,316.615,80.256,349.088z"/>
	<path fill-rule="evenodd" clip-rule="evenodd" fill="#E3E0D9" d="M247.063,150.925c-25.91,0-51.814,0.02-77.724-0.005
		c-6.756-0.01-9.723-3.061-9.768-9.836c-0.005-0.871-0.03-1.746-0.015-2.616c0.059-5.579,3.432-9.041,8.976-9.041
		c52.354-0.02,104.717-0.02,157.084-0.01c6.494,0,9.551,3.16,9.585,9.732c0.005,0.762,0.005,1.528,0,2.295
		c-0.024,6.33-3.146,9.476-9.446,9.476C299.53,150.93,273.294,150.925,247.063,150.925z"/>
	<path fill-rule="evenodd" clip-rule="evenodd" fill="#E3E0D9" d="M247.216,113.621c-25.464,0-50.929-0.02-76.398,0.01
		c-9.772,0.01-14.664-7.715-10.435-16.691c1.706-3.625,4.852-4.723,8.64-4.703c11.256,0.04,22.512-0.01,33.778-0.01
		c40.647,0,81.305,0.02,121.956,0c3.907-0.01,7.735,0.425,9.392,4.471c1.785,4.352,1.988,9.001-0.376,13.269
		c-1.488,2.666-4.1,3.684-7.215,3.674C300.108,113.602,273.665,113.621,247.216,113.621z"/>
	<path fill-rule="evenodd" clip-rule="evenodd" fill="#E3E0D9" d="M222.315,166.727c17.498,0,34.989,0,52.482,0.01
		c7.022,0,9.931,2.898,9.881,9.96c-0.01,2.058-0.024,4.204-0.608,6.133c-1.103,3.64-4.14,5.351-8.793,5.356
		c-21.206,0.024-42.418,0.024-63.619,0.024c-13.996,0-27.982-0.04-41.982,0.005c-4.11,0.01-7.992-0.836-9.308-5.109
		c-1.405-4.594-2.191-9.728,1.523-13.62c1.567-1.642,4.599-2.611,6.983-2.636C186.688,166.637,204.507,166.727,222.315,166.727z"/>
</g>
<g>
	<path fill-rule="evenodd" clip-rule="evenodd" fill="#CCCCCC" d="M281.009,262.283c-9.663,6.271-18.916,12.261-28.159,18.265
		c-1.83,1.187-3.64,1.771-5.45,1.775v73.035c48.337,0,96.655,0,145.146,0C354.865,323.92,317.729,292.926,281.009,262.283z"/>
	<path fill-rule="evenodd" clip-rule="evenodd" fill="#CCCCCC" d="M348.422,71.07c6.385,0,7.893,1.523,7.893,7.962
		c-0.005,32.581-0.01,65.162-0.02,97.749c0,3.002,0,5.999,0,9.629c19.208-11.859,37.818-23.353,56.74-35.044
		c-1.638-1.167-2.869-2.058-4.11-2.928c-9.584-6.701-19.134-13.437-28.778-20.049c-1.824-1.256-2.492-2.621-2.478-4.837
		c0.089-19.564,0.035-39.139,0.074-58.713c0.015-9.57-5.444-15.035-14.994-15.035c-25.153,0.015-50.296,0.025-75.449-0.099
		c-1.662-0.01-3.645-0.727-4.94-1.781c-9.768-7.913-19.401-15.984-29.075-24.015c-1.898-1.583-3.892-2.418-5.885-2.582v49.757
		C281.073,71.08,314.742,71.075,348.422,71.07z"/>
	<path fill-rule="evenodd" clip-rule="evenodd" fill="#CCCCCC" d="M296.761,252.64c39.337,32.216,78.184,64.035,117.644,96.354
		c0-60.191,0-119.587,0-179.359C375.059,197.398,336.033,224.925,296.761,252.64z"/>
	<path fill-rule="evenodd" clip-rule="evenodd" fill="#CCCCCC" d="M325.756,150.92c6.301,0,9.422-3.146,9.446-9.476
		c0.005-0.767,0.005-1.533,0-2.295c-0.034-6.572-3.091-9.732-9.585-9.732c-26.077-0.005-52.15,0-78.218,0v21.508
		C273.517,150.925,299.644,150.93,325.756,150.92z"/>
	<path fill-rule="evenodd" clip-rule="evenodd" fill="#CCCCCC" d="M326.558,113.641c3.115,0.01,5.727-1.009,7.215-3.674
		c2.364-4.268,2.161-8.917,0.376-13.269c-1.656-4.045-5.484-4.48-9.392-4.471c-25.79,0.01-51.571,0.005-77.357,0v21.394
		C273.783,113.621,300.173,113.602,326.558,113.641z"/>
	<path fill-rule="evenodd" clip-rule="evenodd" fill="#CCCCCC" d="M275.277,188.185c4.653-0.005,7.69-1.716,8.793-5.356
		c0.584-1.929,0.599-4.075,0.608-6.133c0.05-7.062-2.858-9.96-9.881-9.96c-9.135-0.01-18.269-0.01-27.398,0v21.458
		C256.692,188.195,265.984,188.195,275.277,188.185z"/>
</g>
</svg>
