<?xml version="1.0" encoding="utf-8"?>
<!-- Generator: Adobe Illustrator 16.0.0, SVG Export Plug-In . SVG Version: 6.00 Build 0)  -->
<!DOCTYPE svg PUBLIC "-//W3C//DTD SVG 1.1//EN" "http://www.w3.org/Graphics/SVG/1.1/DTD/svg11.dtd">
<svg version="1.1" id="Layer_1" xmlns="http://www.w3.org/2000/svg" xmlns:xlink="http://www.w3.org/1999/xlink" x="0px" y="0px"
	 width="500px" height="500px" viewBox="0 0 500 500" enable-background="new 0 0 500 500" xml:space="preserve">
<path fill="#371F55" d="M465.014,250.069c0,119.848-97.143,216.99-216.976,216.99c-119.837,0-216.98-97.143-216.98-216.99
	c0-119.828,97.143-216.98,216.98-216.98C367.871,33.089,465.014,130.242,465.014,250.069z"/>
<g>
	<rect x="198.892" y="385.671" fill="#E6E6E6" width="96.458" height="49.431"/>
	<path fill="#E6E6E6" d="M150.355,437.53c0,4.032,3.268,7.305,7.295,7.305h180.761c4.027,0,7.29-3.272,7.29-7.305
		c0-4.022-3.263-7.295-7.29-7.295H157.65C153.624,430.235,150.355,433.508,150.355,437.53
		C150.355,437.53,150.355,433.508,150.355,437.53z"/>
	<path fill="#371F55" d="M19.291,379.76c0,7.734,6.271,14,14.01,14h434.005c7.725,0,14.011-6.266,14.011-14V103.81
		c0-7.735-6.286-14.005-14.011-14.005H33.301c-7.74,0-14.01,6.271-14.01,14.005V379.76z"/>
	<path fill="#FFFFFF" d="M33.541,368.348c0,7.739,6.276,14,14.006,14h406.045c7.729,0,14-6.261,14-14V118.335
		c0-7.729-6.271-13.995-14-13.995H47.547c-7.73,0-14.006,6.266-14.006,13.995V368.348z"/>
	<polygon fill="#B3B3B3" points="200.721,393.76 254.009,430.235 295.351,430.235 295.351,393.76 	"/>
</g>
<path fill="#E3E0D9" d="M361.97,303.497c0,0-1.959,0.575-1.959,1.629c0,1.064,0,2.823,0,2.823l-0.979,2.533l-1.023,2.493
	l-1.754,2.323v5.267c0,0,1.389,2.204,1.389,3.268c0,1.069,1.714,5.146,1.714,5.146l1.14,3.193c0,0,3.518,4.981,1.958,5.876
	c0,0-0.069,1.963,0.42,2.493c0.484,0.524,1.959,4.087,1.959,4.087l1.304,3.917v5.432c0,0-0.045,6.046-1.474,6.211
	c0,0-2.408,4.207-3.263,4.207c0,0-3.229,0.444-3.229,0c0-1.879,0,0.324,0,0.324l0.2-4.122l-2.038-2.338l-1.305-1.584l-1.514-2.493
	c0,0-0.984-0.895-0.984-1.594c0-0.694,0-3.019,0-3.019s-1.948,0.734-1.948,0.2l-1.604-2.853c0,0-1.749-1.435-1.424-1.969
	l-0.899-2.318c0,0-0.904-3.028,0-4.298l0.694-2.857l-0.16-1.39l-0.898-2.973l-1.674,1.214l-0.984-1.953v-2.254l-1.629-1.099
	l-1.395-2.119l-1.429-1.069l-1.06-0.159l-0.779,0.404l-5.017,2.004l-1.889,0.814c0,0-1.914-1.095-1.914-1.555
	c0-0.439-3.877-3.467-3.877-3.467l-3.022-1.43c0,0-0.895-0.895-1.229,0c-0.365,0.899-5.142-1.589-5.677,0.37l-1.633,0.16
	c0,0-4.117,0.779-4.117-0.939c0-1.709,0-2.004,0-2.004s-1.069,0.614-1.069,2.214l-2.084-0.165l-1.954,0.524l-2.658,0.535
	l-1.059,1.269l-1.435,2.818l-1.063,1.549c0,0,3.922,4.122,3.387,4.287c-0.524,0.17-3.387-2.328-3.387-2.328l-1.1-0.36l-2.164,0.165
	v2.648l-2.003-1.589l-2.084-0.375l-3.348,0.375l-1.219-1.594l-2.908-1.964l-3.433-1.469v1.583l-0.569,1.685l-1.789-0.689
	l-4.177-1.229l-3.673,0.359l-3.548-0.159l-2.288,2.128l-2.294-2.128c0,0-1.748-0.16-1.748,0.899l0.814,2.488l-1.305,1.799v1.679
	h-2.333l-3.343,2.328h-1.719h-1.269h-1.269h-2.273v2.288v1.26l-1.889,2.203l-1.095-0.404l-1.229,2.168c0,0,0.08,2.773-0.615,3.673
	c-0.694,0.904,0.04-0.04-0.649-0.405c-0.694-0.369-0.165,1.759-0.165,1.759l0.365,1.749l0.534,3.183l2.119,3.923l-1.424,0.694
	l-2.858-0.774l-3.473-1.14h-4.697c0,0-2.049-1.273-2.499-2.488c-0.439-1.233-3.098-5.316-3.098-5.316s0-2.368,0-3.592
	c0-1.225-2.293-3.388-2.293-3.388c-1.219-0.899-3.343-3.758-3.343-3.758v-3.718l-1.429-1.719l-1.389-1.833l-3.758-3.028
	l-3.547-1.424c0,0-2.868,0.529-3.233-0.165c-0.37-0.689-1.963-0.689-1.963-0.689l-2.653,4.981l-1.219,1.429
	c-0.904,2.114-5.271-0.904-5.271-0.904l-5.596-2.982v-1.994l-0.984-1.969l-1.224-3.912l-1.918-1.069
	c-1.265-0.364-8.574-9.384-8.574-9.384h-14.051v4.203h-20.66l-4.742-2.084l-21.03-7.885v-0.364h-16.619l-1.344-2.329v-2.897
	l-5.406-4.008c0,0-3.093-1.063-2.358-1.224l-0.05-1.594c0,0-2.523,0.534-3.053,0c-0.54-0.525-5.312-2.119-5.841-2.119
	c-0.535,0-4.083-3.922-4.083-3.922l-3.927-4.617l-5.796-8.164l-2.778-3.558v-2.938l-1.674-2.208l-1.509-3.388l-1.024-2.483
	c0,0,1.274,0.155,1.964,1.784c0,0-0.689-3.708-1.964-3.019c0,0-3.188-1.589-3.717-3.547l-3.018-3.558c0,0-2.333-3.718-2.333-4.822
	l-0.895-6.206l-2.658-3.183l-0.89-2.493l0.689-1.594l0.895-3.027l1.06-3.388l-1.219-4.447l-1.474-4.372l-1.219-4.082l0.895-4.612
	l2.329-6.411l0.375-6.136l-0.21-6.126l0.16-5.511v-4.932l1.145-1.109h1.059c0,0,1.069-1.879,0.37-1.879h-2.243
	c0,0-0.085-2.124,0.814-2.124l-0.155-2.124c0,0-0.175-2.124,0.524-2.124c0,0-1.224-2.124-2.128-1.753c0,0-1.434-2.658-0.895-2.868
	c0,0-0.33-2.848-0.694-3.542l-1.269-2.494l-0.89-2.128l-1.109-3.957l6.58,2.448l5.347-1.424c0,0-2.329-4.012,0-4.012
	c0,0,2.653,0.25-0.29-3.508h201.137v-4.087c0,0,3.032-1.18,2.777,5.236c0,0,1.024-0.695,1.024,1.144l2.979,1.094
	c0,0,2.987,0.989,3.228,2.208l2.693-0.495c0,0,5.106-0.725,5.351,0.979l1.634,0.994v1.504l1.839,0.125c0,0,0.735-2.378,3.963,1.584
	l5.187-1.669l0.989,1.264h5.506l0.979,2.328h4.042l5.761-3.842l25.808,14.46v3.388l2.818,1.474h2.328v2.938l1.999,1.799
	c0,0,2.777-2.208,3.272,0l-0.935,1.714l2.238,1.224l4.697,2.943c0,0,0.819,1.224,0.819,2.453l1.554,10.093v6.241v4.402l-1.634,4.132
	l-2.328,2.203c0,0-2.903,2.868-2.169,5.062l3.513,2.129h2.818l6.295-4.247l4.447-1.719l3.678-0.49l6.165-3.178l2.938-1.719
	l-0.975-5.681l2.938-1.464l13.805-0.25l2.934-4.692l9.764-8.859l25.282-0.745v-1.914c0,0,1.669-1.509,2.158-0.29
	c0.5,1.225,1.964-0.245,1.964-0.245s1.02-1.224,1.964-0.974v-2.898l2.813-2.053v-3.627l3.883-7.925l2.698-4.697l1.913-0.04
	c0,0-0.165,3.183,2.863,2.488c0,0,0.364-0.894,1.959-0.699c0,0,1.429-1.424,3.388,0.54c1.958,1.964,0,0.694,0,0.694l1.958,1.229
	l-0.694,13.84c0,0-0.439-0.205,0.619,0l1.675,1.793v2.818l2.203,1.269l2.123,3.393l-1.424,1.059l-4.462,2.124l-2.318,1.064
	l-1.074-0.779l-0.689,1.014h-1.634l-2.084,1.724l-0.369-3.228l-1.22,1.224l-0.164,2.783l-1.22,1.704h-1.839l-2.083,1.439
	l-1.229-0.29c0,0-1.429-0.575-1.429,0.654l-0.694,1.389l-1.425,1.594c0,0-2.128,0.894-1.273,1.224l-0.16,1.759l-1.429,2.488
	l0.364,0.774c0,0,0.689,1.344-1.054,2.613c0,0-2.494,1.959,0.154,2.863c0,0,0.699,1.958,0.899,2.648c0,0,1.225,2.043,2.118,2.454
	l-2.118,2.613l-2.328,0.614h-3.468h-3.792l-3.598,0.939h-3.353l-1.839,1.264l-2.079,1.839c0,0,1.424,0.899,3.023,0.04l4.077-0.529
	l3.388-1.145l1.804,0.655l-2.698,1.469c0,0-6.041,2.443-6.041,1.918c0-0.535,0-0.325,0-0.325s-5.641,2.288-6.695,1.389
	c0,0-1.639,1.229,0.325,1.594c0,0,0.159,1.344,0,5.666c-0.085,2.338-2.858,4.827-3.923,4.987l-1.059,3.192l-1.435,1.219
	l-0.529-3.547l-1.425-0.694l-1.798-1.229l-0.905-1.794l-0.529,2.329l1.919,3.018l1.919,2.488v2.203l-1.59,3.688l-1.753,2.113
	l-2.039,3.563l-1.684,1.59v-3.393l1.389-1.39v-1.754l-1.054-1.634l-1.064-1.264l-1.35-1.594L393.008,248l1.265-1.429l-0.484-2.494
	v-1.184l1.219-2.363l-1.874,1.219c0,0-0.854,1.589-0.494,2.124c0.369,0.525,0.21,2.323,0.21,2.323l-0.694,3.393l0.359,3.063h-1.18
	l-1.144-0.939l-1.424-0.694l-2.334-1.064l0.17,1.265l1.954,1.434l3.022,1.594l1.964,0.895l-1.109,3.193l-0.574,2.488v2.288
	l-1.175-1.024c0,0-0.454,1.799,0.6,1.959c1.074,0.164,2.908,0.164,2.908,0.164s0.899,1.06,1.104,1.964
	c0.165,0.895,0.899,2.858,0.899,3.388c0,0.53-1.064,0.904-1.064,0.904l-1.879-0.21l-0.159,1.425c0,0-1.435,1.063,0,1.229
	c1.424,0.17,2.488,0.7,2.488,0.7s1.224,0.694,1.059,1.583c-0.16,0.905-1.059,1.805-1.059,1.805l-1.959,0.529
	c0,0,0.524,1.589-0.529,3.393c-1.064,1.794-1.064,1.794-1.064,1.794l-1.799,0.899l-2.849,0.694c0,0-0.909,1.584-1.809,2.124
	c-0.899,0.529-3.183,1.803-3.548,2.652c-0.374,0.895-1.963,1.959-2.857,1.959c-0.904,0-2.858,0.895-2.858,0.895l-2.493,1.959
	c0,0,0.529,0.539,0,1.809c-0.534,1.219-0.369,2.482-0.899,2.647c-0.524,0.165-2.128,1.964-2.128,1.964s-2.124-0.694-2.318,0.365
	c-0.176,1.063-1.805,1.224-1.805,1.224l-2.158,1.435L361.97,303.497z"/>
<g>
	<polygon fill="#553082" points="91.491,172.748 91.491,155.674 76.707,164.213 	"/>
	<polygon fill="#442A68" points="61.917,155.674 61.917,172.748 76.707,164.213 	"/>
	<polygon fill="#67488F" points="76.707,147.135 61.917,155.674 76.707,164.213 	"/>
	<polygon fill="#442A68" points="76.707,181.287 91.491,172.748 76.707,164.213 	"/>
	<polygon fill="#371F55" points="61.917,172.748 76.707,181.287 76.707,164.213 	"/>
	<polygon fill="#745B99" points="76.707,164.213 91.491,155.674 76.707,147.135 	"/>
	<polygon fill="#67488F" points="61.127,152.132 61.127,144.992 54.941,148.564 	"/>
	<polygon fill="#553082" points="48.761,144.992 48.761,152.132 54.941,148.564 	"/>
	<polygon fill="#67488F" points="54.941,141.424 48.761,144.992 54.941,148.564 	"/>
	<polygon fill="#553082" points="54.941,155.704 61.127,152.132 54.941,148.564 	"/>
	<polygon fill="#442A68" points="48.761,152.132 54.941,155.704 54.941,148.564 	"/>
	<polygon fill="#745B99" points="54.941,148.564 61.127,144.992 54.941,141.424 	"/>
	<polygon fill="#745B99" points="76.951,139.176 76.951,129.243 68.347,134.209 	"/>
	<polygon fill="#67488F" points="59.743,129.243 59.743,139.176 68.347,134.209 	"/>
	<polygon fill="#745B99" points="68.347,124.276 59.743,129.243 68.347,134.209 	"/>
	<polygon fill="#67488F" points="68.347,144.143 76.951,139.176 68.347,134.209 	"/>
	<polygon fill="#553082" points="59.743,139.176 68.347,144.143 68.347,134.209 	"/>
	<polygon fill="#A192BD" points="68.347,134.209 76.951,129.243 68.347,124.276 	"/>
	<polygon fill="#745B99" points="96.548,140.345 96.548,131.017 88.463,135.678 	"/>
	<polygon fill="#67488F" points="80.379,131.017 80.379,140.345 88.463,135.678 	"/>
	<polygon fill="#745B99" points="88.463,126.35 80.379,131.017 88.463,135.678 	"/>
	<polygon fill="#67488F" points="88.463,145.012 96.548,140.345 88.463,135.678 	"/>
	<polygon fill="#553082" points="80.379,140.345 88.463,145.012 88.463,135.678 	"/>
	<polygon fill="#A192BD" points="88.463,135.678 96.548,131.017 88.463,126.35 	"/>
	<polygon fill="#67488F" points="106.291,155 106.291,147.215 99.551,151.107 	"/>
	<polygon fill="#553082" points="92.806,147.215 92.806,155 99.551,151.107 	"/>
	<polygon fill="#67488F" points="99.551,143.323 92.806,147.215 99.551,151.107 	"/>
	<polygon fill="#553082" points="99.551,158.892 106.291,155 99.551,151.107 	"/>
	<polygon fill="#442A68" points="92.806,155 99.551,158.892 99.551,151.107 	"/>
	<polygon fill="#745B99" points="99.551,151.107 106.291,147.215 99.551,143.323 	"/>
</g>
<g>
	<polygon fill="#553082" points="202.765,241.535 202.765,224.462 187.979,233.001 	"/>
	<polygon fill="#442A68" points="173.19,224.462 173.19,241.535 187.979,233.001 	"/>
	<polygon fill="#67488F" points="187.979,215.923 173.19,224.462 187.979,233.001 	"/>
	<polygon fill="#442A68" points="187.979,250.074 202.765,241.535 187.979,233.001 	"/>
	<polygon fill="#371F55" points="173.19,241.535 187.979,250.074 187.979,233.001 	"/>
	<polygon fill="#745B99" points="187.979,233.001 202.765,224.462 187.979,215.923 	"/>
	<polygon fill="#67488F" points="172.4,220.919 172.4,213.779 166.215,217.352 	"/>
	<polygon fill="#553082" points="160.034,213.779 160.034,220.919 166.215,217.352 	"/>
	<polygon fill="#67488F" points="166.215,210.212 160.034,213.779 166.215,217.352 	"/>
	<polygon fill="#553082" points="166.215,224.492 172.4,220.919 166.215,217.352 	"/>
	<polygon fill="#442A68" points="160.034,220.919 166.215,224.492 166.215,217.352 	"/>
	<polygon fill="#745B99" points="166.215,217.352 172.4,213.779 166.215,210.212 	"/>
	<polygon fill="#745B99" points="188.225,207.963 188.225,198.03 179.621,202.997 	"/>
	<polygon fill="#67488F" points="171.017,198.03 171.017,207.963 179.621,202.997 	"/>
	<polygon fill="#745B99" points="179.621,193.063 171.017,198.03 179.621,202.997 	"/>
	<polygon fill="#67488F" points="179.621,212.93 188.225,207.963 179.621,202.997 	"/>
	<polygon fill="#553082" points="171.017,207.963 179.621,212.93 179.621,202.997 	"/>
	<polygon fill="#A192BD" points="179.621,202.997 188.225,198.03 179.621,193.063 	"/>
	<polygon fill="#745B99" points="207.821,209.132 207.821,199.804 199.736,204.466 	"/>
	<polygon fill="#67488F" points="191.652,199.804 191.652,209.132 199.736,204.466 	"/>
	<polygon fill="#745B99" points="199.736,195.137 191.652,199.804 199.736,204.466 	"/>
	<polygon fill="#67488F" points="199.736,213.799 207.821,209.132 199.736,204.466 	"/>
	<polygon fill="#553082" points="191.652,209.132 199.736,213.799 199.736,204.466 	"/>
	<polygon fill="#A192BD" points="199.736,204.466 207.821,199.804 199.736,195.137 	"/>
	<polygon fill="#67488F" points="217.564,223.787 217.564,216.003 210.824,219.895 	"/>
	<polygon fill="#553082" points="204.079,216.003 204.079,223.787 210.824,219.895 	"/>
	<polygon fill="#67488F" points="210.824,212.11 204.079,216.003 210.824,219.895 	"/>
	<polygon fill="#553082" points="210.824,227.68 217.564,223.787 210.824,219.895 	"/>
	<polygon fill="#442A68" points="204.079,223.787 210.824,227.68 210.824,219.895 	"/>
	<polygon fill="#745B99" points="210.824,219.895 217.564,216.003 210.824,212.11 	"/>
</g>
<g>
	<polygon fill="#553082" points="313.408,184.175 313.408,167.102 298.623,175.641 	"/>
	<polygon fill="#442A68" points="283.834,167.102 283.834,184.175 298.623,175.641 	"/>
	<polygon fill="#67488F" points="298.623,158.563 283.834,167.102 298.623,175.641 	"/>
	<polygon fill="#442A68" points="298.623,192.714 313.408,184.175 298.623,175.641 	"/>
	<polygon fill="#371F55" points="283.834,184.175 298.623,192.714 298.623,175.641 	"/>
	<polygon fill="#745B99" points="298.623,175.641 313.408,167.102 298.623,158.563 	"/>
	<polygon fill="#67488F" points="283.044,163.559 283.044,156.419 276.858,159.991 	"/>
	<polygon fill="#553082" points="270.678,156.419 270.678,163.559 276.858,159.991 	"/>
	<polygon fill="#67488F" points="276.858,152.852 270.678,156.419 276.858,159.991 	"/>
	<polygon fill="#553082" points="276.858,167.131 283.044,163.559 276.858,159.991 	"/>
	<polygon fill="#442A68" points="270.678,163.559 276.858,167.131 276.858,159.991 	"/>
	<polygon fill="#745B99" points="276.858,159.991 283.044,156.419 276.858,152.852 	"/>
	<polygon fill="#745B99" points="298.868,150.603 298.868,140.67 290.264,145.636 	"/>
	<polygon fill="#67488F" points="281.66,140.67 281.66,150.603 290.264,145.636 	"/>
	<polygon fill="#745B99" points="290.264,135.703 281.66,140.67 290.264,145.636 	"/>
	<polygon fill="#67488F" points="290.264,155.569 298.868,150.603 290.264,145.636 	"/>
	<polygon fill="#553082" points="281.66,150.603 290.264,155.569 290.264,145.636 	"/>
	<polygon fill="#A192BD" points="290.264,145.636 298.868,140.67 290.264,135.703 	"/>
	<polygon fill="#745B99" points="318.465,151.772 318.465,142.443 310.381,147.105 	"/>
	<polygon fill="#67488F" points="302.296,142.443 302.296,151.772 310.381,147.105 	"/>
	<polygon fill="#745B99" points="310.381,137.776 302.296,142.443 310.381,147.105 	"/>
	<polygon fill="#67488F" points="310.381,156.439 318.465,151.772 310.381,147.105 	"/>
	<polygon fill="#553082" points="302.296,151.772 310.381,156.439 310.381,147.105 	"/>
	<polygon fill="#A192BD" points="310.381,147.105 318.465,142.443 310.381,137.776 	"/>
	<polygon fill="#67488F" points="328.208,166.427 328.208,158.643 321.468,162.535 	"/>
	<polygon fill="#553082" points="314.723,158.643 314.723,166.427 321.468,162.535 	"/>
	<polygon fill="#67488F" points="321.468,154.75 314.723,158.643 321.468,162.535 	"/>
	<polygon fill="#553082" points="321.468,170.319 328.208,166.427 321.468,162.535 	"/>
	<polygon fill="#442A68" points="314.723,166.427 321.468,170.319 321.468,162.535 	"/>
	<polygon fill="#745B99" points="321.468,162.535 328.208,158.643 321.468,154.75 	"/>
</g>
<g>
	<polygon fill="#553082" points="415.737,232.896 415.737,215.823 400.953,224.362 	"/>
	<polygon fill="#442A68" points="386.163,215.823 386.163,232.896 400.953,224.362 	"/>
	<polygon fill="#67488F" points="400.953,207.284 386.163,215.823 400.953,224.362 	"/>
	<polygon fill="#442A68" points="400.953,241.435 415.737,232.896 400.953,224.362 	"/>
	<polygon fill="#371F55" points="386.163,232.896 400.953,241.435 400.953,224.362 	"/>
	<polygon fill="#745B99" points="400.953,224.362 415.737,215.823 400.953,207.284 	"/>
	<polygon fill="#67488F" points="385.374,212.28 385.374,205.14 379.188,208.713 	"/>
	<polygon fill="#553082" points="373.007,205.14 373.007,212.28 379.188,208.713 	"/>
	<polygon fill="#67488F" points="379.188,201.573 373.007,205.14 379.188,208.713 	"/>
	<polygon fill="#553082" points="379.188,215.853 385.374,212.28 379.188,208.713 	"/>
	<polygon fill="#442A68" points="373.007,212.28 379.188,215.853 379.188,208.713 	"/>
	<polygon fill="#745B99" points="379.188,208.713 385.374,205.14 379.188,201.573 	"/>
	<polygon fill="#745B99" points="401.197,199.324 401.197,189.391 392.594,194.357 	"/>
	<polygon fill="#67488F" points="383.989,189.391 383.989,199.324 392.594,194.357 	"/>
	<polygon fill="#745B99" points="392.594,184.424 383.989,189.391 392.594,194.357 	"/>
	<polygon fill="#67488F" points="392.594,204.291 401.197,199.324 392.594,194.357 	"/>
	<polygon fill="#553082" points="383.989,199.324 392.594,204.291 392.594,194.357 	"/>
	<polygon fill="#A192BD" points="392.594,194.357 401.197,189.391 392.594,184.424 	"/>
	<polygon fill="#745B99" points="420.794,200.493 420.794,191.165 412.71,195.827 	"/>
	<polygon fill="#67488F" points="404.625,191.165 404.625,200.493 412.71,195.827 	"/>
	<polygon fill="#745B99" points="412.71,186.498 404.625,191.165 412.71,195.827 	"/>
	<polygon fill="#67488F" points="412.71,205.16 420.794,200.493 412.71,195.827 	"/>
	<polygon fill="#553082" points="404.625,200.493 412.71,205.16 412.71,195.827 	"/>
	<polygon fill="#A192BD" points="412.71,195.827 420.794,191.165 412.71,186.498 	"/>
	<polygon fill="#67488F" points="430.537,215.148 430.537,207.364 423.797,211.256 	"/>
	<polygon fill="#553082" points="417.052,207.364 417.052,215.148 423.797,211.256 	"/>
	<polygon fill="#67488F" points="423.797,203.471 417.052,207.364 423.797,211.256 	"/>
	<polygon fill="#553082" points="423.797,219.041 430.537,215.148 423.797,211.256 	"/>
	<polygon fill="#442A68" points="417.052,215.148 423.797,219.041 423.797,211.256 	"/>
	<polygon fill="#745B99" points="423.797,211.256 430.537,207.364 423.797,203.471 	"/>
</g>
<g>
	<polygon fill="#553082" points="338.801,326.507 338.801,309.434 324.016,317.973 	"/>
	<polygon fill="#442A68" points="309.227,309.434 309.227,326.507 324.016,317.973 	"/>
	<polygon fill="#67488F" points="324.016,300.895 309.227,309.434 324.016,317.973 	"/>
	<polygon fill="#442A68" points="324.016,335.046 338.801,326.507 324.016,317.973 	"/>
	<polygon fill="#371F55" points="309.227,326.507 324.016,335.046 324.016,317.973 	"/>
	<polygon fill="#745B99" points="324.016,317.973 338.801,309.434 324.016,300.895 	"/>
	<polygon fill="#67488F" points="308.437,305.891 308.437,298.751 302.251,302.323 	"/>
	<polygon fill="#553082" points="296.07,298.751 296.07,305.891 302.251,302.323 	"/>
	<polygon fill="#67488F" points="302.251,295.184 296.07,298.751 302.251,302.323 	"/>
	<polygon fill="#553082" points="302.251,309.463 308.437,305.891 302.251,302.323 	"/>
	<polygon fill="#442A68" points="296.07,305.891 302.251,309.463 302.251,302.323 	"/>
	<polygon fill="#745B99" points="302.251,302.323 308.437,298.751 302.251,295.184 	"/>
	<polygon fill="#745B99" points="324.261,292.935 324.261,283.002 315.656,287.968 	"/>
	<polygon fill="#67488F" points="307.053,283.002 307.053,292.935 315.656,287.968 	"/>
	<polygon fill="#745B99" points="315.656,278.035 307.053,283.002 315.656,287.968 	"/>
	<polygon fill="#67488F" points="315.656,297.901 324.261,292.935 315.656,287.968 	"/>
	<polygon fill="#553082" points="307.053,292.935 315.656,297.901 315.656,287.968 	"/>
	<polygon fill="#A192BD" points="315.656,287.968 324.261,283.002 315.656,278.035 	"/>
	<polygon fill="#745B99" points="343.857,294.104 343.857,284.775 335.772,289.438 	"/>
	<polygon fill="#67488F" points="327.688,284.775 327.688,294.104 335.772,289.438 	"/>
	<polygon fill="#745B99" points="335.772,280.108 327.688,284.775 335.772,289.438 	"/>
	<polygon fill="#67488F" points="335.772,298.771 343.857,294.104 335.772,289.438 	"/>
	<polygon fill="#553082" points="327.688,294.104 335.772,298.771 335.772,289.438 	"/>
	<polygon fill="#A192BD" points="335.772,289.438 343.857,284.775 335.772,280.108 	"/>
	<polygon fill="#67488F" points="353.601,308.759 353.601,300.975 346.86,304.866 	"/>
	<polygon fill="#553082" points="340.115,300.975 340.115,308.759 346.86,304.866 	"/>
	<polygon fill="#67488F" points="346.86,297.082 340.115,300.975 346.86,304.866 	"/>
	<polygon fill="#553082" points="346.86,312.651 353.601,308.759 346.86,304.866 	"/>
	<polygon fill="#442A68" points="340.115,308.759 346.86,312.651 346.86,304.866 	"/>
	<polygon fill="#745B99" points="346.86,304.866 353.601,300.975 346.86,297.082 	"/>
</g>
<g>
	<polygon fill="#553082" points="149.021,315.149 149.021,298.076 134.237,306.615 	"/>
	<polygon fill="#442A68" points="119.447,298.076 119.447,315.149 134.237,306.615 	"/>
	<polygon fill="#67488F" points="134.237,289.537 119.447,298.076 134.237,306.615 	"/>
	<polygon fill="#442A68" points="134.237,323.688 149.021,315.149 134.237,306.615 	"/>
	<polygon fill="#371F55" points="119.447,315.149 134.237,323.688 134.237,306.615 	"/>
	<polygon fill="#745B99" points="134.237,306.615 149.021,298.076 134.237,289.537 	"/>
	<polygon fill="#67488F" points="118.658,294.533 118.658,287.394 112.472,290.966 	"/>
	<polygon fill="#553082" points="106.291,287.394 106.291,294.533 112.472,290.966 	"/>
	<polygon fill="#67488F" points="112.472,283.826 106.291,287.394 112.472,290.966 	"/>
	<polygon fill="#553082" points="112.472,298.106 118.658,294.533 112.472,290.966 	"/>
	<polygon fill="#442A68" points="106.291,294.533 112.472,298.106 112.472,290.966 	"/>
	<polygon fill="#745B99" points="112.472,290.966 118.658,287.394 112.472,283.826 	"/>
	<polygon fill="#745B99" points="134.481,281.577 134.481,271.645 125.877,276.611 	"/>
	<polygon fill="#67488F" points="117.273,271.645 117.273,281.577 125.877,276.611 	"/>
	<polygon fill="#745B99" points="125.877,266.678 117.273,271.645 125.877,276.611 	"/>
	<polygon fill="#67488F" points="125.877,286.544 134.481,281.577 125.877,276.611 	"/>
	<polygon fill="#553082" points="117.273,281.577 125.877,286.544 125.877,276.611 	"/>
	<polygon fill="#A192BD" points="125.877,276.611 134.481,271.645 125.877,266.678 	"/>
	<polygon fill="#745B99" points="154.078,282.747 154.078,273.418 145.994,278.08 	"/>
	<polygon fill="#67488F" points="137.909,273.418 137.909,282.747 145.994,278.08 	"/>
	<polygon fill="#745B99" points="145.994,268.751 137.909,273.418 145.994,278.08 	"/>
	<polygon fill="#67488F" points="145.994,287.413 154.078,282.747 145.994,278.08 	"/>
	<polygon fill="#553082" points="137.909,282.747 145.994,287.413 145.994,278.08 	"/>
	<polygon fill="#A192BD" points="145.994,278.08 154.078,273.418 145.994,268.751 	"/>
	<polygon fill="#67488F" points="163.821,297.401 163.821,289.617 157.081,293.51 	"/>
	<polygon fill="#553082" points="150.336,289.617 150.336,297.401 157.081,293.51 	"/>
	<polygon fill="#67488F" points="157.081,285.725 150.336,289.617 157.081,293.51 	"/>
	<polygon fill="#553082" points="157.081,301.294 163.821,297.401 157.081,293.51 	"/>
	<polygon fill="#442A68" points="150.336,297.401 157.081,301.294 157.081,293.51 	"/>
	<polygon fill="#745B99" points="157.081,293.51 163.821,289.617 157.081,285.725 	"/>
</g>
</svg>
