<?xml version="1.0" encoding="utf-8"?>
<!-- Generator: Adobe Illustrator 16.0.0, SVG Export Plug-In . SVG Version: 6.00 Build 0)  -->
<!DOCTYPE svg PUBLIC "-//W3C//DTD SVG 1.1//EN" "http://www.w3.org/Graphics/SVG/1.1/DTD/svg11.dtd">
<svg version="1.1" id="Layer_1" xmlns="http://www.w3.org/2000/svg" xmlns:xlink="http://www.w3.org/1999/xlink" x="0px" y="0px"
	 width="500px" height="500px" viewBox="0 0 500 500" enable-background="new 0 0 500 500" xml:space="preserve">
<path fill-rule="evenodd" clip-rule="evenodd" fill="#371F55" d="M325.411,104.407c-0.742-0.371,14.904-17.698,29.245-9.683
	c14.342,8.006,13.595,26.264,4.842,38.182C350.745,144.829,325.411,104.407,325.411,104.407z"/>
<path fill-rule="evenodd" clip-rule="evenodd" fill="#371F55" d="M279.026,82.378c0,0,4.658-33.423,30.175-27.888
	c25.518,5.536,15.271,41.858,15.271,41.858L279.026,82.378z"/>
<path fill-rule="evenodd" clip-rule="evenodd" fill="#371F55" d="M227.481,78.554c0,0-5.261-39.203,22.688-40.046
	c22.862-0.686,25.351,14.716,25.73,40.046C276.28,103.892,227.481,78.554,227.481,78.554z"/>
<path fill-rule="evenodd" clip-rule="evenodd" fill="#371F55" d="M176.29,101.648c0,0-12.739-36.121,11.923-41.377
	c24.661-5.256,29.961,16.423,33.345,27.835C224.941,99.514,176.29,101.648,176.29,101.648z"/>
<path fill-rule="evenodd" clip-rule="evenodd" fill="#371F55" d="M62.906,243.077L46.98,203.682c0,0-4.89-13.551,4.051-18.72
	s18.161-4.47,24.448,12.853C81.766,215.137,62.906,243.077,62.906,243.077z"/>
<path fill-rule="evenodd" clip-rule="evenodd" fill="#371F55" d="M435.39,230.478l15.926-39.396c0,0,4.89-13.551-4.051-18.72
	s-18.161-4.47-24.447,12.853C416.53,202.538,435.39,230.478,435.39,230.478z"/>
<path fill-rule="evenodd" clip-rule="evenodd" fill="#371F55" d="M69.8,311.111c0,0-11.176-7.265-17.603-21.234
	c-6.426-13.971-21.046-23.287-26.076-23.846s-11.739-14.896,0.93-19.182c12.669-4.287,29.433,2.89,35.392,9.037
	C68.402,262.033,69.8,311.111,69.8,311.111z"/>
<path fill-rule="evenodd" clip-rule="evenodd" fill="#371F55" d="M431.173,300.429c0,0,11.176-7.265,17.603-21.234
	c6.426-13.971,21.047-23.282,26.075-23.841c5.029-0.559,11.739-14.904-0.93-19.187s-29.433,2.885-35.392,9.032
	S431.173,300.429,431.173,300.429z"/>
<path fill="#371F55" d="M440.437,258.759c0,104.714-84.876,189.581-189.577,189.581c-104.705,0-189.582-84.867-189.582-189.581
	c0-104.697,84.876-189.582,189.582-189.582C355.561,69.177,440.437,154.062,440.437,258.759z"/>
<g>
	<path fill-rule="evenodd" clip-rule="evenodd" fill="#FFFFFF" d="M206.845,323.911c4.008-3.248,8.784-4.968,14.027-5.003
		c2.235-0.018,4.082,1.021,4.641,3.187c0.524,1.982-0.664,3.501-2.471,4.427c-7.012,3.58-12.054,9.221-15.206,16.205
		c-3.781,8.365-9.028,15.058-17.266,19.327c-0.864,0.449-1.681,1.978-1.659,2.978c0.467,20.33,1.083,40.656,1.611,60.987
		c0.113,4.388-0.009,8.779-0.022,13.354c-11.303,0.943-22.387,0.271-33.384-2.61c0-1.144-0.026-2.057,0.013-2.974
		c0.856-22.251,1.725-44.498,2.528-66.754c0.044-1.065-0.166-2.532-0.864-3.17c-4.121-3.824-6.989-8.495-8.05-13.865
		c-1.301-6.54-1.646-13.263-2.589-19.877c-0.292-2.029-0.869-4.134-1.829-5.933c-3.074-5.754-6.47-11.333-9.557-17.087
		c-1.152-2.152-2.108-4.531-2.541-6.911c-0.218-1.235,0.572-3.505,1.489-3.881c1.44-0.585,3.488-0.297,5.042,0.267
		c1.035,0.371,1.755,1.812,2.449,2.886c3.977,6.077,7.893,12.197,11.844,18.292c0.502,0.785,1.087,1.51,1.637,2.266
		c0.245-0.092,0.476-0.18,0.725-0.275c-0.096-1.013-0.091-2.061-0.31-3.047c-2.1-9.129-4.313-18.231-6.313-27.381
		c-0.458-2.109-0.589-4.449-0.166-6.54c0.266-1.336,1.755-3.266,2.855-3.379c1.506-0.157,3.383,0.899,4.684,1.946
		c0.869,0.699,1.126,2.253,1.476,3.479c2.58,9.099,5.09,18.214,7.719,27.299c0.336,1.17,1.191,2.191,1.812,3.283
		c0.275-0.132,0.555-0.263,0.834-0.402c0.061-0.803,0.157-1.615,0.179-2.418c0.236-10.216,0.441-20.427,0.708-30.634
		c0.043-1.555,0.17-3.147,0.593-4.632c0.603-2.152,1.834-3.833,4.427-3.794c2.642,0.039,4.689,1.021,5.492,3.697
		c0.292,0.943,0.314,1.991,0.297,2.986c-0.175,10.312-0.371,20.614-0.607,30.918c-0.043,1.838,0.358,3.222,2.602,3.745
		c0.467-1.034,0.96-1.995,1.327-3.003c3.183-8.806,6.326-17.629,9.53-26.43c1.288-3.536,3.793-4.741,6.858-3.414
		c2.436,1.065,3.375,3.301,2.458,6.509c-2.794,9.797-5.776,19.545-8.5,29.363c-1.471,5.317-0.38,10.451,1.615,15.59
		C200.559,329.971,203.466,326.648,206.845,323.911z M173.977,346.726c1.428-2.453,2.405-4.759,3.938-6.609
		c1.607-1.938,3.589-3.676,5.688-5.073c2.083-1.393,4.527-2.252,6.806-3.335C182.616,331.25,175.36,337.715,173.977,346.726z"/>
</g>
<g>
	<path fill-rule="evenodd" clip-rule="evenodd" fill="#FFFFFF" d="M311.201,344.377c1.768-4.545,2.732-9.089,1.432-13.795
		c-2.409-8.688-5.051-17.314-7.521-25.984c-0.813-2.838,0.018-4.811,2.174-5.754c2.711-1.179,4.929-0.113,6.068,3.017
		c2.838,7.788,5.618,15.599,8.435,23.387c0.327,0.891,0.764,1.746,1.174,2.654c1.986-0.458,2.34-1.686,2.306-3.31
		c-0.21-9.119-0.385-18.239-0.537-27.359c-0.018-0.882,0.004-1.812,0.262-2.646c0.712-2.366,2.523-3.234,4.859-3.27
		c2.296-0.035,3.383,1.449,3.916,3.357c0.375,1.313,0.488,2.724,0.527,4.099c0.236,9.033,0.415,18.069,0.625,27.111
		c0.021,0.707,0.104,1.423,0.157,2.139c0.248,0.122,0.497,0.235,0.737,0.354c0.55-0.965,1.31-1.868,1.606-2.903
		c2.323-8.041,4.545-16.108,6.828-24.159c0.31-1.082,0.537-2.462,1.306-3.078c1.152-0.93,2.815-1.859,4.146-1.724
		c0.974,0.096,2.292,1.812,2.528,2.99c0.371,1.851,0.257,3.925-0.148,5.784c-1.769,8.103-3.729,16.153-5.588,24.238
		c-0.192,0.873-0.188,1.794-0.271,2.693c0.218,0.083,0.423,0.162,0.637,0.24c0.489-0.664,1.004-1.31,1.449-2
		c3.497-5.396,6.964-10.809,10.482-16.191c0.615-0.947,1.253-2.223,2.17-2.554c1.37-0.498,3.187-0.751,4.461-0.231
		c0.808,0.327,1.511,2.34,1.314,3.431c-0.38,2.109-1.227,4.213-2.248,6.116c-2.729,5.091-5.736,10.028-8.457,15.123
		c-0.851,1.589-1.357,3.449-1.619,5.247c-0.834,5.854-1.14,11.801-2.287,17.59c-0.939,4.754-3.479,8.884-7.125,12.271
		c-0.62,0.563-0.804,1.859-0.764,2.803c0.711,19.697,1.479,39.387,2.234,59.075c0.035,0.813,0.014,1.615,0.014,2.629
		c-9.731,2.549-19.541,3.147-29.543,2.313c-0.013-4.052-0.122-7.937-0.021-11.822c0.467-17.986,1.013-35.978,1.428-53.968
		c0.018-0.887-0.703-2.24-1.471-2.637c-7.287-3.776-11.932-9.701-15.275-17.104c-2.79-6.182-7.252-11.167-13.46-14.337
		c-1.598-0.82-2.649-2.165-2.183-3.916c0.493-1.916,2.126-2.833,4.104-2.82c4.641,0.03,8.867,1.555,12.412,4.427
		C305.465,338.326,308.04,341.265,311.201,344.377z M317.021,342.801c2.017,0.965,4.183,1.721,6.024,2.951
		c1.855,1.235,3.61,2.777,5.033,4.492c1.354,1.638,2.223,3.676,3.484,5.851C330.34,348.123,323.918,342.396,317.021,342.801z"/>
</g>
<g>
	<path fill-rule="evenodd" clip-rule="evenodd" fill="#FFFFFF" d="M70.245,269.961c2.366-8.094,3.353-16.065,0.41-23.98
		c-5.453-14.612-11.285-29.075-16.852-43.644c-1.82-4.776-0.685-8.303,2.89-10.246c4.488-2.432,8.482-0.93,10.918,4.292
		c6.042,12.997,11.997,26.037,18.013,39.042c0.703,1.489,1.58,2.886,2.418,4.396c3.362-1.091,3.794-3.252,3.484-6.051
		c-1.729-15.681-3.392-31.362-5.025-47.053c-0.153-1.519-0.249-3.125,0.061-4.593c0.869-4.195,3.868-5.959,7.889-6.365
		c3.947-0.402,6.046,1.991,7.251,5.195c0.838,2.209,1.249,4.619,1.519,6.981c1.751,15.533,3.414,31.079,5.121,46.621
		c0.144,1.222,0.397,2.44,0.598,3.658c0.437,0.175,0.873,0.34,1.327,0.502c0.79-1.742,1.96-3.41,2.322-5.243
		c2.798-14.197,5.427-28.429,8.164-42.644c0.367-1.912,0.555-4.322,1.786-5.5c1.851-1.772,4.566-3.624,6.889-3.588
		c1.689,0.026,4.217,2.781,4.798,4.776c0.93,3.134,1.035,6.714,0.611,9.989c-1.843,14.223-4.012,28.394-6.003,42.586
		c-0.209,1.541-0.057,3.13-0.074,4.693c0.389,0.105,0.76,0.219,1.135,0.319c0.742-1.218,1.541-2.41,2.209-3.667
		c5.217-9.818,10.377-19.667,15.633-29.464c0.921-1.72,1.82-4.016,3.344-4.719c2.305-1.065,5.392-1.776,7.657-1.069
		c1.454,0.45,2.951,3.811,2.786,5.719c-0.345,3.693-1.48,7.439-2.951,10.875c-3.942,9.172-8.395,18.13-12.311,27.315
		c-1.227,2.864-1.838,6.147-2.013,9.281c-0.559,10.212-0.196,20.506-1.314,30.647c-0.904,8.329-4.671,15.829-10.452,22.203
		c-0.965,1.065-1.096,3.335-0.891,4.959c4.161,33.82,8.439,67.628,12.683,101.439c0.17,1.389,0.253,2.786,0.41,4.532
		c-16.393,5.846-33.196,8.338-50.554,8.395c-0.625-6.984-1.389-13.664-1.799-20.361c-1.882-31.065-3.632-62.14-5.605-93.201
		c-0.105-1.532-1.554-3.75-2.925-4.313c-13.123-5.427-22.012-14.939-28.883-27.193c-5.732-10.237-14.167-18.165-25.325-22.697
		c-2.886-1.17-4.89-3.335-4.353-6.426c0.567-3.37,3.244-5.195,6.653-5.466c7.998-0.637,15.511,1.354,22.046,5.771
		C59.453,260.392,64.325,265.071,70.245,269.961z M80.037,266.377c3.624,1.357,7.461,2.335,10.822,4.182
		c3.383,1.855,6.636,4.243,9.342,6.989c2.58,2.62,4.375,6.007,6.872,9.557C103.773,273.549,91.863,264.652,80.037,266.377z"/>
</g>
<g>
	<path fill-rule="evenodd" clip-rule="evenodd" fill="#FFFFFF" d="M200.231,196.994c4.951-12.704,7.644-25.408,4.003-38.566
		c-6.74-24.295-14.118-48.424-21.038-72.67c-2.27-7.937,0.048-13.455,6.09-16.096c7.579-3.288,13.787-0.31,16.974,8.438
		c7.919,21.785,15.699,43.613,23.579,65.415c0.913,2.488,2.135,4.863,3.288,7.417c5.548-1.288,6.548-4.71,6.439-9.255
		c-0.594-25.508-1.074-51.008-1.515-76.508c-0.035-2.471,0.026-5.064,0.742-7.399c1.982-6.623,7.05-9.041,13.595-9.146
		c6.413-0.096,9.456,4.06,10.953,9.386c1.048,3.667,1.366,7.622,1.467,11.459c0.65,25.264,1.166,50.532,1.746,75.809
		c0.065,2,0.302,3.99,0.454,5.985c0.682,0.336,1.366,0.659,2.057,0.991c1.532-2.698,3.649-5.222,4.483-8.12
		c6.496-22.483,12.713-45.04,19.1-67.554c0.873-3.03,2.117-6.321,3.653-8.609c2.493-3.71,7.549-7.089,11.596-4.819
		c2.379,1.336,6.396,5.064,7.059,8.36c1.057,5.173,0.729,10.966-0.414,16.183c-4.942,22.649-10.416,45.167-15.616,67.763
		c-0.541,2.445-0.523,5.025-0.772,7.544c0.611,0.227,1.205,0.45,1.794,0.672c1.358-1.864,2.82-3.667,4.061-5.605
		c9.771-15.083,19.466-30.223,29.306-45.271c1.716-2.646,4.104-5.239,6.051-7.138c2.633-2.571,8.763-2.864,12.486-0.655
		c2.108,1.253,4.222,6.553,3.68,9.6c-1.073,5.894-3.427,11.778-6.277,17.113c-7.636,14.223-16.057,28.036-23.653,42.277
		c-2.37,4.453-3.802,9.657-4.531,14.677c-2.327,16.371-3.187,33.004-6.404,49.192c-2.624,13.289-9.723,24.84-19.92,34.3
		c-1.721,1.585-2.244,5.208-2.14,7.862c1.991,55.068,4.135,110.128,6.261,165.187c0.087,2.267,0.021,4.523,0.034,7.356
		c-27.232,7.129-54.648,8.797-82.615,6.466c-0.04-11.338-0.328-22.204-0.057-33.057c1.31-50.306,2.833-100.61,3.986-150.92
		c0.057-2.483-1.965-6.26-4.1-7.369c-20.392-10.564-33.379-27.128-42.735-47.834c-7.797-17.279-20.283-31.236-37.623-40.098
		c-4.475-2.288-7.408-6.051-6.125-10.949c1.397-5.352,5.959-7.928,11.49-7.884c12.97,0.083,24.797,4.344,34.707,12.381
		C184.196,180.077,191.382,188.297,200.231,196.994z M216.506,192.593c5.645,2.689,11.696,4.807,16.847,8.251
		c5.19,3.462,10.098,7.762,14.07,12.564c3.789,4.575,6.217,10.277,9.744,16.358C253.741,207.467,235.789,191.462,216.506,192.593z"
		/>
</g>
<g>
	<path fill-rule="evenodd" clip-rule="evenodd" fill="#FFFFFF" d="M446.282,245.077c6.832-4.702,14.712-6.876,23.125-6.282
		c3.589,0.257,6.417,2.152,7.055,5.688c0.581,3.239-1.502,5.536-4.522,6.792c-11.691,4.872-20.476,13.289-26.408,24.104
		c-7.094,12.952-16.345,23.037-30.097,28.86c-1.437,0.611-2.938,2.956-3.025,4.571c-1.776,32.668-3.313,65.354-4.998,98.03
		c-0.371,7.046-1.109,14.074-1.698,21.422c-18.244,0.101-35.934-2.354-53.217-8.343c0.144-1.834,0.223-3.301,0.388-4.768
		c4.139-35.58,8.3-71.164,12.351-106.757c0.196-1.711,0.044-4.091-0.982-5.204c-6.146-6.645-10.172-14.489-11.202-23.233
		c-1.271-10.652-0.995-21.479-1.685-32.209c-0.214-3.292-0.887-6.741-2.196-9.74c-4.213-9.613-8.967-18.986-13.21-28.591
		c-1.576-3.602-2.812-7.53-3.2-11.412c-0.21-2,1.34-5.544,2.863-6.033c2.371-0.768,5.632-0.043,8.063,1.048
		c1.606,0.729,2.571,3.13,3.566,4.933c5.61,10.246,11.133,20.544,16.717,30.817c0.707,1.318,1.559,2.563,2.353,3.837
		c0.389-0.113,0.79-0.227,1.184-0.349c-0.031-1.642,0.117-3.318-0.114-4.924c-2.23-14.909-4.648-29.783-6.723-44.713
		c-0.484-3.44-0.401-7.208,0.546-10.513c0.594-2.104,3.222-5.024,4.989-5.064c2.449-0.057,5.322,1.864,7.287,3.707
		c1.301,1.222,1.515,3.759,1.925,5.767c3.021,14.913,5.915,29.853,8.998,44.748c0.401,1.921,1.637,3.658,2.488,5.492
		c0.472-0.183,0.93-0.358,1.396-0.542c0.192-1.283,0.45-2.566,0.585-3.859c1.65-16.354,3.244-32.708,4.942-49.052
		c0.262-2.484,0.663-5.029,1.519-7.356c1.24-3.379,3.419-5.916,7.584-5.531c4.229,0.393,7.395,2.218,8.351,6.609
		c0.337,1.545,0.258,3.235,0.109,4.837c-1.571,16.506-3.16,33.008-4.833,49.51c-0.292,2.942,0.184,5.212,3.72,6.326
		c0.869-1.598,1.786-3.073,2.497-4.645c6.199-13.734,12.342-27.495,18.567-41.221c2.51-5.509,6.684-7.129,11.434-4.61
		c3.776,2.008,5.007,5.706,3.135,10.739c-5.715,15.367-11.7,30.634-17.288,46.044c-3.017,8.352-1.903,16.716,0.659,25.203
		C435.451,254.018,440.528,249.049,446.282,245.077z M390.726,277.592c2.589-3.759,4.453-7.334,7.133-10.111
		c2.816-2.916,6.217-5.457,9.758-7.443c3.514-1.964,7.535-3.033,11.333-4.5C406.512,253.843,394.061,263.312,390.726,277.592z"/>
</g>
</svg>
