<?xml version="1.0" encoding="utf-8"?>
<!-- Generator: Adobe Illustrator 16.0.0, SVG Export Plug-In . SVG Version: 6.00 Build 0)  -->
<!DOCTYPE svg PUBLIC "-//W3C//DTD SVG 1.1//EN" "http://www.w3.org/Graphics/SVG/1.1/DTD/svg11.dtd">
<svg version="1.1" id="Layer_1" xmlns="http://www.w3.org/2000/svg" xmlns:xlink="http://www.w3.org/1999/xlink" x="0px" y="0px"
	 width="500px" height="500px" viewBox="0 0 500 500" enable-background="new 0 0 500 500" xml:space="preserve">
<g>
	<path fill="#91B6C1" d="M435.297,236.059c0,106.602-86.418,193.01-193.013,193.01c-106.6,0-193.013-86.408-193.013-193.01
		c0-106.597,86.413-193.013,193.013-193.013C348.879,43.046,435.297,129.462,435.297,236.059z"/>
	<g>
		<rect x="215.863" y="423.979" fill="#E6E6E6" width="51.966" height="26.634"/>
		<path fill="#E6E6E6" d="M189.706,451.923c0,2.172,1.764,3.934,3.934,3.934h97.393c2.172,0,3.928-1.762,3.928-3.934
			s-1.756-3.934-3.928-3.934h-97.393C191.469,447.989,189.706,449.751,189.706,451.923
			C189.706,451.923,189.706,449.751,189.706,451.923z"/>
		<path fill="#595558" d="M119.094,420.798c0,4.167,3.375,7.541,7.547,7.541h233.839c4.162,0,7.552-3.374,7.552-7.541V272.113
			c0-4.167-3.39-7.547-7.552-7.547H126.641c-4.172,0-7.547,3.38-7.547,7.547V420.798z"/>
		<path fill="#FFFFFF" d="M126.768,413.804c0,4.177,3.38,7.546,7.546,7.546H353.09c4.167,0,7.542-3.369,7.542-7.546V279.102
			c0-4.167-3.375-7.542-7.542-7.542H134.314c-4.167,0-7.546,3.375-7.546,7.542V413.804z"/>
		<polygon fill="#B3B3B3" points="216.845,428.339 245.555,447.989 267.829,447.989 267.829,428.339 		"/>
		<g>
			<g>
				<path fill="#E6E6E6" d="M269.646,362.408c-4.693-7.841-8.16-14.642-12.748-19.26c-4.593-4.618-8.955-3.121-11.195-0.924
					c-0.916,0.904-1.645,1.253-2.193,1.36c-0.776,0.146-1.354,0.116-2.106,0.025c-0.559-0.062-1.363-0.361-2.411-1.386
					c-2.241-2.197-6.603-3.694-11.191,0.924c-4.585,4.618-8.057,11.419-12.756,19.26c-4.699,7.856-10.518,16.037-8.958,22.386
					c1.569,6.345,5.819,9.228,12.427,8.187c6.6-1.035,9.955-2.421,12.64-0.573c2.687,1.852,5.684,2.629,11.193,2.649
					c6.359-0.066,8.503-0.798,11.185-2.649c2.696-1.848,6.05-0.462,12.652,0.573c6.598,1.041,10.851-1.842,12.419-8.187
					C280.172,378.445,274.346,370.265,269.646,362.408z"/>
				<path fill="#E6E6E6" d="M188.508,345.519c0,0-1.677-7.069-0.239-14.129c1.436-7.055,5.146-10.403,9.575-11.724
					c4.425-1.314,14.004,1.44,16.278,14.845c2.269,13.398-1.677,20.224-5.625,22.854c-3.951,2.633-8.62,2.512-11.132,1.791
					S190.305,354.847,188.508,345.519z"/>
				<path fill="#E6E6E6" d="M209.93,309.973c0,0,0.597-11.606,5.504-16.875c4.908-5.263,10.409-4.675,13.647-3.466
					c3.233,1.192,8.975,5.974,8.615,16.148c-0.363,10.181-1.319,18.072-8.739,21.066c-7.42,2.995-14.834-0.122-17.352-4.435
					C209.095,318.107,209.93,309.973,209.93,309.973z"/>
				<path fill="#E6E6E6" d="M241.525,311.049c0,0-1.558-9.694,2.75-15.443c4.306-5.735,11.729-6.934,18.189-3.34
					c6.461,3.584,10.408,14.356,8.136,23.209c-2.274,8.86-6.385,12.316-12.201,13.164c-5.754,0.832-11.373-2.39-14.124-7.304
					C241.525,316.428,241.525,311.049,241.525,311.049z"/>
				<path fill="#E6E6E6" d="M268.088,346.234c0,0-1.192-9.82,2.757-17.235c3.942-7.42,8.973-8.617,12.321-8.374
					c3.35,0.239,11.368,2.857,12.688,16.032c1.313,13.16-6.345,21.655-13.044,21.899C276.107,358.8,269.402,356.516,268.088,346.234
					z"/>
			</g>
		</g>
	</g>
	<path fill="#5E5F5D" d="M73.349,308.825c0,0-14.905,46.834,20.174,52.685c-7.171-8.45-0.013-3.893,9.409,3.249
		c9.417,7.15,23.279,9.256,30.542,3.572c14.208-11.124,66.301-13.647,93.6-1.948c-22.747-12.023-55.458-10.724-55.458-10.724
		s-14.352,1.299-0.898-6.177c13.457-7.471,11.249-14.286,10.239-17.864c6.796,1.948,2.492,8.343,2.492,8.343
		s7.737-13.236-4.704-23.797C166.3,305.613,73.349,308.825,73.349,308.825z"/>
	<path fill="#FFFFFF" d="M96.192,325.995c0,0-7.456,6.912-1.84,15.93c-0.233-5.847,3.111-5.663,3.111-5.663
		s2.017,16.148,15.426,18.098c-2.926-2.68-3.17-6.582-3.17-6.582s9.75,8.287,25.84,7.806c0,0-6.1-0.731-5.489-5.608
		c0.611-4.878,8.412,0,8.412,0s-2.682-0.137,0-5.187c2.68-5.061,12.601-0.873,14.136-8.526c3.413,1.279,4.027,6.887,4.027,6.887
		s9.272-7.8-1.155-16.337C145.063,318.285,96.192,325.995,96.192,325.995z"/>
	<g>
		<path fill="#F2F2E7" d="M245.563,214.51c0,64.414-51.657,116.63-115.379,116.63c-63.721,0-115.38-52.217-115.38-116.63
			c0-64.408,51.659-116.618,115.38-116.618C193.906,97.893,245.563,150.102,245.563,214.51z"/>
		<path fill="#5E5F5D" d="M234.671,263.911c3.867-9.42,13.07-18.58,13.695-42.448c-0.206,4.182-2.905,9.967-2.905,9.967
			s9.584-36.769-14.848-76.329c4.22-13.114,11.788-43.514,11.788-43.514l-3.065,4.151c0,0,12.041-62.259-11.617-59.353
			c-15.005,1.842-38.848,28.217-54.289,47.269c-7.032-4.039-22.47-11.733-38.367-11.888c4.562,1.244,7.054,3.319,7.054,3.319
			s-12.036-0.622-21.996-10.376c0.411,3.735,3.316,6.019,3.316,6.019s-24.901,0.833-28.633,3.114
			c9.335-0.206,13.901,1.038,13.901,1.038s-9.295,2.373-22.003,8.483c-31.044-38.73-66.849-53.385-72-50.609
			c-5.397,2.906,0,34.034,0,34.034s-1.857-1.949-2.078-4.57c2.01,27.553,11.361,56.684,16.938,72.041
			c-25.343,42.971-22.539,59.11-22.539,59.11s0.186-5.39,5.278-10.161c-0.091,26.766,9.871,57.694,4.474,59.14
			c2.492-0.624,4.981-1.244,4.981-1.244s9.959-1.253,16.603-11.205c6.638-9.963,13.695-23.244,13.695-23.244v9.546
			c0,0,6.016-21.167,5.395-41.295c-0.624-20.133,10.374-38.393,25.109-38.81c14.733-0.411,36.525,15.982,39.012,41.504
			c0.208-13.901-1.657-19.504-1.657-19.504s8.298,10.993,7.884,29.258c3.527-23.863,17.847-37.769,17.847-37.769
			s-5.189,9.13-5.189,12.449c7.262-14.941,19.925-29.669,43.167-25.106c23.238,4.568,19.919,57.272,19.711,65.991
			c-0.208,8.714,9.546,36.931,17.433,39.642c-1.454-2.914-1.659-6.649-1.659-6.649S225.546,263.403,234.671,263.911z"/>
		<path fill="#F4F2E8" d="M34.726,150.184c0,0-23.087-67.613-9.752-78.44C38.306,60.91,80.17,108.268,80.17,108.268
			s-20.544,7.887-24.901,13.693c5.809-3.116,9.335-3.527,9.335-3.527S45.31,128.396,34.726,150.184z"/>
		<path fill="#F4F2E8" d="M178.744,108.061c0,0,31.036-43.766,47.312-35.491c16.279,8.278,0.375,77.614,0.375,77.614
			s-4.524-12.242-10.546-16.393c-6.017-4.151-7.884-10.171-8.092-13.698c-1.244,3.319,1.454,12.657,1.454,12.657
			S203.327,121.027,178.744,108.061z"/>
		<path fill="#050707" d="M100.44,205.106c0,7.262-3.778,13.144-8.44,13.144s-8.44-5.882-8.44-13.144
			c0-7.258,3.778-13.14,8.44-13.14S100.44,197.849,100.44,205.106z"/>
		<path fill="#050707" d="M180.957,205.106c0,7.262-3.778,13.144-8.44,13.144c-4.657,0-8.439-5.882-8.439-13.144
			c0-7.258,3.783-13.14,8.439-13.14C177.178,191.967,180.957,197.849,180.957,205.106z"/>
		<path fill="#FFFFFF" d="M102.932,199.021c0,3.892-2.449,7.054-5.468,7.054c-3.018,0-5.463-3.162-5.463-7.054
			c0-3.898,2.446-7.055,5.463-7.055C100.483,191.967,102.932,195.124,102.932,199.021z"/>
		<path fill="#FFFFFF" d="M183.448,199.021c0,3.892-2.446,7.054-5.466,7.054c-3.014,0-5.466-3.162-5.466-7.054
			c0-3.898,2.452-7.055,5.466-7.055C181.002,191.967,183.448,195.124,183.448,199.021z"/>
		<path fill="#FFFFFF" d="M89.372,205.801c0,1.066-0.371,1.934-0.83,1.934c-0.457,0-0.83-0.868-0.83-1.934
			c0-1.071,0.373-1.938,0.83-1.938C89.001,203.863,89.372,204.73,89.372,205.801z"/>
		<path fill="#FFFFFF" d="M170.717,207.456c0,0.919-0.555,1.66-1.244,1.66c-0.685,0-1.246-0.741-1.246-1.66
			c0-0.913,0.561-1.654,1.246-1.654C170.162,205.801,170.717,206.542,170.717,207.456z"/>
		<path fill="#FFFFFF" d="M172.517,202.203c0,0.305-0.403,0.553-0.898,0.553c-0.497,0-0.901-0.249-0.901-0.553
			c0-0.31,0.404-0.553,0.901-0.553C172.113,201.65,172.517,201.894,172.517,202.203z"/>
		<path fill="#FFFFFF" d="M95.182,209.811c0,0.38-0.37,0.685-0.83,0.685c-0.459,0-0.83-0.305-0.83-0.685
			c0-0.381,0.371-0.696,0.83-0.696C94.812,209.115,95.182,209.43,95.182,209.811z"/>
		<path fill="#050707" d="M153.208,284.323c-8.939,4.12-18.348,4.577-21.429-6.283c-1.013-3.563-1.271-7.512-1.038-11.298
			c20.252-2.298,23.921-17.193,23.099-20.685c-0.83-3.532-11.828-10.587-28.223-9.958c3.53,0.615,3.53,2.071,3.53,2.071
			s-25.228-1.426-24.076,10.374c3.354,13.464,15.37,17.001,21.48,17.931c0.228,3.669-0.021,7.409-0.837,10.947
			c-2.619,11.356-12.484,11.099-21.584,6.901c-1.738-0.797-3.258,1.776-1.51,2.588c8.861,4.08,19.818,5.75,24.622-4.694
			c0.609-1.334,1.083-2.741,1.455-4.202c0.332,1.319,0.738,2.614,1.25,3.847c4.522,10.811,15.86,9.15,24.771,5.05
			C156.464,286.1,154.947,283.526,153.208,284.323z"/>
		<path fill="#1A1A1A" d="M120.223,247.3c0,0,7.886,3.949,21.374,0c-8.3,0.417-10.79,0.417-8.716-1.451
			C134.956,243.981,112.336,243.565,120.223,247.3z"/>
	</g>
	<path fill="#CFC096" d="M319.585,333.399c0,0-10.517,10.724-1.847,25.594c8.678,14.869-50.234,25.106-63.678,14.869
		c19.214,13.647,90.88,24.351,96.727,4.131c5.846-20.224,9.286-4.241,20.472-18.234c7.623-9.531,24.945-3.578,23.686-15.215
		C393.687,332.907,319.585,333.399,319.585,333.399z"/>
	<g>
		<path fill="#735A4B" d="M475.491,273.361c0,50.634-51.938,72.924-106.227,72.924c-59.714,0-109.921-27.573-109.921-78.218
			c0-55.486,55.633-105.166,109.921-105.166C423.554,162.901,475.491,215.221,475.491,273.361z"/>
		<path fill="#CFC096" d="M271.392,306.724c4.629,2.731-2.01-43.143,9.623-67.452c-1.594,7.922,0,11.099,0,11.099
			s1.847-42.28,60.241-54.699c58.399-12.423,102.263,24.843,105.166,40.956c0.269-5.547-2.111-12.155-2.111-12.155
			s22.746,23.366,20.879,83.684c9.511-16.835,13.738-32.426,12.413-42.728c-0.264,3.04-1.188,6.871-1.188,6.871
			s3.035-23.654-9.378-47.959c11.362-18.367,16.118-37.525,16.118-37.525s-2.243,5.415-3.969,3.441
			c4.628-10.571,9.521-43.864,8.587-52.192c-0.924-8.317,3.44-11.627,3.44-11.627l-3.969,2.249l0.264-3.04
			c0,0-25.755,9.779-35.007,19.158c0.264-1.583,2.116-4.623,2.116-4.623s-28.01,25.365-36.597,35.673
			c-23.062-12.485-32.968-14.672-45.255-15.855c-12.287-1.192-17.24-4.958-17.24-4.958l6.142,4.958c0,0-18.428-0.396-45.976,15.657
			c-13.079-18.235-32.698-31.511-32.698-31.511l1.979,3.766c0,0-20.609-13.677-29.328-15.459
			c-8.719-1.781-13.082-4.364-13.082-4.364l4.758,4.562l-3.37-0.594c0,0,1.982,12.287,3.565,25.563
			c1.588,13.276,11.096,45.782,14.466,50.934c-4.161-4.162-6.338-6.735-6.338-6.735s10.835,21.066,11.89,22.392
			c-4.953,12.287-10.083,26.142-9.114,36.267c-0.994-1.584-2.38-4.958-2.38-4.958S256.421,297.878,271.392,306.724z"/>
		<path fill="#735A4B" d="M278.502,216.018c0,0-28.275-50.736-14.535-62.626c13.744-11.891,49.015,31.313,49.015,31.313
			S297.793,190.779,278.502,216.018z"/>
		<path fill="#735A4B" d="M426.08,185.958c0,0,34.876-38.845,45.777-33.491c10.901,5.355-16.057,69.361-16.057,69.361
			S450.649,206.766,426.08,185.958z"/>
		<path fill="#050707" d="M431.892,247.498c0,0-35.937-15.073-44.393,21.133C417.093,282.105,429.511,259.912,431.892,247.498z"/>
		<path fill="#050707" d="M301.889,247.498c0,0,35.937-15.073,44.392,21.133C316.682,282.105,304.269,259.912,301.889,247.498z"/>
		<path fill="#FFFFFF" d="M332.272,252.522c0,3.359-2.253,6.09-5.024,6.09c-2.771,0-5.015-2.73-5.015-6.09
			c0-3.36,2.244-6.085,5.015-6.085C330.02,246.438,332.272,249.163,332.272,252.522z"/>
		<path fill="#FFFFFF" d="M411.281,252.522c0,3.359-2.247,6.09-5.024,6.09c-2.771,0-5.014-2.73-5.014-6.09
			c0-3.36,2.243-6.085,5.014-6.085C409.034,246.438,411.281,249.163,411.281,252.522z"/>
		<path fill="#FFFFFF" d="M319.585,256.877c0,0.959-0.406,1.735-0.919,1.735c-0.512,0-0.928-0.776-0.928-1.735
			c0-0.954,0.416-1.721,0.928-1.721C319.179,255.156,319.585,255.923,319.585,256.877z"/>
		<path fill="#FFFFFF" d="M417.626,256.877c0,0.959-0.478,1.735-1.062,1.735c-0.583,0-1.056-0.776-1.056-1.735
			c0-0.954,0.473-1.721,1.056-1.721C417.148,255.156,417.626,255.923,417.626,256.877z"/>
		<path fill="#FFFFFF" d="M414.185,261.764c0,0.29-0.233,0.523-0.528,0.523c-0.294,0-0.527-0.233-0.527-0.523
			c0-0.289,0.233-0.527,0.527-0.527C413.951,261.236,414.185,261.475,414.185,261.764z"/>
		<path fill="#FFFFFF" d="M329.364,263.21c0,0.519-0.116,0.93-0.269,0.93c-0.142,0-0.259-0.411-0.259-0.93
			c0-0.507,0.117-0.923,0.259-0.923C329.248,262.287,329.364,262.703,329.364,263.21z"/>
		<path fill="#050707" d="M325.138,304.959c0,0,8.059,30.263,34.881,14.798c5.02,5.821,11.835,3,13.891-0.3
			c6.998,8.588,31.293,7.572,35.125-14.498c0,0-6.345,18.239-22.204,15.336c-15.845-2.912-22.188-16.656-15.317-20.62
			c6.872-3.958,10.435-5.156,9.512-8.054c-0.924-2.908-9.907-3.046-13.941-3.172c-4.024-0.132-15.982,0.751-14.2,4.496
			c2.644,5.542,7.668,4.75,10.308,8.323c1.878,2.548-1.451,21.265-18.499,19.682C327.654,319.362,325.138,304.959,325.138,304.959z"
			/>
		<path fill="#050707" d="M247.552,288.434c0,0,1.545-0.283,4.272-0.664c2.724-0.361,6.615-0.909,11.315-1.324
			c4.699-0.412,10.19-0.899,16.088-1.077c5.888-0.192,12.19-0.254,18.494-0.065c6.298,0.259,12.586,0.781,18.453,1.593
			c2.928,0.396,5.749,0.909,8.399,1.493c2.653,0.578,5.141,1.218,7.404,1.907c2.284,0.65,4.319,1.432,6.096,2.157
			c0.882,0.396,1.705,0.757,2.471,1.092c0.736,0.381,1.421,0.73,2.03,1.045c1.248,0.594,2.121,1.253,2.751,1.629
			c0.618,0.396,0.954,0.609,0.954,0.609s-0.351-0.178-1.005-0.518c-0.66-0.325-1.594-0.857-2.868-1.386
			c-0.629-0.264-1.324-0.559-2.075-0.888c-0.781-0.274-1.614-0.573-2.512-0.898c-1.813-0.589-3.862-1.213-6.137-1.781
			c-4.526-1.183-9.922-2.056-15.732-2.786c-5.806-0.726-12.049-1.143-18.301-1.325c-6.253-0.264-12.515-0.305-18.382-0.193
			c-5.867,0.112-11.358,0.239-16.047,0.482c-4.7,0.239-8.621,0.412-11.36,0.609C249.12,288.333,247.552,288.434,247.552,288.434z"/>
		<path fill="#050707" d="M240.348,322.062c0,0,1.418-0.671,3.943-1.761c2.535-1.065,6.143-2.629,10.566-4.269
			c4.426-1.635,9.587-3.553,15.226-5.299c5.638-1.735,11.693-3.456,17.823-4.942c6.141-1.421,12.348-2.579,18.215-3.34
			c2.934-0.4,5.79-0.645,8.501-0.781c2.71-0.143,5.278-0.188,7.643-0.117c2.375,0.025,4.548,0.238,6.445,0.473
			c0.954,0.142,1.848,0.279,2.669,0.4c0.817,0.168,1.563,0.325,2.244,0.468c1.35,0.247,2.375,0.648,3.08,0.852
			c0.7,0.214,1.081,0.33,1.081,0.33s-0.386-0.081-1.106-0.229c-0.73-0.142-1.767-0.421-3.126-0.579
			c-0.68-0.091-1.432-0.197-2.243-0.31c-0.822-0.064-1.711-0.131-2.659-0.207c-1.903-0.086-4.05-0.147-6.385-0.097
			c-4.685,0.051-10.12,0.639-15.915,1.477c-5.797,0.828-11.927,2.076-17.997,3.553c-6.101,1.391-12.149,3.01-17.777,4.664
			c-5.634,1.66-10.892,3.229-15.357,4.71c-4.464,1.472-8.202,2.674-10.79,3.593C241.832,321.554,240.348,322.062,240.348,322.062z"
			/>
		<path fill="#050707" d="M254.061,346.468c0,0,1.271-0.924,3.558-2.451c2.305-1.502,5.572-3.685,9.623-6.096
			c4.06-2.4,8.795-5.228,14.027-7.952c5.227-2.726,10.881-5.502,16.636-8.064c5.79-2.502,11.683-4.766,17.321-6.567
			c2.817-0.914,5.577-1.68,8.222-2.299c2.634-0.64,5.151-1.137,7.501-1.492c2.334-0.406,4.501-0.579,6.425-0.695
			c0.959-0.036,1.862-0.062,2.695-0.092c0.832,0.025,1.594,0.046,2.283,0.056c1.381,0,2.457,0.224,3.187,0.285
			c0.731,0.086,1.128,0.132,1.128,0.132s-0.396-0.005-1.138-0.025c-0.735-0.005-1.806-0.092-3.177,0
			c-0.68,0.025-1.441,0.056-2.263,0.097c-0.822,0.076-1.706,0.172-2.649,0.269c-1.889,0.254-4.01,0.578-6.304,1.05
			c-4.588,0.904-9.835,2.457-15.377,4.319c-5.553,1.868-11.358,4.192-17.073,6.745c-5.745,2.467-11.403,5.146-16.646,7.79
			c-5.237,2.648-10.129,5.136-14.251,7.39c-4.13,2.253-7.592,4.104-9.967,5.471C255.426,345.696,254.061,346.468,254.061,346.468z"
			/>
		<path fill="#050707" d="M338.109,303.918c0,0.549-0.447,1-0.995,1c-0.549,0-1.005-0.451-1.005-1s0.456-0.994,1.005-0.994
			C337.662,302.924,338.109,303.369,338.109,303.918z"/>
		<path fill="#050707" d="M346.985,310.987c0,0.549-0.446,0.995-0.995,0.995c-0.554,0-1.004-0.446-1.004-0.995
			c0-0.554,0.45-1.004,1.004-1.004C346.539,309.983,346.985,310.434,346.985,310.987z"/>
		<path fill="#050707" d="M346.666,296.482c0,0.559-0.452,1-1.006,1c-0.547,0-0.994-0.441-0.994-1c0-0.543,0.447-0.994,0.994-0.994
			C346.214,295.488,346.666,295.939,346.666,296.482z"/>
		<path fill="#050707" d="M485.541,288.434c0,0-1.564-0.101-4.314-0.289c-2.73-0.197-6.658-0.37-11.358-0.609
			c-4.688-0.243-10.18-0.37-16.047-0.482c-5.867-0.111-12.13-0.07-18.382,0.193c-6.247,0.183-12.485,0.6-18.302,1.325
			c-5.806,0.73-11.2,1.604-15.732,2.786c-2.273,0.568-4.324,1.192-6.131,1.781c-0.893,0.325-1.735,0.624-2.507,0.898
			c-0.761,0.329-1.457,0.624-2.085,0.888c-1.275,0.528-2.198,1.061-2.863,1.386c-0.654,0.34-1.01,0.518-1.01,0.518
			s0.335-0.213,0.954-0.609c0.64-0.376,1.507-1.035,2.756-1.634c0.613-0.31,1.289-0.659,2.03-1.04
			c0.761-0.335,1.589-0.695,2.471-1.092c1.776-0.726,3.812-1.507,6.086-2.157c2.269-0.689,4.755-1.329,7.414-1.907
			c2.649-0.584,5.466-1.097,8.399-1.493c5.861-0.812,12.154-1.334,18.448-1.593c6.304-0.188,12.601-0.127,18.499,0.065
			c5.902,0.178,11.383,0.665,16.082,1.077c4.7,0.415,8.598,0.963,11.318,1.324C483.987,288.15,485.541,288.434,485.541,288.434z"/>
		<path fill="#050707" d="M492.741,322.062c0,0-1.487-0.508-4.079-1.411c-2.584-0.919-6.319-2.121-10.79-3.593
			c-4.467-1.481-9.725-3.05-15.353-4.71c-5.634-1.654-11.683-3.273-17.783-4.664c-6.075-1.477-12.21-2.725-17.996-3.553
			c-5.796-0.838-11.231-1.426-15.915-1.477c-2.335-0.051-4.481,0.011-6.385,0.097c-0.948,0.076-1.837,0.143-2.655,0.207
			c-0.821,0.112-1.567,0.219-2.242,0.31c-1.365,0.158-2.4,0.438-3.126,0.579c-0.726,0.147-1.112,0.229-1.112,0.229
			s0.376-0.116,1.082-0.33c0.705-0.203,1.73-0.604,3.08-0.852c0.68-0.143,1.426-0.3,2.243-0.468c0.822-0.121,1.716-0.259,2.664-0.4
			c1.903-0.234,4.081-0.447,6.451-0.473c2.364-0.071,4.933-0.025,7.643,0.117c2.71,0.137,5.567,0.381,8.496,0.781
			c5.876,0.761,12.078,1.919,18.22,3.34c6.125,1.486,12.189,3.207,17.823,4.942c5.639,1.746,10.8,3.664,15.226,5.299
			c4.425,1.64,8.028,3.203,10.566,4.269C491.325,321.391,492.741,322.062,492.741,322.062z"/>
		<path fill="#050707" d="M479.029,346.468c0,0-1.365-0.771-3.756-2.132c-2.381-1.366-5.842-3.218-9.973-5.471
			c-4.121-2.254-9.008-4.751-14.251-7.39c-5.248-2.645-10.901-5.323-16.646-7.79c-5.715-2.553-11.521-4.877-17.073-6.745
			c-5.542-1.867-10.79-3.415-15.377-4.319c-2.294-0.472-4.416-0.796-6.304-1.05c-0.943-0.097-1.827-0.192-2.649-0.269
			c-0.822-0.041-1.578-0.071-2.263-0.097c-1.371-0.092-2.441-0.005-3.178,0c-0.74,0.021-1.137,0.025-1.137,0.025
			s0.396-0.046,1.126-0.132c0.731-0.062,1.807-0.285,3.188-0.285c0.689-0.01,1.451-0.03,2.283-0.056
			c0.827,0.03,1.735,0.056,2.695,0.092c1.923,0.116,4.091,0.289,6.43,0.695c2.34,0.355,4.857,0.853,7.496,1.492
			c2.645,0.619,5.409,1.385,8.222,2.299c5.639,1.802,11.524,4.065,17.321,6.567c5.755,2.563,11.408,5.339,16.636,8.064
			c5.237,2.725,9.967,5.552,14.022,7.952c4.055,2.411,7.323,4.594,9.627,6.096C477.761,345.544,479.029,346.468,479.029,346.468z"/>
		<path fill="#050707" d="M394.98,303.918c0,0.549,0.446,1,0.995,1c0.554,0,1.004-0.451,1.004-1s-0.45-0.994-1.004-0.994
			C395.427,302.924,394.98,303.369,394.98,303.918z"/>
		<path fill="#050707" d="M386.104,310.987c0,0.549,0.452,0.995,1.001,0.995c0.547,0,0.994-0.446,0.994-0.995
			c0-0.554-0.447-1.004-0.994-1.004C386.556,309.983,386.104,310.434,386.104,310.987z"/>
		<path fill="#050707" d="M386.424,296.482c0,0.559,0.457,1,1.006,1c0.547,0,0.994-0.441,0.994-1c0-0.543-0.447-0.994-0.994-0.994
			C386.881,295.488,386.424,295.939,386.424,296.482z"/>
	</g>
</g>
</svg>
