<?xml version="1.0" encoding="utf-8"?>
<!-- Generator: Adobe Illustrator 16.0.0, SVG Export Plug-In . SVG Version: 6.00 Build 0)  -->
<!DOCTYPE svg PUBLIC "-//W3C//DTD SVG 1.1//EN" "http://www.w3.org/Graphics/SVG/1.1/DTD/svg11.dtd">
<svg version="1.1" id="Layer_1" xmlns="http://www.w3.org/2000/svg" xmlns:xlink="http://www.w3.org/1999/xlink" x="0px" y="0px"
	 width="500px" height="500px" viewBox="0 0 500 500" enable-background="new 0 0 500 500" xml:space="preserve">
<g>
	<g>
		<path fill="#21939D" d="M437.102,279.498c0,106.718-86.416,193.218-193.017,193.218c-106.604,0-193.021-86.5-193.021-193.218
			c0-106.703,86.416-193.213,193.021-193.213C350.686,86.285,437.102,172.795,437.102,279.498z"/>
		<g>
			<path fill="#666666" d="M394.167,158.055c-0.498-0.619-0.981-1.247-1.493-1.86C393.181,156.808,393.669,157.436,394.167,158.055z
				"/>
			<path fill="#666666" d="M375.027,137.592c-0.744-0.69-1.494-1.376-2.252-2.058C373.533,136.216,374.283,136.901,375.027,137.592z
				"/>
			<path fill="#666666" d="M387.118,149.772c-0.36-0.399-0.737-0.776-1.101-1.171C386.381,148.996,386.758,149.377,387.118,149.772z
				"/>
			<path fill="#666666" d="M303.203,95.555c-0.972-0.314-1.941-0.628-2.923-0.925C301.262,94.927,302.231,95.241,303.203,95.555z"/>
			<path fill="#666666" d="M51.651,293.89c-0.117-1.574-0.264-3.141-0.345-4.723C51.387,290.749,51.535,292.315,51.651,293.89z"/>
			<path fill="#666666" d="M409.399,179.737c-0.397-0.659-0.813-1.3-1.22-1.951C408.586,178.437,409.002,179.079,409.399,179.737z"
				/>
			<path fill="#666666" d="M404.784,172.49c-0.554-0.838-1.13-1.667-1.698-2.498C403.654,170.823,404.23,171.652,404.784,172.49z"/>
			<path fill="#666666" d="M319.679,101.681c-0.716-0.305-1.447-0.588-2.169-0.884C318.231,101.093,318.963,101.376,319.679,101.681
				z"/>
			<path fill="#666666" d="M329.025,105.986c-0.501-0.247-0.996-0.511-1.502-0.758C328.029,105.475,328.524,105.739,329.025,105.986
				z"/>
			<path fill="#666666" d="M311.598,98.465c-0.949-0.359-1.91-0.695-2.864-1.036C309.688,97.771,310.648,98.106,311.598,98.465z"/>
			<path fill="#666666" d="M337.734,110.556c-0.844-0.471-1.687-0.951-2.538-1.409C336.048,109.605,336.891,110.085,337.734,110.556
				z"/>
			<path fill="#666666" d="M359.717,124.785c-0.053-0.041-0.107-0.085-0.162-0.126C359.609,124.699,359.664,124.744,359.717,124.785
				z"/>
			<path fill="#666666" d="M345.376,115.031c-0.87-0.538-1.745-1.067-2.624-1.587C343.631,113.964,344.506,114.493,345.376,115.031z
				"/>
			<path fill="#666666" d="M414.478,188.715c-0.277-0.516-0.533-1.045-0.815-1.561C413.944,187.67,414.2,188.199,414.478,188.715z"
				/>
			<path fill="#666666" d="M352.61,119.717c-0.737-0.502-1.49-0.982-2.234-1.476C351.12,118.735,351.873,119.215,352.61,119.717z"/>
			<path fill="#666666" d="M368.327,131.677c-0.69-0.583-1.378-1.175-2.076-1.749C366.949,130.502,367.637,131.094,368.327,131.677z
				"/>
			<path fill="#666666" d="M58.948,334.165c-0.816-2.771-1.574-5.57-2.27-8.391C57.369,328.6,58.131,331.394,58.948,334.165z"/>
			<path fill="#666666" d="M433.928,244.736c-0.644-3.526-1.37-7.015-2.2-10.467l0,0
				C432.558,237.721,433.279,241.214,433.928,244.736z"/>
			<path fill="#666666" d="M56.473,324.887c-0.638-2.637-1.229-5.286-1.759-7.965C55.239,319.601,55.835,322.25,56.473,324.887z"/>
			<path fill="#666666" d="M418.85,197.469c-0.416-0.887-0.826-1.775-1.252-2.655C418.023,195.693,418.434,196.582,418.85,197.469z"
				/>
			<path fill="#4D4D4D" d="M278.894,469.524c11.578-2.112,22.799-5.247,33.559-9.318c0.03-0.014,0.057-0.027,0.083-0.037
				c3.373-1.277,6.695-2.663,9.975-4.126c0.457-0.201,0.91-0.412,1.362-0.617c2.979-1.351,5.911-2.781,8.804-4.279
				c0.408-0.21,0.82-0.413,1.228-0.628c6.616-3.488,13.017-7.335,19.15-11.547h-10.297V284.213h-75.823v187.109
				c3.889-0.456,7.74-1.04,11.552-1.726C278.62,469.568,278.759,469.547,278.894,469.524z"/>
			<path fill="#666666" d="M257.87,472.175c-3.019,0.21-6.054,0.35-9.113,0.426C251.812,472.524,254.852,472.385,257.87,472.175z"/>
			<path fill="#666666" d="M68.352,359.407c1.152,2.534,2.359,5.042,3.614,7.517c0.041,0.072,0.077,0.147,0.112,0.22
				c10.306,20.233,24.06,38.4,40.495,53.733c0.013,0.013,0.031,0.027,0.044,0.04c1.893,1.762,3.83,3.48,5.79,5.172
				c0.256,0.214,0.507,0.439,0.762,0.658c1.853,1.573,3.741,3.111,5.655,4.62c0.372,0.295,0.744,0.59,1.125,0.882
				c1.865,1.449,3.758,2.861,5.682,4.243c0.43,0.313,0.861,0.619,1.296,0.923c1.924,1.364,3.87,2.69,5.843,3.978
				c0.426,0.279,0.853,0.547,1.278,0.82c2.022,1.297,4.063,2.565,6.135,3.79c0.345,0.207,0.695,0.399,1.041,0.602
				c2.188,1.272,4.394,2.52,6.637,3.708c0.018,0.01,0.031,0.017,0.049,0.027V241.888H64.939v109.537
				c1.054,2.624,2.161,5.221,3.323,7.786C68.293,359.272,68.325,359.342,68.352,359.407z"/>
			<path fill="#666666" d="M355.904,436.94c27.98-19.947,50.407-47.168,64.531-78.918c0.024-0.05,0.046-0.094,0.069-0.144
				c1.133-2.561,2.214-5.152,3.242-7.772c0.047-0.13,0.102-0.261,0.151-0.39c1.01-2.584,1.961-5.192,2.86-7.829
				c0.051-0.152,0.101-0.307,0.152-0.458c0.895-2.645,1.738-5.314,2.518-8.01c0.03-0.116,0.062-0.232,0.097-0.35
				c0.795-2.754,1.532-5.533,2.202-8.336v-90.466c-0.424-1.772-0.872-3.533-1.339-5.292c-0.598-2.224-1.207-4.449-1.881-6.636
				c-0.034-0.109-0.062-0.216-0.094-0.323c-0.005-0.013-0.013-0.033-0.013-0.045h-72.316v62.241h-0.181V436.94z"/>
			<path fill="#666666" d="M257.914,472.17c3.027-0.214,6.032-0.493,9.02-0.848l0,0C263.946,471.677,260.937,471.956,257.914,472.17
				z"/>
			<path fill="#666666" d="M425.625,213.766c-0.304-0.848-0.636-1.682-0.955-2.524C424.989,212.084,425.321,212.918,425.625,213.766
				z"/>
			<path fill="#666666" d="M422.455,205.618c-0.396-0.951-0.799-1.897-1.205-2.843C421.656,203.72,422.059,204.667,422.455,205.618z
				"/>
			<path fill="#666666" d="M431.728,324.734c0.83-3.454,1.557-6.942,2.2-10.467C433.279,317.786,432.558,321.28,431.728,324.734
				L431.728,324.734z"/>
			<path fill="#666666" d="M54.4,315.165c-0.453-2.414-0.883-4.839-1.246-7.288C53.517,310.326,53.952,312.748,54.4,315.165z"/>
			<path fill="#4D4D4D" d="M178.952,461.412c0.704,0.251,1.427,0.479,2.134,0.721c2.49,0.861,4.996,1.688,7.53,2.45
				c1.018,0.3,2.045,0.582,3.068,0.869c2.259,0.638,4.534,1.241,6.83,1.798c1.169,0.283,2.349,0.553,3.529,0.816
				c2.188,0.489,4.395,0.932,6.609,1.347c1.252,0.232,2.502,0.466,3.767,0.672c2.211,0.367,4.44,0.677,6.678,0.969
				c1.255,0.161,2.507,0.341,3.771,0.479c2.395,0.262,4.807,0.45,7.224,0.624c1.113,0.081,2.216,0.193,3.333,0.256
				c3.529,0.193,7.081,0.304,10.659,0.304c1.557,0,3.09-0.08,4.638-0.115V272.763H159.75v180.568l0,0
				C165.969,456.357,172.383,459.053,178.952,461.412z"/>
			<path fill="#666666" d="M399.791,165.352c-0.602-0.817-1.198-1.633-1.809-2.436C398.593,163.719,399.189,164.535,399.791,165.352
				z"/>
			<path fill="#666666" d="M434.124,245.86c0.548,3.096,1.011,6.221,1.407,9.359C435.136,252.076,434.672,248.956,434.124,245.86z"
				/>
			<path fill="#666666" d="M435.793,257.283c0.336,2.892,0.582,5.807,0.789,8.74C436.377,263.09,436.124,260.175,435.793,257.283z"
				/>
			<path fill="#666666" d="M436.769,268.489c0.207,3.642,0.333,7.31,0.333,11.009C437.102,275.804,436.976,272.135,436.769,268.489z
				"/>
			<path fill="#666666" d="M265.521,87.5c-1.067-0.121-2.135-0.233-3.207-0.332C263.387,87.268,264.454,87.38,265.521,87.5z"/>
			<path fill="#666666" d="M256.072,86.693c-0.956-0.058-1.902-0.134-2.861-0.18C254.166,86.56,255.116,86.635,256.072,86.693z"/>
			<path fill="#666666" d="M379.185,141.557c0.69,0.676,1.38,1.345,2.057,2.031C380.564,142.902,379.875,142.233,379.185,141.557z"
				/>
			<path fill="#666666" d="M52.777,304.904c-0.273-2.085-0.555-4.171-0.767-6.279C52.222,300.733,52.503,302.819,52.777,304.904z"/>
			<path fill="#666666" d="M59.032,334.452c1.709,5.781,3.687,11.439,5.907,16.973l0,0
				C62.719,345.888,60.746,340.228,59.032,334.452z"/>
			<path fill="#666666" d="M436.582,292.976c-0.207,2.928-0.453,5.853-0.789,8.744C436.124,298.823,436.377,295.908,436.582,292.976
				z"/>
			<path fill="#666666" d="M437.102,279.498c0,3.7-0.126,7.368-0.333,11.016C436.976,286.862,437.102,283.198,437.102,279.498z"/>
			<path fill="#666666" d="M435.531,303.778c-0.396,3.144-0.859,6.27-1.407,9.362C434.672,310.043,435.136,306.922,435.531,303.778z
				"/>
			<path fill="#666666" d="M353.054,438.972L353.054,438.972c0.964-0.659,1.901-1.354,2.851-2.031l0,0
				C354.955,437.617,354.018,438.313,353.054,438.972z"/>
			<path fill="#666666" d="M274.507,88.694c-0.999-0.158-1.999-0.292-3-0.436C272.508,88.402,273.508,88.536,274.507,88.694z"/>
			<path fill="#666666" d="M283.244,90.272c-0.557-0.116-1.118-0.206-1.669-0.314C282.126,90.066,282.688,90.156,283.244,90.272z"/>
			<path fill="#666666" d="M294.122,92.882c-0.771-0.211-1.538-0.436-2.313-0.632C292.584,92.447,293.352,92.671,294.122,92.882z"/>
			<path fill="#666666" d="M291.809,92.25c-2.829-0.722-5.687-1.387-8.564-1.978C286.122,90.863,288.979,91.528,291.809,92.25z"/>
			<path fill="#666666" d="M421.25,202.774c-0.773-1.781-1.574-3.552-2.4-5.306C419.676,199.222,420.477,200.994,421.25,202.774z"/>
			<path fill="#666666" d="M300.28,94.63c-2.035-0.618-4.091-1.196-6.158-1.748C296.189,93.434,298.245,94.012,300.28,94.63z"/>
			<path fill="#666666" d="M424.67,211.241c-0.712-1.888-1.444-3.763-2.215-5.624C423.226,207.478,423.958,209.354,424.67,211.241z"
				/>
			<path fill="#666666" d="M54.714,316.922c-0.112-0.584-0.206-1.171-0.313-1.757C54.512,315.751,54.598,316.338,54.714,316.922z"/>
			<path fill="#666666" d="M335.196,109.147c-2.036-1.09-4.095-2.139-6.171-3.161C331.102,107.008,333.16,108.057,335.196,109.147z"
				/>
			<path fill="#666666" d="M248.722,472.601c0.014,0,0.022,0,0.035,0C248.745,472.601,248.736,472.601,248.722,472.601
				L248.722,472.601z"/>
			<path fill="#666666" d="M327.523,105.228c-2.584-1.237-5.198-2.421-7.845-3.547C322.325,102.806,324.939,103.99,327.523,105.228z
				"/>
			<path fill="#666666" d="M317.51,100.797c-1.956-0.807-3.925-1.591-5.912-2.332C313.585,99.206,315.554,99.99,317.51,100.797z"/>
			<path fill="#666666" d="M308.733,97.43c-1.83-0.655-3.674-1.279-5.53-1.875C305.06,96.151,306.903,96.774,308.733,97.43z"/>
			<path fill="#666666" d="M52.01,298.625c-0.152-1.569-0.242-3.156-0.358-4.735C51.768,295.469,51.858,297.056,52.01,298.625z"/>
			<path fill="#666666" d="M56.678,325.774c-0.076-0.292-0.134-0.593-0.206-0.888C56.544,325.182,56.603,325.482,56.678,325.774z"/>
			<path fill="#666666" d="M257.914,472.17c-0.018,0-0.031,0-0.044,0.005C257.883,472.17,257.896,472.17,257.914,472.17z"/>
			<path fill="#666666" d="M59.032,334.452c-0.031-0.095-0.053-0.192-0.084-0.287C58.979,334.26,59.001,334.357,59.032,334.452z"/>
			<path fill="#666666" d="M153.911,450.34L153.911,450.34c1.933,1.022,3.87,2.031,5.839,2.991l0,0
				C157.781,452.371,155.844,451.362,153.911,450.34z"/>
			<path fill="#666666" d="M53.154,307.877c-0.144-0.982-0.248-1.981-0.377-2.973C52.907,305.896,53.01,306.895,53.154,307.877z"/>
			<path fill="#666666" d="M51.306,289.167c-0.157-3.202-0.242-6.427-0.242-9.669C51.064,282.74,51.149,285.965,51.306,289.167z"/>
			<path fill="#666666" d="M425.625,213.766c0.979,2.708,1.915,5.439,2.776,8.207l0,0
				C427.54,219.205,426.604,216.474,425.625,213.766z"/>
			<path fill="#666666" d="M253.211,86.514c-3.027-0.139-6.063-0.229-9.126-0.229C247.148,86.285,250.184,86.375,253.211,86.514z"/>
			<path fill="#666666" d="M381.241,143.588c1.625,1.641,3.213,3.314,4.776,5.013C384.454,146.903,382.866,145.229,381.241,143.588z
				"/>
			<path fill="#666666" d="M379.185,141.557c-1.367-1.341-2.749-2.664-4.157-3.965C376.436,138.893,377.817,140.216,379.185,141.557
				z"/>
			<path fill="#666666" d="M397.982,162.916c-1.242-1.646-2.52-3.26-3.815-4.861C395.463,159.656,396.74,161.271,397.982,162.916z"
				/>
			<path fill="#666666" d="M342.752,113.443c-1.654-0.991-3.328-1.951-5.018-2.888C339.424,111.492,341.098,112.452,342.752,113.443
				z"/>
			<path fill="#666666" d="M392.674,156.194c-1.809-2.18-3.654-4.324-5.556-6.422C389.02,151.871,390.865,154.015,392.674,156.194z"
				/>
			<path fill="#666666" d="M359.555,124.659c-2.273-1.699-4.596-3.34-6.944-4.941C354.959,121.318,357.281,122.959,359.555,124.659z
				"/>
			<path fill="#666666" d="M366.251,129.929c-2.144-1.758-4.318-3.477-6.534-5.144C361.933,126.448,364.107,128.17,366.251,129.929z
				"/>
			<path fill="#666666" d="M262.314,87.169c-2.071-0.197-4.153-0.346-6.242-0.476C258.161,86.823,260.243,86.976,262.314,87.169z"/>
			<path fill="#666666" d="M372.775,135.534c-1.462-1.31-2.946-2.587-4.448-3.857C369.829,132.941,371.313,134.225,372.775,135.534z
				"/>
			<path fill="#666666" d="M350.376,118.242c-1.65-1.094-3.314-2.166-5-3.211C347.062,116.076,348.726,117.148,350.376,118.242z"/>
			<path fill="#666666" d="M281.575,89.958c-2.342-0.462-4.695-0.888-7.068-1.264C276.88,89.07,279.233,89.496,281.575,89.958z"/>
			<path fill="#666666" d="M408.18,177.787c-1.106-1.785-2.232-3.552-3.396-5.296C405.947,174.235,407.073,176.002,408.18,177.787z"
				/>
			<path fill="#666666" d="M413.662,187.155c-1.365-2.507-2.79-4.982-4.263-7.417C410.872,182.173,412.297,184.648,413.662,187.155z
				"/>
			<path fill="#666666" d="M417.598,194.814c-1.005-2.054-2.049-4.085-3.12-6.099C415.549,190.729,416.593,192.76,417.598,194.814z"
				/>
			<path fill="#666666" d="M271.507,88.258c-1.985-0.283-3.981-0.538-5.985-0.758C267.525,87.721,269.521,87.976,271.507,88.258z"/>
			<path fill="#666666" d="M403.086,169.993c-1.076-1.565-2.174-3.113-3.295-4.641C400.912,166.88,402.01,168.428,403.086,169.993z"
				/>
			<path fill="#666666" d="M436.769,290.514c-0.045,0.824-0.13,1.636-0.187,2.462C436.639,292.149,436.719,291.338,436.769,290.514z
				"/>
			<path fill="#666666" d="M433.928,244.736c0.066,0.372,0.132,0.748,0.196,1.125C434.06,245.483,433.994,245.108,433.928,244.736z"
				/>
			<path fill="#666666" d="M435.531,255.22c0.086,0.687,0.181,1.373,0.262,2.063C435.712,256.593,435.617,255.906,435.531,255.22z"
				/>
			<path fill="#666666" d="M435.793,301.72c-0.081,0.69-0.176,1.372-0.262,2.059C435.617,303.092,435.712,302.406,435.793,301.72z"
				/>
			<path fill="#666666" d="M436.582,266.023c0.057,0.821,0.142,1.638,0.187,2.466C436.719,267.661,436.639,266.845,436.582,266.023z
				"/>
			<path fill="#666666" d="M434.124,313.141c-0.064,0.377-0.13,0.75-0.196,1.127C433.994,313.891,434.06,313.518,434.124,313.141z"
				/>
		</g>
		<path fill="#FFFFFF" d="M261.996,430.496c0,10.583-8.584,19.167-19.163,19.167c-10.583,0-19.162-8.584-19.162-19.167
			c0-10.579,8.578-19.158,19.162-19.158C253.412,411.338,261.996,419.917,261.996,430.496z"/>
		<g>
			<g>
				<path fill="#5A308C" d="M249.686,436.098c-1.18-1.973-2.05-3.683-3.203-4.839c-1.152-1.162-2.25-0.785-2.811-0.234
					c-0.229,0.229-0.412,0.319-0.552,0.343c-0.193,0.039-0.341,0.029-0.529,0.008c-0.14-0.014-0.341-0.09-0.606-0.351
					c-0.561-0.551-1.659-0.928-2.812,0.234c-1.153,1.156-2.022,2.866-3.202,4.839c-1.184,1.973-2.642,4.031-2.25,5.623
					c0.394,1.596,1.461,2.317,3.121,2.059c1.659-0.261,2.502-0.611,3.175-0.148c0.677,0.466,1.426,0.664,2.812,0.669
					c1.601-0.014,2.135-0.203,2.813-0.669c0.672-0.463,1.52-0.112,3.175,0.148c1.659,0.259,2.727-0.463,3.125-2.059
					C252.332,440.129,250.87,438.07,249.686,436.098z"/>
				<path fill="#5A308C" d="M229.304,431.85c0,0-0.421-1.77-0.058-3.547c0.363-1.771,1.292-2.609,2.404-2.941
					c1.112-0.332,3.521,0.358,4.094,3.727c0.565,3.366-0.426,5.081-1.417,5.739c-0.996,0.664-2.161,0.633-2.798,0.453
					C230.896,435.101,229.757,434.195,229.304,431.85z"/>
				<path fill="#5A308C" d="M234.686,422.926c0,0,0.148-2.914,1.386-4.243c1.229-1.317,2.615-1.169,3.426-0.869
					c0.808,0.305,2.252,1.503,2.167,4.059c-0.094,2.562-0.333,4.538-2.198,5.287c-1.861,0.753-3.727-0.026-4.359-1.107
					C234.475,424.968,234.686,422.926,234.686,422.926z"/>
				<path fill="#5A308C" d="M242.623,423.195c0,0-0.395-2.436,0.691-3.879c1.085-1.44,2.941-1.745,4.57-0.84
					c1.624,0.902,2.609,3.606,2.045,5.83c-0.569,2.225-1.601,3.096-3.063,3.309c-1.449,0.208-2.861-0.604-3.552-1.833
					C242.623,424.549,242.623,423.195,242.623,423.195z"/>
				<path fill="#5A308C" d="M249.296,432.038c0,0-0.3-2.471,0.695-4.331c0.991-1.871,2.251-2.168,3.094-2.107
					c0.843,0.062,2.856,0.721,3.184,4.027c0.332,3.309-1.592,5.442-3.273,5.505C251.31,435.187,249.627,434.622,249.296,432.038z"/>
			</g>
		</g>
		<path opacity="0.7" fill="#999999" d="M453.034,73.953c0,35.333-28.638,63.976-63.976,63.976
			c-35.323,0-63.967-28.643-63.967-63.976c0-35.324,28.644-63.967,63.967-63.967C424.396,9.986,453.034,38.629,453.034,73.953z"/>
		<path fill="#FFFFFF" d="M163.826,227.52c0-4.26-4.592-7.712-10.386-7.983c-0.273-3.906-7.234-7.036-15.826-7.036
			c-0.789,0-1.543,0.053-2.301,0.107c-0.91-4.619-5.596-8.144-11.288-8.144c-5.426,0-9.946,3.207-11.143,7.511
			c-1.911-0.86-4.099-1.389-6.463-1.389c-7.184,0-13.01,4.542-13.01,10.144c0,1.833,0.673,3.529,1.768,5.014
			c-4.453,1.434-7.121,3.202-7.121,5.125c0,4.755,16.126,8.611,36.015,8.611c12.897,0,24.175-1.628,30.535-4.063
			C159.84,234.77,163.826,231.492,163.826,227.52z"/>
		<path fill="#FFFFFF" d="M215.833,162.674c0-4.261-4.592-7.714-10.387-7.983c-0.273-3.906-7.232-7.036-15.826-7.036
			c-0.79,0-1.542,0.054-2.3,0.107c-0.91-4.619-5.597-8.144-11.287-8.144c-5.426,0-9.947,3.206-11.144,7.511
			c-1.91-0.861-4.1-1.391-6.462-1.391c-7.184,0-13.009,4.543-13.009,10.145c0,1.834,0.672,3.529,1.767,5.014
			c-4.453,1.435-7.121,3.202-7.121,5.125c0,4.753,16.126,8.61,36.015,8.61c12.898,0,24.176-1.628,30.535-4.063
			C211.846,169.925,215.833,166.647,215.833,162.674z"/>
		<path fill="#B3B3B3" d="M351.178,191.944c0-4.259,4.592-7.713,10.387-7.982c0.273-3.906,7.234-7.036,15.826-7.036
			c0.789,0,1.543,0.054,2.3,0.108c0.911-4.619,5.598-8.144,11.288-8.144c5.426,0,9.945,3.207,11.143,7.512
			c1.911-0.861,4.101-1.39,6.465-1.39c7.183,0,13.008,4.543,13.008,10.144c0,1.834-0.672,3.53-1.767,5.014
			c4.454,1.435,7.122,3.202,7.122,5.126c0,4.754-16.127,8.61-36.015,8.61c-12.899,0-24.177-1.628-30.536-4.063
			C355.165,199.196,351.178,195.918,351.178,191.944z"/>
		<path fill="#FFFFFF" d="M305.117,109.255c-0.543,0-1.056,0.072-1.582,0.126c-1.973-3.019-5.606-5.067-9.813-5.067
			c-1.21,0-2.354,0.21-3.447,0.524c-2.679-2.641-6.642-4.354-11.135-4.354c-5.579,0-10.368,2.619-12.821,6.421
			c-1.957-1.565-4.935-2.591-8.313-2.591c-5.895,0-10.67,3.054-10.67,6.821c0,0.699,0.21,1.358,0.516,1.99
			c-5.552,0.077-10.018,2.606-10.018,5.727c0,3.17,4.597,5.74,10.27,5.74c0.319,0,0.619-0.036,0.933-0.054
			c2.547,2.068,7.739,3.498,13.808,3.498c1.551,0,3.018-0.121,4.431-0.292c3.86,1.561,9.87,2.588,16.704,2.588
			c6.815,0,12.813-1.018,16.679-2.579c1.381,0.443,2.883,0.7,4.46,0.7c6.661,0,12.056-4.296,12.056-9.602
			C317.173,113.551,311.778,109.255,305.117,109.255z"/>
		<path fill="#B3B3B3" d="M126.296,99.457c0.542,0,1.058,0.071,1.583,0.125c1.973-3.017,5.605-5.066,9.812-5.066
			c1.211,0,2.354,0.21,3.449,0.524c2.677-2.642,6.642-4.355,11.135-4.355c5.578,0,10.368,2.62,12.821,6.422
			c1.955-1.565,4.933-2.592,8.314-2.592c5.892,0,10.668,3.054,10.668,6.821c0,0.699-0.21,1.358-0.515,1.99
			c5.551,0.076,10.018,2.605,10.018,5.727c0,3.17-4.597,5.74-10.27,5.74c-0.318,0-0.619-0.036-0.933-0.054
			c-2.547,2.068-7.74,3.499-13.808,3.499c-1.552,0-3.018-0.122-4.43-0.292c-3.862,1.56-9.871,2.587-16.705,2.587
			c-6.816,0-12.812-1.018-16.678-2.578c-1.381,0.444-2.884,0.699-4.462,0.699c-6.66,0-12.054-4.296-12.054-9.602
			C114.242,103.753,119.636,99.457,126.296,99.457z"/>
		<rect x="362.919" y="235.242" fill="#808080" width="20.978" height="16.512"/>
		<rect x="362.919" y="257.986" fill="#808080" width="20.978" height="16.513"/>
		<rect x="362.919" y="303.778" fill="#808080" width="20.978" height="16.512"/>
		<rect x="362.919" y="326.523" fill="#808080" width="20.978" height="16.512"/>
		<rect x="362.919" y="280.629" fill="#808080" width="20.978" height="16.513"/>
		<rect x="362.919" y="349.044" fill="#808080" width="20.978" height="16.513"/>
		<rect x="362.919" y="394.835" fill="#808080" width="20.978" height="16.512"/>
		<rect x="362.919" y="371.686" fill="#808080" width="20.978" height="16.513"/>
		<rect x="277.504" y="320.496" fill="#808080" width="20.978" height="16.512"/>
		<rect x="277.504" y="343.241" fill="#666666" width="20.978" height="16.513"/>
		<rect x="277.504" y="297.348" fill="#808080" width="20.978" height="16.512"/>
		<rect x="277.504" y="365.763" fill="#666666" width="20.978" height="16.512"/>
		<rect x="277.504" y="411.554" fill="#808080" width="20.978" height="16.512"/>
		<rect x="277.504" y="388.405" fill="#666666" width="20.978" height="16.512"/>
		<rect x="309.907" y="320.496" fill="#666666" width="20.979" height="16.512"/>
		<rect x="309.611" y="342.945" fill="#666666" width="20.979" height="16.512"/>
		<rect x="309.907" y="297.348" fill="#666666" width="20.979" height="16.512"/>
		<rect x="309.611" y="365.466" fill="#666666" width="20.979" height="16.512"/>
		<rect x="309.611" y="411.258" fill="#666666" width="20.979" height="16.512"/>
		<rect x="309.611" y="388.108" fill="#666666" width="20.979" height="16.513"/>
		<rect x="171.337" y="320.496" fill="#666666" width="20.979" height="16.512"/>
		<rect x="171.042" y="342.945" fill="#666666" width="20.978" height="16.512"/>
		<rect x="171.337" y="297.348" fill="#666666" width="20.979" height="16.512"/>
		<rect x="171.042" y="365.466" fill="#666666" width="20.978" height="16.512"/>
		<rect x="171.042" y="411.258" fill="#666666" width="20.978" height="16.512"/>
		<rect x="171.042" y="388.108" fill="#666666" width="20.978" height="16.513"/>
		<rect x="404.438" y="235.242" fill="#808080" width="20.978" height="16.512"/>
		<rect x="404.438" y="257.986" fill="#808080" width="20.978" height="16.513"/>
		<rect x="404.438" y="303.778" fill="#808080" width="20.978" height="16.512"/>
		<rect x="404.438" y="326.523" fill="#808080" width="20.978" height="16.512"/>
		<rect x="404.438" y="280.629" fill="#808080" width="20.978" height="16.513"/>
		<rect x="78.177" y="257.986" fill="#808080" width="20.979" height="16.513"/>
		<rect x="78.177" y="303.778" fill="#808080" width="20.979" height="16.512"/>
		<rect x="78.177" y="326.523" fill="#808080" width="20.979" height="16.512"/>
		<rect x="78.177" y="280.629" fill="#808080" width="20.979" height="16.513"/>
		<rect x="78.177" y="349.044" fill="#808080" width="20.979" height="16.513"/>
		<rect x="119.695" y="257.986" fill="#808080" width="20.978" height="16.513"/>
		<rect x="119.695" y="303.778" fill="#808080" width="20.978" height="16.512"/>
		<rect x="119.695" y="326.523" fill="#808080" width="20.978" height="16.512"/>
		<rect x="119.695" y="349.044" fill="#808080" width="20.978" height="16.513"/>
		<rect x="119.695" y="371.79" fill="#808080" width="20.978" height="16.512"/>
		<rect x="119.695" y="280.629" fill="#808080" width="20.978" height="16.513"/>
		<rect x="119.084" y="393.458" fill="#808080" width="20.979" height="16.512"/>
		<path fill="#808080" d="M77.567,370.31v6.829c1.081,1.754,4.059,6.58,6.072,9.683h14.907V370.31H77.567z"/>
		<path fill="#808080" d="M98.546,406.333v-12.875H88.2C89.249,394.777,96.043,403.338,98.546,406.333z"/>
		<polygon fill="#808080" points="119.084,416.203 119.084,426.636 126.619,432.716 140.063,432.716 140.063,416.203 		"/>
		<path fill="#808080" d="M404.438,349.3v16.512h12.384c0.507-0.879,7.303-16.512,7.303-16.512H404.438z"/>
		<path fill="#808080" d="M362.919,417.581v14.188c0,0,14.363-12.304,16.181-14.188H362.919z"/>
		<polygon fill="#808080" points="404.438,371.686 404.438,387.086 414.28,371.686 		"/>
		<rect x="211.559" y="320.496" fill="#666666" width="20.979" height="16.512"/>
		<rect x="211.263" y="342.945" fill="#666666" width="20.979" height="16.512"/>
		<rect x="211.559" y="297.348" fill="#666666" width="20.979" height="16.512"/>
		<rect x="211.263" y="365.466" fill="#666666" width="20.979" height="16.512"/>
		<rect x="211.263" y="411.258" fill="#666666" width="20.979" height="16.512"/>
		<rect x="211.263" y="388.108" fill="#666666" width="20.979" height="16.513"/>
		<path opacity="0.6" fill="#FFFFFF" stroke="#CCCCCC" stroke-width="0.25" stroke-miterlimit="10" d="M453.993,76.393
			c0-37.194-30.18-67.361-67.377-67.361c-19.999,0-37.904,8.758-50.241,22.588c-0.004-0.022-0.007-0.084-0.007-0.084L54.298,313.339
			c0,0,2.412,14.628,6.771,26.382c3.799,10.237,280.554-157.768,351.93-201.303c6.049-2.583,11.641-6.018,16.627-10.167
			c0.01,0,0.051-0.027,0.051-0.027l-0.021,0.004C444.518,115.865,453.993,97.236,453.993,76.393z M388.301,37.086
			c3.816-5.068,10.347-6.135,16.072-2.951c5.709,3.165,9.171,12.682,7.188,20.498c-2.005,7.821-5.626,10.879-10.769,11.637
			c-5.098,0.722-10.066-2.13-12.492-6.449c-2.425-4.336-2.425-9.099-2.425-9.099S384.485,42.163,388.301,37.086z M385.763,79.487
			c0.663,0.077,1.185,0.108,1.86-0.031c0.491-0.081,1.139-0.395,1.943-1.202c1.968-1.933,5.832-3.265,9.888,0.821
			c4.049,4.072,7.106,10.076,11.252,17.018c4.17,6.934,9.311,14.172,7.938,19.773c-1.409,5.61-5.156,8.152-10.993,7.237
			c-5.821-0.915-8.798-2.147-11.165-0.524c-2.378,1.646-4.255,2.305-9.889,2.349c-4.869-0.013-7.502-0.704-9.885-2.349
			c-2.367-1.624-5.33-0.391-11.161,0.524c-5.838,0.915-9.592-1.627-10.978-7.237c-1.369-5.601,3.754-12.839,7.916-19.773
			c4.147-6.942,7.206-12.946,11.26-17.018c4.049-4.086,7.916-2.754,9.888-0.821C384.565,79.173,385.273,79.438,385.763,79.487z
			 M357.968,49.777c0,0,0.516-10.247,4.87-14.919c4.318-4.633,9.193-4.113,12.045-3.059c2.839,1.077,7.917,5.288,7.62,14.27
			c-0.336,9.005-1.171,15.964-7.732,18.598c-6.537,2.645-13.104-0.1-15.322-3.897C357.22,56.952,357.968,49.777,357.968,49.777z
			 M338.837,68.688c1.273-6.233,4.539-9.18,8.454-10.35c3.906-1.167,12.377,1.26,14.395,13.103
			c1.986,11.844-1.498,17.867-4.987,20.185c-3.494,2.336-7.597,2.224-9.833,1.597c-2.226-0.632-6.229-3.817-7.826-12.068
			C339.039,81.155,337.559,74.931,338.837,68.688z M422.347,92.699c-5.933,0.187-11.839-1.795-13.009-10.875
			c0,0-1.06-8.696,2.444-15.234c3.484-6.579,7.914-7.619,10.884-7.413c2.959,0.215,10.041,2.539,11.192,14.158
			C435.024,84.971,428.258,92.483,422.347,92.699z"/>
		<g>
			<g>
				<g>
					<path fill="#C59E82" d="M298.895,464.306c0,0,24.744,5.546,18.077-39.219c-17.796-5.278-23.077,8.481-23.077,8.481
						L298.895,464.306z"/>
					<path fill="#5A308C" d="M295.274,392.708c0,0,25.122,9.58,25.122,33.77c-3.34,7.233-15.852,2.502-15.852,2.502L295.274,392.708
						z"/>
					<path fill="#C59E82" d="M190.616,464.306c0,0-24.745,5.546-18.072-39.219c17.794-5.278,23.073,8.481,23.073,8.481
						L190.616,464.306z"/>
					<path fill="#5A308C" d="M305.611,454.841c0,16.58-18.844,30.029-42.086,30.029H226.94c-23.243,0-42.082-13.449-42.082-30.029
						v-42.538c0-16.589,18.839-30.034,42.082-30.034h36.585c23.242,0,42.086,13.445,42.086,30.034V454.841z"/>
					<path fill="#E6E6E6" d="M274.624,389.014c0,10.333-13.201,18.701-29.499,18.701c-16.288,0-29.485-8.368-29.485-18.701
						c0-10.321,13.198-18.704,29.485-18.704C261.423,370.31,274.624,378.692,274.624,389.014z"/>
					<path fill="#C59E82" d="M271.409,382.414c0,11.044-8.974,20.01-20.02,20.01h-12.305c-11.059,0-20.014-8.966-20.014-20.01
						v-13.352c0-11.058,8.956-20.019,20.014-20.019h12.305c11.046,0,20.02,8.961,20.02,20.019V382.414z"/>
					<path fill="#EBBFA2" d="M327.962,274.252c0-8.297-7.582-15.02-16.946-15.02c-1.856,0-3.624,0.271-5.286,0.755v-17.997
						c0-11.054-8.962-20.019-20.02-20.019h-84.815c-11.045,0-20.014,8.964-20.014,20.019v17.718c-1.336-0.3-2.735-0.477-4.17-0.477
						c-9.373,0-16.96,6.723-16.96,15.02c0,7.629,6.426,13.915,14.753,14.871c-0.368,3.192-0.579,6.432-0.579,9.726
						c0,42.47,31.064,76.893,69.38,76.893c38.315,0,69.37-34.423,69.37-76.893c0-3.264-0.202-6.471-0.561-9.632
						C320.967,288.706,327.962,282.207,327.962,274.252z"/>
					<path fill="#DCB335" d="M321.299,193.478c0,0,11.682-0.278,12.785-3.336c1.95,4.722-4.438,17.655-4.438,17.655
						s8.613-0.982,11.397-3.206c0,6.678-3.766,14.193-4.668,15.019c-0.893,0.833,4.668,0,4.668,0s-8.9,18.634-14.74,21.409
						c4.448-0.561,8.063-2.503,8.063-2.503s-7.502,10.849-15.574,18.912c-8.059,8.06-8.894,5.281-11.956,11.95
						c-1.659-7.775-4.996-10.014-5.277-21.404c-0.277-11.399-5.776-23.427-29.128-26.208
						C249.081,218.989,321.299,193.478,321.299,193.478z"/>
					<path fill="#F0C630" d="M180.603,285.234c0,0-13.897-19.188-11.122-43.377c2.78-24.19,4.167-36.424,3.063-39.209
						c-1.116-2.775,3.888,4.449,3.888,8.62c0,4.179,17.803-45.876,63.679-45.876c-5.843,1.664-8.619,3.336-8.619,3.336
						s35.306-3.619,61.998-3.336c26.7,0.278,42.544,0.278,42.813-6.678c0.84,11.964-6.111,65.07-49.194,65.07
						c2.769,1.941,10,3.892,10,3.892s-33.925,9.458-64.787-1.391c-30.867-10.838-45.603,21.409-40.603,34.481
						c-3.327-1.68-4.722-8.896-4.722-8.896s-6.395,19.458-0.834,26.683c-4.448-1.112-6.121-5.556-6.121-5.556L180.603,285.234z"/>
					<path fill="#444645" d="M219.385,313.339h47.229c0,0,4.884,26.382-23.615,26.382
						C214.5,339.721,219.385,313.339,219.385,313.339z"/>
					<rect x="218.497" y="313.339" fill="#FFFFFF" width="48.961" height="8.58"/>
					<path fill="#D56C60" d="M227.892,336.497c3.443,1.968,8.067,3.224,14.282,3.224c6.552,0,11.314-1.398,14.804-3.547
						c-0.506-4.322-6.798-7.744-14.53-7.744C234.546,328.43,228.12,332.034,227.892,336.497z"/>
					<path fill="#B29B7E" d="M251.081,298.581c0,1.081-3.148,1.945-7.019,1.945c-3.875,0-7.014-0.864-7.014-1.945
						c0-1.077,3.14-1.956,7.014-1.956C247.933,296.625,251.081,297.504,251.081,298.581z"/>
					<path fill="#5A308C" d="M194.24,392.708c0,0-25.122,9.58-25.122,33.77c3.332,7.233,15.848,2.502,15.848,2.502L194.24,392.708z"
						/>
				</g>
				<path fill="#5A308C" d="M273.108,261.996c-3.086,0-6.014,0.493-8.727,1.31v-0.046c-19.826,5.072-34.038,1.412-37.607,0.297
					c-0.143-0.049-0.287-0.094-0.434-0.139c-0.279-0.094-0.467-0.161-0.467-0.161v0.049c-2.713-0.816-5.632-1.31-8.717-1.31
					c-13.377,0-24.221,8.432-24.221,18.829c0,10.401,10.844,18.832,24.221,18.832c3.085,0,6.004-0.493,8.717-1.311v0.044
					c0,0,0.077-0.044,0.135-0.075c1.973-0.602,3.793-1.413,5.471-2.376c5.951-2.073,16.032-4.073,27.216-0.054
					c1.681,0.973,3.498,1.798,5.476,2.408c0.072,0.04,0.138,0.057,0.211,0.097v-0.044c2.713,0.817,5.641,1.311,8.727,1.311
					c13.382,0,24.227-8.431,24.227-18.832C297.335,270.428,286.49,261.996,273.108,261.996z"/>
				<path fill="#262424" d="M225.151,281.876c0,5.021-4.099,9.104-9.171,9.104c-5.067,0-9.175-4.082-9.175-9.104
					c0-5.031,4.108-9.113,9.175-9.113C221.053,272.763,225.151,276.845,225.151,281.876z"/>
				<path fill="#FFFFFF" d="M225.304,277.418c0,1.879-1.525,3.407-3.413,3.407c-1.874,0-3.395-1.528-3.395-3.407
					c0-1.869,1.521-3.399,3.395-3.399C223.779,274.019,225.304,275.549,225.304,277.418z"/>
			</g>
			<path fill="#262424" d="M280.773,281.876c0,5.021-4.113,9.104-9.176,9.104c-5.073,0-9.181-4.082-9.181-9.104
				c0-5.031,4.107-9.113,9.181-9.113C276.66,272.763,280.773,276.845,280.773,281.876z"/>
			<path fill="#FFFFFF" d="M280.911,277.418c0,1.879-1.524,3.407-3.407,3.407c-1.885,0-3.409-1.528-3.409-3.407
				c0-1.869,1.524-3.399,3.409-3.399C279.387,274.019,280.911,275.549,280.911,277.418z"/>
		</g>
	</g>
	<g>
		<path fill="#FFFFFF" d="M257.139,451.277c-1.91-3.193-3.327-5.96-5.197-7.84c-1.866-1.878-3.637-1.264-4.547-0.377
			c-0.377,0.369-0.677,0.517-0.897,0.553c-0.318,0.067-0.552,0.049-0.856,0.018c-0.229-0.027-0.556-0.153-0.982-0.57
			c-0.911-0.887-2.686-1.501-4.551,0.377c-1.87,1.88-3.288,4.646-5.198,7.84c-1.915,3.197-4.288,6.533-3.646,9.121
			c0.637,2.577,2.367,3.754,5.059,3.332c2.691-0.426,4.054-0.985,5.148-0.234c1.094,0.744,2.31,1.068,4.552,1.072
			c2.591-0.021,3.461-0.328,4.556-1.072c1.094-0.751,2.462-0.191,5.147,0.234c2.687,0.422,4.422-0.755,5.059-3.332
			C261.423,457.811,259.054,454.475,257.139,451.277z"/>
		<path fill="#FFFFFF" d="M224.106,444.403c0,0-0.682-2.876-0.103-5.755c0.587-2.87,2.098-4.229,3.901-4.766
			c1.803-0.539,5.7,0.582,6.628,6.04c0.924,5.456-0.686,8.232-2.287,9.305c-1.61,1.071-3.511,1.021-4.534,0.73
			C226.685,449.666,224.837,448.201,224.106,444.403z"/>
		<path fill="#FFFFFF" d="M232.824,429.931c0,0,0.247-4.723,2.242-6.87c1.996-2.144,4.242-1.897,5.552-1.407
			c1.318,0.483,3.66,2.434,3.516,6.574c-0.153,4.142-0.542,7.357-3.557,8.573c-3.026,1.219-6.044-0.049-7.072-1.802
			C232.483,433.244,232.824,429.931,232.824,429.931z"/>
		<path fill="#FFFFFF" d="M245.69,430.37c0,0-0.637-3.945,1.121-6.283c1.754-2.34,4.772-2.829,7.405-1.362
			c2.631,1.462,4.237,5.843,3.313,9.448c-0.925,3.605-2.602,5.014-4.969,5.359c-2.346,0.341-4.628-0.979-5.75-2.974
			C245.69,432.559,245.69,430.37,245.69,430.37z"/>
		<path fill="#FFFFFF" d="M256.502,444.698c0,0-0.488-4,1.121-7.014c1.61-3.027,3.654-3.516,5.018-3.417
			c1.368,0.098,4.634,1.171,5.162,6.53c0.544,5.359-2.578,8.815-5.305,8.913C259.767,449.811,257.036,448.882,256.502,444.698z"/>
	</g>
	<circle fill="none" stroke="#FFFFFF" stroke-width="0.5" stroke-miterlimit="10" cx="245.56" cy="442.962" r="29.848"/>
</g>
</svg>
