<?xml version="1.0" encoding="utf-8"?>
<!-- Generator: Adobe Illustrator 16.0.0, SVG Export Plug-In . SVG Version: 6.00 Build 0)  -->
<!DOCTYPE svg PUBLIC "-//W3C//DTD SVG 1.1//EN" "http://www.w3.org/Graphics/SVG/1.1/DTD/svg11.dtd">
<svg version="1.1" id="Layer_1" xmlns="http://www.w3.org/2000/svg" xmlns:xlink="http://www.w3.org/1999/xlink" x="0px" y="0px"
	 width="500px" height="500px" viewBox="0 0 500 500" enable-background="new 0 0 500 500" xml:space="preserve">
<path fill="#21939D" d="M465.998,249.019c0,119.142-96.569,215.711-215.695,215.711c-119.13,0-215.701-96.569-215.701-215.711
	c0-119.121,96.57-215.701,215.701-215.701C369.429,33.318,465.998,129.898,465.998,249.019z"/>
<g>
	<rect x="201.447" y="383.821" fill="#E6E6E6" width="95.89" height="49.139"/>
	<path fill="#E6E6E6" d="M153.197,435.374c0,4.008,3.248,7.262,7.251,7.262h179.694c4.004,0,7.247-3.254,7.247-7.262
		c0-3.999-3.243-7.252-7.247-7.252H160.448C156.445,428.122,153.197,431.375,153.197,435.374
		C153.197,435.374,153.197,431.375,153.197,435.374z"/>
	<path fill="#595558" d="M22.905,377.944c0,7.689,6.233,13.918,13.928,13.918h431.446c7.68,0,13.929-6.229,13.929-13.918V103.622
		c0-7.689-6.249-13.923-13.929-13.923H36.833c-7.694,0-13.928,6.233-13.928,13.923V377.944z"/>
	<path fill="#FFFFFF" d="M37.071,366.6c0,7.694,6.239,13.918,13.923,13.918h403.651c7.683,0,13.918-6.224,13.918-13.918V118.062
		c0-7.684-6.235-13.913-13.918-13.913H50.994c-7.684,0-13.923,6.229-13.923,13.913V366.6z"/>
	<polygon fill="#B3B3B3" points="203.265,391.862 256.239,428.122 297.337,428.122 297.337,391.862 	"/>
</g>
<path fill="#E3E0D9" d="M363.563,302.133c0,0-1.947,0.569-1.947,1.618c0,1.059,0,2.807,0,2.807l-0.973,2.518l-1.019,2.479
	l-1.744,2.31v5.235c0,0,1.382,2.19,1.382,3.248c0,1.063,1.703,5.116,1.703,5.116l1.133,3.175c0,0,3.497,4.951,1.947,5.841
	c0,0-0.071,1.951,0.416,2.479c0.483,0.521,1.947,4.063,1.947,4.063l1.297,3.894v5.4c0,0-0.045,6.01-1.464,6.174
	c0,0-2.395,4.183-3.244,4.183c0,0-3.21,0.441-3.21,0c0-1.868,0,0.323,0,0.323l0.199-4.098l-2.026-2.325l-1.297-1.574l-1.506-2.479
	c0,0-0.978-0.89-0.978-1.585c0-0.69,0-3,0-3s-1.938,0.73-1.938,0.199l-1.594-2.837c0,0-1.739-1.426-1.416-1.957l-0.894-2.305
	c0,0-0.9-3.01,0-4.271l0.689-2.842l-0.159-1.38l-0.894-2.955l-1.663,1.207l-0.979-1.942v-2.24l-1.618-1.093l-1.387-2.106
	l-1.42-1.063l-1.055-0.159l-0.773,0.402l-4.986,1.992l-1.878,0.81c0,0-1.902-1.087-1.902-1.545c0-0.437-3.855-3.447-3.855-3.447
	l-3.005-1.42c0,0-0.889-0.89-1.221,0c-0.363,0.895-5.112-1.58-5.644,0.367l-1.624,0.158c0,0-4.093,0.776-4.093-0.933
	c0-1.699,0-1.992,0-1.992s-1.063,0.611-1.063,2.201l-2.07-0.165l-1.943,0.522l-2.642,0.531l-1.053,1.262l-1.427,2.801l-1.058,1.54
	c0,0,3.899,4.098,3.368,4.262c-0.522,0.169-3.368-2.314-3.368-2.314l-1.093-0.357l-2.15,0.164v2.632l-1.992-1.579l-2.072-0.372
	l-3.327,0.372l-1.211-1.585l-2.892-1.951l-3.411-1.461v1.574l-0.568,1.674l-1.777-0.685l-4.152-1.223l-3.65,0.357l-3.527-0.158
	l-2.274,2.116l-2.28-2.116c0,0-1.738-0.159-1.738,0.895l0.81,2.473l-1.297,1.789v1.668h-2.319l-3.323,2.315h-1.708h-1.262h-1.262
	h-2.26v2.274v1.252l-1.878,2.19l-1.088-0.402l-1.222,2.155c0,0,0.079,2.757-0.611,3.651c-0.691,0.899,0.04-0.039-0.646-0.402
	c-0.69-0.368-0.164,1.749-0.164,1.749l0.362,1.738l0.532,3.164l2.105,3.898l-1.416,0.69l-2.841-0.77l-3.452-1.133h-4.669
	c0,0-2.036-1.268-2.483-2.475c-0.437-1.226-3.079-5.284-3.079-5.284s0-2.354,0-3.571c0-1.217-2.28-3.367-2.28-3.367
	c-1.212-0.895-3.323-3.735-3.323-3.735v-3.695l-1.42-1.709l-1.381-1.823l-3.735-3.01l-3.526-1.416c0,0-2.851,0.527-3.214-0.163
	c-0.368-0.687-1.952-0.687-1.952-0.687l-2.637,4.952l-1.212,1.421c-0.899,2.102-5.24-0.898-5.24-0.898l-5.563-2.966v-1.981
	l-0.979-1.958l-1.217-3.889l-1.908-1.063c-1.256-0.362-8.523-9.329-8.523-9.329H166.25v4.179h-20.539l-4.714-2.072l-20.906-7.838
	v-0.363H103.57l-1.336-2.314v-2.88l-5.374-3.984c0,0-3.075-1.058-2.345-1.217l-0.049-1.585c0,0-2.509,0.532-3.035,0
	c-0.537-0.521-5.28-2.105-5.807-2.105c-0.531,0-4.058-3.898-4.058-3.898l-3.904-4.591l-5.762-8.115l-2.762-3.536v-2.922
	l-1.664-2.195l-1.5-3.367l-1.019-2.469c0,0,1.267,0.154,1.952,1.773c0,0-0.686-3.686-1.952-3c0,0-3.168-1.58-3.695-3.527l-3-3.537
	c0,0-2.32-3.696-2.32-4.793l-0.889-6.169l-2.643-3.164l-0.884-2.479l0.685-1.584l0.889-3.01l1.053-3.368l-1.211-4.421l-1.465-4.345
	l-1.212-4.059l0.889-4.585l2.315-6.373l0.372-6.1l-0.208-6.089l0.16-5.479v-4.902l1.137-1.103h1.053c0,0,1.063-1.868,0.368-1.868
	h-2.23c0,0-0.084-2.111,0.81-2.111l-0.154-2.111c0,0-0.174-2.111,0.521-2.111c0,0-1.217-2.111-2.117-1.744
	c0,0-1.425-2.643-0.888-2.851c0,0-0.328-2.831-0.691-3.521l-1.262-2.479l-0.884-2.116l-1.103-3.934l6.542,2.434l5.314-1.416
	c0,0-2.314-3.989,0-3.989c0,0,2.637,0.248-0.288-3.487h199.95v-4.063c0,0,3.015-1.173,2.761,5.206c0,0,1.019-0.691,1.019,1.137
	l2.961,1.087c0,0,2.97,0.984,3.208,2.196l2.678-0.492c0,0,5.077-0.72,5.319,0.974l1.624,0.988v1.495l1.829,0.125
	c0,0,0.729-2.364,3.938,1.574l5.155-1.659l0.983,1.257h5.475l0.974,2.315h4.018l5.728-3.82l25.655,14.375v3.368l2.802,1.465h2.313
	v2.92l1.987,1.788c0,0,2.762-2.195,3.253,0l-0.929,1.704l2.226,1.217l4.669,2.925c0,0,0.814,1.217,0.814,2.439l1.545,10.034v6.204
	v4.376l-1.624,4.108l-2.314,2.19c0,0-2.887,2.851-2.156,5.032l3.491,2.116h2.803l6.258-4.222l4.422-1.708l3.654-0.487l6.13-3.159
	l2.922-1.709l-0.971-5.647l2.922-1.455l13.724-0.249l2.917-4.665l9.705-8.806l25.134-0.74v-1.902c0,0,1.658-1.501,2.146-0.289
	c0.496,1.217,1.952-0.244,1.952-0.244s1.013-1.217,1.951-0.969v-2.881l2.797-2.042v-3.605l3.86-7.878l2.681-4.669l1.902-0.04
	c0,0-0.164,3.164,2.848,2.474c0,0,0.361-0.889,1.946-0.696c0,0,1.42-1.416,3.367,0.536c1.946,1.952,0,0.691,0,0.691l1.946,1.222
	l-0.689,13.759c0,0-0.437-0.203,0.616,0l1.663,1.783v2.802l2.19,1.261l2.112,3.373l-1.417,1.053l-4.435,2.111l-2.305,1.058
	l-1.069-0.775l-0.684,1.008h-1.625l-2.071,1.714l-0.367-3.209l-1.212,1.217l-0.163,2.767l-1.213,1.693h-1.827l-2.072,1.431
	l-1.222-0.288c0,0-1.421-0.571-1.421,0.651l-0.69,1.381l-1.415,1.584c0,0-2.117,0.889-1.268,1.217l-0.159,1.749l-1.419,2.474
	l0.362,0.77c0,0,0.685,1.336-1.049,2.598c0,0-2.479,1.947,0.154,2.846c0,0,0.695,1.947,0.895,2.632c0,0,1.216,2.032,2.105,2.439
	l-2.105,2.598l-2.315,0.611h-3.447h-3.77l-3.577,0.934h-3.332l-1.828,1.256l-2.066,1.828c0,0,1.415,0.894,3.004,0.04l4.055-0.526
	l3.367-1.137l1.793,0.65l-2.683,1.46c0,0-6.004,2.429-6.004,1.907c0-0.531,0-0.323,0-0.323s-5.609,2.275-6.656,1.381
	c0,0-1.629,1.222,0.323,1.585c0,0,0.158,1.335,0,5.632c-0.085,2.325-2.842,4.798-3.9,4.958l-1.053,3.173l-1.425,1.212l-0.527-3.527
	l-1.415-0.69l-1.788-1.222l-0.899-1.783l-0.527,2.315l1.909,3l1.907,2.473v2.191l-1.581,3.666l-1.743,2.101l-2.025,3.542
	l-1.675,1.579v-3.373l1.382-1.381v-1.743l-1.049-1.625l-1.058-1.256l-1.342-1.585l-0.124-1.783l1.257-1.42l-0.481-2.479v-1.177
	l1.212-2.349l-1.863,1.212c0,0-0.849,1.58-0.49,2.111c0.366,0.521,0.208,2.31,0.208,2.31l-0.691,3.373l0.358,3.044h-1.172
	l-1.138-0.933l-1.416-0.691l-2.319-1.058l0.169,1.257l1.941,1.424l3.005,1.586l1.953,0.889l-1.104,3.174l-0.571,2.474v2.274
	l-1.166-1.018c0,0-0.452,1.787,0.596,1.947c1.067,0.163,2.891,0.163,2.891,0.163s0.895,1.054,1.098,1.952
	c0.164,0.889,0.895,2.841,0.895,3.368c0,0.526-1.059,0.899-1.059,0.899l-1.867-0.209l-0.159,1.416c0,0-1.426,1.057,0,1.221
	c1.415,0.17,2.473,0.697,2.473,0.697s1.218,0.689,1.054,1.573c-0.16,0.898-1.054,1.793-1.054,1.793l-1.947,0.527
	c0,0,0.523,1.578-0.525,3.372c-1.059,1.783-1.059,1.783-1.059,1.783l-1.787,0.894l-2.832,0.69c0,0-0.903,1.575-1.798,2.111
	c-0.894,0.527-3.165,1.793-3.527,2.637c-0.372,0.891-1.951,1.947-2.841,1.947c-0.898,0-2.841,0.89-2.841,0.89l-2.479,1.947
	c0,0,0.527,0.536,0,1.799c-0.531,1.211-0.366,2.469-0.895,2.632c-0.521,0.164-2.114,1.951-2.114,1.951s-2.111-0.689-2.305,0.363
	c-0.175,1.059-1.793,1.218-1.793,1.218l-2.146,1.425L363.563,302.133z"/>
<g>
	<path fill="#5A308C" d="M220.118,279.289h-0.015c0.422-1.536,0.676-3.154,0.676-4.828c0-9.969-8.086-18.061-18.056-18.061
		c-9.974,0-18.055,8.092-18.055,18.061c0,1.674,0.248,3.292,0.67,4.828h-0.015l0.055,0.139c0.283,1.018,0.67,1.986,1.123,2.914
		l15.169,39.375l16.505-37.969c0.82-1.346,1.465-2.811,1.908-4.361L220.118,279.289z"/>
	<g>
		<path fill="#FFFFFF" d="M209.802,279.666c-1.188-1.986-2.072-3.726-3.244-4.902c-1.167-1.178-2.28-0.791-2.851-0.229
			c-0.234,0.224-0.427,0.318-0.557,0.343c-0.198,0.035-0.348,0.035-0.537,0.01c-0.144-0.014-0.348-0.099-0.62-0.353
			c-0.572-0.562-1.68-0.948-2.856,0.229c-1.163,1.177-2.046,2.916-3.239,4.902c-1.197,2.006-2.687,4.093-2.285,5.712
			c0.403,1.618,1.486,2.345,3.165,2.086c1.679-0.263,2.538-0.616,3.223-0.149c0.681,0.479,1.446,0.677,2.847,0.677
			c1.624-0.011,2.17-0.198,2.856-0.677c0.68-0.467,1.54-0.113,3.219,0.149c1.684,0.259,2.762-0.468,3.169-2.086
			C212.479,283.759,211.003,281.672,209.802,279.666z"/>
		<path fill="#FFFFFF" d="M189.133,275.369c0,0-0.432-1.803-0.06-3.596c0.362-1.799,1.312-2.653,2.439-2.985
			c1.132-0.339,3.571,0.368,4.142,3.778c0.582,3.414-0.427,5.152-1.431,5.828c-0.998,0.66-2.19,0.635-2.835,0.456
			C190.743,278.668,189.59,277.744,189.133,275.369z"/>
		<path fill="#FFFFFF" d="M194.587,266.314c0,0,0.159-2.961,1.406-4.302c1.256-1.341,2.652-1.187,3.481-0.88
			c0.82,0.304,2.28,1.52,2.191,4.113c-0.095,2.593-0.333,4.601-2.23,5.365c-1.887,0.764-3.78-0.03-4.42-1.123
			C194.378,268.391,194.587,266.314,194.587,266.314z"/>
		<path fill="#FFFFFF" d="M202.639,266.588c0,0-0.397-2.469,0.705-3.936c1.093-1.459,2.98-1.762,4.629-0.848
			c1.65,0.913,2.648,3.654,2.077,5.916c-0.586,2.254-1.629,3.139-3.109,3.342c-1.465,0.219-2.896-0.605-3.596-1.857
			C202.639,267.957,202.639,266.588,202.639,266.588z"/>
		<path fill="#FFFFFF" d="M209.409,275.554c0,0-0.308-2.499,0.706-4.397c1.003-1.887,2.285-2.186,3.135-2.135
			c0.854,0.064,2.9,0.735,3.238,4.094c0.328,3.352-1.62,5.518-3.328,5.572C211.45,278.757,209.747,278.171,209.409,275.554z"/>
	</g>
</g>
<g>
	<path fill="#5A308C" d="M137.714,243.883h-0.01c0.417-1.52,0.661-3.12,0.661-4.769c0-9.85-7.987-17.836-17.832-17.836
		c-9.845,0-17.832,7.987-17.832,17.836c0,1.649,0.248,3.249,0.666,4.769h-0.015l0.05,0.139c0.288,1.003,0.666,1.962,1.113,2.881
		l14.985,38.882l16.302-37.501c0.8-1.326,1.435-2.772,1.872-4.301L137.714,243.883z"/>
	<g>
		<path fill="#FFFFFF" d="M127.531,244.26c-1.182-1.972-2.056-3.68-3.208-4.847c-1.158-1.163-2.256-0.78-2.817-0.229
			c-0.233,0.223-0.417,0.318-0.551,0.337c-0.199,0.04-0.343,0.04-0.537,0.01c-0.134-0.01-0.338-0.09-0.602-0.348
			c-0.566-0.552-1.664-0.934-2.816,0.229c-1.152,1.167-2.026,2.875-3.208,4.847c-1.182,1.978-2.647,4.039-2.255,5.633
			c0.393,1.599,1.465,2.324,3.124,2.066c1.664-0.263,2.509-0.615,3.179-0.148c0.68,0.467,1.43,0.66,2.816,0.67
			c1.604-0.02,2.141-0.203,2.816-0.67c0.675-0.467,1.524-0.114,3.184,0.148c1.659,0.258,2.732-0.467,3.125-2.066
			C130.174,248.298,128.713,246.237,127.531,244.26z"/>
		<path fill="#FFFFFF" d="M107.111,240.013c0,0-0.417-1.778-0.059-3.556c0.363-1.773,1.296-2.617,2.415-2.951
			c1.112-0.333,3.521,0.363,4.087,3.735c0.576,3.373-0.417,5.086-1.411,5.752c-0.994,0.661-2.171,0.631-2.802,0.452
			C108.711,243.262,107.569,242.363,107.111,240.013z"/>
		<path fill="#FFFFFF" d="M112.501,231.073c0,0,0.154-2.926,1.386-4.247c1.237-1.332,2.618-1.178,3.437-0.875
			c0.81,0.298,2.255,1.501,2.166,4.063c-0.095,2.563-0.333,4.545-2.201,5.295c-1.868,0.76-3.735-0.03-4.366-1.108
			C112.292,233.119,112.501,231.073,112.501,231.073z"/>
		<path fill="#FFFFFF" d="M120.454,231.341c0,0-0.392-2.444,0.69-3.889c1.088-1.441,2.956-1.739,4.58-0.84
			c1.624,0.904,2.618,3.611,2.046,5.841c-0.571,2.23-1.604,3.104-3.07,3.308c-1.45,0.213-2.861-0.601-3.557-1.833
			C120.454,232.697,120.454,231.341,120.454,231.341z"/>
		<path fill="#FFFFFF" d="M127.139,240.192c0,0-0.298-2.468,0.695-4.336c0.988-1.868,2.255-2.166,3.094-2.111
			c0.845,0.065,2.861,0.726,3.194,4.038c0.333,3.313-1.595,5.45-3.284,5.509C129.151,243.356,127.472,242.78,127.139,240.192z"/>
	</g>
</g>
<path fill="#5A308C" d="M370.66,301.54h-0.021c0.414-1.464,0.642-3.009,0.642-4.604c0-9.502-7.703-17.206-17.205-17.206
	c-9.503,0-17.206,7.704-17.206,17.206c0,1.595,0.232,3.14,0.646,4.604h-0.02l0.049,0.13c0.284,0.969,0.642,1.897,1.068,2.786
	l14.463,37.521l15.732-36.19c0.778-1.276,1.39-2.677,1.813-4.152L370.66,301.54z"/>
<g>
	<path fill="#FFFFFF" d="M360.831,301.909c-1.147-1.902-1.987-3.557-3.101-4.68c-1.106-1.123-2.175-0.755-2.716-0.224
		c-0.229,0.213-0.402,0.303-0.536,0.327c-0.184,0.036-0.329,0.036-0.508,0.012c-0.139-0.012-0.332-0.09-0.586-0.339
		c-0.545-0.531-1.604-0.899-2.716,0.224c-1.113,1.123-1.958,2.777-3.096,4.68c-1.143,1.906-2.554,3.894-2.18,5.433
		c0.387,1.54,1.415,2.241,3.016,1.992c1.608-0.248,2.418-0.592,3.073-0.145c0.65,0.453,1.382,0.642,2.718,0.65
		c1.544-0.019,2.062-0.197,2.717-0.65c0.65-0.447,1.465-0.104,3.069,0.145c1.604,0.249,2.638-0.452,3.02-1.992
		C363.384,305.803,361.974,303.815,360.831,301.909z"/>
	<path fill="#FFFFFF" d="M341.126,297.805c0,0-0.407-1.712-0.06-3.427c0.353-1.714,1.252-2.528,2.331-2.851
		c1.071-0.318,3.391,0.347,3.947,3.606c0.553,3.252-0.406,4.912-1.366,5.548c-0.953,0.641-2.091,0.61-2.702,0.438
		C342.666,300.944,341.564,300.07,341.126,297.805z"/>
	<path fill="#FFFFFF" d="M346.326,289.173c0,0,0.145-2.817,1.336-4.093c1.188-1.282,2.524-1.137,3.314-0.844
		c0.784,0.288,2.181,1.449,2.091,3.923c-0.085,2.469-0.317,4.386-2.121,5.111c-1.798,0.725-3.602-0.03-4.212-1.072
		C346.123,291.15,346.326,289.173,346.326,289.173z"/>
	<path fill="#FFFFFF" d="M353.995,289.436c0,0-0.371-2.354,0.677-3.75s2.847-1.684,4.416-0.809c1.568,0.867,2.523,3.481,1.976,5.632
		c-0.556,2.155-1.554,2.995-2.97,3.198c-1.396,0.204-2.762-0.581-3.422-1.772C353.995,290.747,353.995,289.436,353.995,289.436z"/>
	<path fill="#FFFFFF" d="M360.449,297.979c0,0-0.293-2.385,0.675-4.188c0.953-1.798,2.171-2.091,2.989-2.032
		c0.811,0.061,2.763,0.695,3.08,3.895c0.318,3.199-1.539,5.256-3.169,5.32C362.4,301.029,360.767,300.479,360.449,297.979z"/>
</g>
<g>
	<path fill="#5A308C" d="M206.483,217.86h-0.015c0.441-1.604,0.7-3.298,0.7-5.047c0-10.411-8.439-18.85-18.855-18.85
		c-10.406,0-18.845,8.439-18.845,18.85c0,1.749,0.258,3.442,0.706,5.047h-0.021l0.055,0.144c0.303,1.059,0.705,2.072,1.172,3.045
		l15.84,41.107l17.241-39.642c0.849-1.411,1.52-2.936,1.977-4.55L206.483,217.86z"/>
	<g>
		<path fill="#FFFFFF" d="M195.715,218.258c-1.247-2.086-2.17-3.894-3.393-5.122c-1.216-1.231-2.384-0.834-2.975-0.248
			c-0.243,0.238-0.441,0.337-0.585,0.363c-0.209,0.044-0.363,0.035-0.557,0.009c-0.149-0.02-0.368-0.099-0.641-0.372
			c-0.606-0.586-1.764-0.983-2.98,0.248c-1.222,1.228-2.141,3.035-3.393,5.122c-1.251,2.091-2.796,4.266-2.379,5.96
			c0.413,1.684,1.545,2.449,3.304,2.175c1.753-0.273,2.647-0.646,3.357-0.154c0.72,0.487,1.515,0.7,2.976,0.705
			c1.699-0.02,2.27-0.218,2.979-0.705c0.721-0.492,1.609-0.119,3.363,0.154c1.758,0.273,2.891-0.492,3.303-2.175
			C198.511,222.524,196.972,220.349,195.715,218.258z"/>
		<path fill="#FFFFFF" d="M174.132,213.762c0,0-0.447-1.873-0.069-3.755c0.388-1.873,1.371-2.772,2.553-3.12
			c1.177-0.353,3.721,0.383,4.327,3.949c0.605,3.566-0.442,5.384-1.495,6.08c-1.048,0.705-2.29,0.67-2.956,0.477
			C175.821,217.205,174.61,216.246,174.132,213.762z"/>
		<path fill="#FFFFFF" d="M179.83,204.31c0,0,0.159-3.084,1.465-4.485c1.306-1.406,2.771-1.247,3.625-0.929
			c0.865,0.323,2.385,1.589,2.295,4.302c-0.1,2.702-0.353,4.803-2.325,5.598c-1.972,0.799-3.949-0.025-4.615-1.177
			C179.606,206.476,179.83,204.31,179.83,204.31z"/>
		<path fill="#FFFFFF" d="M188.234,204.598c0,0-0.417-2.578,0.73-4.113c1.147-1.524,3.125-1.842,4.838-0.888
			c1.719,0.958,2.767,3.824,2.166,6.179c-0.605,2.359-1.699,3.273-3.248,3.501c-1.525,0.224-3.02-0.64-3.755-1.942
			C188.234,206.023,188.234,204.598,188.234,204.598z"/>
		<path fill="#FFFFFF" d="M195.302,213.956c0,0-0.322-2.612,0.73-4.584c1.048-1.977,2.389-2.295,3.278-2.23
			c0.894,0.065,3.025,0.765,3.373,4.267c0.353,3.502-1.684,5.762-3.462,5.827C197.433,217.299,195.655,216.693,195.302,213.956z"/>
	</g>
</g>
<g>
	<path fill="#5A308C" d="M428.086,174.949h-0.016c0.394-1.425,0.626-2.916,0.626-4.47c0-9.219-7.48-16.694-16.699-16.694
		c-9.224,0-16.7,7.476-16.7,16.694c0,1.555,0.229,3.045,0.621,4.47h-0.015l0.051,0.124c0.268,0.944,0.62,1.843,1.037,2.702
		l14.027,36.414l15.274-35.112c0.754-1.252,1.35-2.603,1.752-4.033L428.086,174.949z"/>
	<g>
		<path fill="#FFFFFF" d="M418.543,175.302c-1.103-1.848-1.922-3.447-3-4.535c-1.087-1.088-2.106-0.735-2.638-0.219
			c-0.219,0.213-0.392,0.298-0.521,0.318c-0.179,0.04-0.313,0.03-0.491,0.01c-0.135-0.015-0.322-0.084-0.571-0.328
			c-0.522-0.516-1.555-0.869-2.637,0.219c-1.079,1.087-1.897,2.687-3.007,4.535c-1.106,1.853-2.473,3.78-2.11,5.275
			c0.374,1.5,1.376,2.181,2.927,1.933c1.559-0.244,2.354-0.572,2.984-0.134c0.63,0.432,1.336,0.616,2.638,0.621
			c1.49-0.015,1.996-0.188,2.633-0.621c0.64-0.438,1.425-0.109,2.979,0.134c1.555,0.248,2.558-0.432,2.927-1.933
			C421.026,179.082,419.656,177.155,418.543,175.302z"/>
		<path fill="#FFFFFF" d="M399.43,171.324c0,0-0.397-1.664-0.061-3.323c0.339-1.664,1.213-2.459,2.262-2.762
			c1.043-0.318,3.293,0.333,3.829,3.487c0.542,3.164-0.393,4.773-1.321,5.39c-0.929,0.626-2.031,0.591-2.623,0.422
			C400.921,174.368,399.853,173.52,399.43,171.324z"/>
		<path fill="#FFFFFF" d="M404.477,162.949c0,0,0.14-2.737,1.291-3.979c1.162-1.237,2.454-1.098,3.219-0.814
			c0.76,0.284,2.117,1.406,2.032,3.81c-0.085,2.389-0.313,4.256-2.062,4.957c-1.748,0.705-3.497-0.021-4.088-1.043
			C404.278,164.866,404.477,162.949,404.477,162.949z"/>
		<path fill="#FFFFFF" d="M411.917,163.208c0,0-0.362-2.291,0.65-3.646c1.014-1.352,2.763-1.629,4.287-0.785
			c1.521,0.85,2.448,3.377,1.917,5.469c-0.536,2.091-1.505,2.906-2.876,3.1c-1.356,0.198-2.678-0.562-3.328-1.719
			C411.917,164.469,411.917,163.208,411.917,163.208z"/>
		<path fill="#FFFFFF" d="M418.181,171.492c0,0-0.283-2.31,0.646-4.058c0.93-1.754,2.116-2.032,2.906-1.977
			c0.785,0.06,2.683,0.681,2.99,3.78c0.308,3.1-1.494,5.101-3.075,5.161C420.068,174.453,418.489,173.916,418.181,171.492z"/>
	</g>
</g>
<g>
	<path fill="#5A308C" d="M107.544,113.263h-0.015c0.383-1.381,0.606-2.831,0.606-4.336c0-8.941-7.252-16.188-16.193-16.188
		c-8.94,0-16.188,7.247-16.188,16.188c0,1.505,0.219,2.955,0.606,4.336h-0.015l0.044,0.119c0.258,0.914,0.602,1.783,1.008,2.623
		l13.6,35.301l14.807-34.044c0.73-1.212,1.306-2.523,1.699-3.909L107.544,113.263z"/>
	<g>
		<path fill="#FFFFFF" d="M98.295,113.606c-1.073-1.793-1.868-3.348-2.91-4.406c-1.053-1.053-2.047-0.709-2.559-0.208
			c-0.208,0.208-0.377,0.289-0.501,0.313c-0.174,0.035-0.313,0.03-0.481,0.005c-0.129-0.015-0.308-0.08-0.552-0.318
			c-0.511-0.501-1.505-0.844-2.558,0.208c-1.043,1.059-1.838,2.613-2.911,4.406c-1.073,1.793-2.404,3.666-2.046,5.116
			c0.357,1.445,1.331,2.106,2.836,1.868c1.51-0.239,2.274-0.552,2.891-0.134c0.611,0.427,1.296,0.606,2.553,0.611
			c1.455-0.015,1.947-0.184,2.558-0.611c0.616-0.417,1.386-0.104,2.891,0.134c1.505,0.238,2.479-0.422,2.836-1.868
			C100.699,117.272,99.373,115.399,98.295,113.606z"/>
		<path fill="#FFFFFF" d="M79.758,109.747c0,0-0.382-1.614-0.055-3.229c0.328-1.61,1.178-2.379,2.191-2.678
			c1.008-0.303,3.199,0.328,3.715,3.388c0.521,3.065-0.382,4.625-1.287,5.226c-0.899,0.601-1.967,0.571-2.543,0.407
			C81.209,112.697,80.17,111.877,79.758,109.747z"/>
		<path fill="#FFFFFF" d="M84.651,101.625c0,0,0.139-2.652,1.261-3.854c1.123-1.202,2.375-1.063,3.114-0.795
			c0.741,0.273,2.052,1.371,1.972,3.691c-0.084,2.324-0.303,4.132-2.001,4.813c-1.694,0.686-3.388-0.024-3.959-1.013
			C84.462,103.483,84.651,101.625,84.651,101.625z"/>
		<path fill="#FFFFFF" d="M91.873,101.874c0,0-0.357-2.216,0.626-3.527c0.984-1.316,2.677-1.589,4.157-0.765
			c1.476,0.814,2.379,3.278,1.863,5.299c-0.526,2.026-1.465,2.812-2.792,3.01c-1.311,0.189-2.598-0.552-3.229-1.669
			C91.873,103.101,91.873,101.874,91.873,101.874z"/>
		<path fill="#FFFFFF" d="M97.942,109.911c0,0-0.273-2.246,0.626-3.939c0.904-1.698,2.052-1.966,2.816-1.917
			c0.765,0.06,2.598,0.66,2.901,3.666c0.298,3.01-1.451,4.947-2.985,5.006C99.771,112.782,98.24,112.26,97.942,109.911z"/>
	</g>
</g>
</svg>
