<?xml version="1.0" encoding="utf-8"?>
<!-- Generator: Adobe Illustrator 16.0.0, SVG Export Plug-In . SVG Version: 6.00 Build 0)  -->
<!DOCTYPE svg PUBLIC "-//W3C//DTD SVG 1.1//EN" "http://www.w3.org/Graphics/SVG/1.1/DTD/svg11.dtd">
<svg version="1.1" id="Layer_1" xmlns="http://www.w3.org/2000/svg" xmlns:xlink="http://www.w3.org/1999/xlink" x="0px" y="0px"
	 width="500px" height="500px" viewBox="0 0 500 500" enable-background="new 0 0 500 500" xml:space="preserve">
<g>
	<path fill="#E3E0D9" d="M418.655,13.509c-18.925,0-34.265,15.335-34.265,34.259s23.796,68.322,34.265,68.322
		c11.371,0,34.259-49.398,34.259-68.322S437.574,13.509,418.655,13.509z M418.655,69.625c-12.08,0-21.865-9.786-21.865-21.865
		c0-12.075,9.785-21.865,21.865-21.865c12.074,0,21.859,9.791,21.859,21.865C440.515,59.839,430.729,69.625,418.655,69.625z"/>
	<path fill="#CCCCCC" d="M418.655,13.509v12.385l0,0c12.074,0,21.859,9.791,21.859,21.865c0,12.079-9.785,21.865-21.859,21.865l0,0
		v46.466c11.371,0,34.259-49.398,34.259-68.322S437.574,13.509,418.655,13.509z"/>
	<path fill="#CCCCCC" d="M86.991,476.881c0,2.414-1.952,4.365-4.365,4.365s-4.364-1.951-4.364-4.365
		c0-2.411,1.952-4.362,4.364-4.362S86.991,474.47,86.991,476.881z"/>
	<path fill="#CCCCCC" d="M425.585,127.462c0,2.413-1.951,4.365-4.365,4.365c-2.411,0-4.365-1.952-4.365-4.365
		s1.954-4.365,4.365-4.365C423.634,123.097,425.585,125.049,425.585,127.462z"/>
	<path fill="#E3E0D9" d="M82.742,362.353c-18.924,0-34.264,15.337-34.264,34.26c0,18.924,23.796,68.323,34.264,68.323
		c11.371,0,34.259-49.399,34.259-68.323C117,377.689,101.661,362.353,82.742,362.353z M82.742,418.469
		c-12.08,0-21.865-9.785-21.865-21.864c0-12.074,9.785-21.865,21.865-21.865c12.074,0,21.86,9.791,21.86,21.865
		C104.602,408.684,94.816,418.469,82.742,418.469z"/>
	<path fill="#CCCCCC" d="M82.742,362.353v12.387l0,0c12.074,0,21.86,9.791,21.86,21.865c0,12.079-9.786,21.864-21.86,21.864l0,0
		v46.467c11.371,0,34.259-49.399,34.259-68.323C117,377.689,101.661,362.353,82.742,362.353z"/>
	<g>
		<g>
			<g>
				<polygon fill-rule="evenodd" clip-rule="evenodd" fill="#CCCCCC" points="182.416,385.032 193.592,394.094 212.392,373.861 
					201.216,364.809 				"/>
				<polygon fill-rule="evenodd" clip-rule="evenodd" fill="#CCCCCC" points="148.69,421.312 159.865,430.368 178.67,410.145 
					167.495,401.084 				"/>
				<polygon fill-rule="evenodd" clip-rule="evenodd" fill="#CCCCCC" points="115.074,457.468 126.25,466.528 145.054,446.301 
					133.879,437.243 				"/>
			</g>
			<g>
				<polygon fill-rule="evenodd" clip-rule="evenodd" fill="#CCCCCC" points="385.022,167.096 396.201,176.149 415.006,155.924 
					403.83,146.864 				"/>
				<polygon fill-rule="evenodd" clip-rule="evenodd" fill="#CCCCCC" points="351.3,203.371 362.475,212.428 381.279,192.2 
					370.104,183.147 				"/>
			</g>
		</g>
	</g>
	<g>
		<path fill="#21939D" d="M348.069,315.47c-7.791-0.043-14.077,6.077-14.159,13.817c-0.082,7.741,6.121,14.117,13.816,14.193
			c7.713,0.073,14.113-6.163,14.189-13.839C361.989,321.909,355.745,315.517,348.069,315.47z"/>
		<path fill="#21939D" d="M190.135,315.452c-7.667,0.018-13.998,6.381-13.98,14.063c0.021,7.688,6.398,14.026,14.052,13.966
			c7.868-0.068,14.087-6.452,13.976-14.345C204.072,321.623,197.726,315.439,190.135,315.452z"/>
		<path fill="#21939D" d="M267.83,79.428c-102.224,0-185.088,82.873-185.088,185.088c0,102.232,82.865,185.097,185.088,185.097
			c102.219,0,185.084-82.864,185.084-185.097C452.914,162.301,370.049,79.428,267.83,79.428z M190.237,361.842
			c-17.675,0.021-32.379-14.389-32.439-31.795c-0.068-18.405,14.198-32.896,32.444-32.951c17.675-0.055,32.251,14.483,32.303,32.222
			C222.591,347.227,208.096,361.816,190.237,361.842z M347.834,361.862c-17.849-0.016-32.338-14.605-32.302-32.536
			c0.034-17.863,14.623-32.295,32.579-32.23c17.714,0.06,32.2,14.628,32.188,32.358
			C380.282,347.347,365.727,361.872,347.834,361.862z M412.202,333.887c-7.22,0.17-14.445,0.063-21.695,0.063
			c2.912-26.131-18.488-47.343-42.643-47.317c-24.329,0.025-45.485,21.421-42.625,47.161c-24.176,0-48.351,0-72.542,0
			c2.565-25.613-17.633-47.063-42.446-47.12c-25.398-0.05-45.431,22.104-42.626,47.333c-2.906,0-5.775,0.033-8.647-0.01
			c-8.269-0.123-15.314-5.512-17.629-13.416c-0.217-0.722-0.511-1.425-0.767-2.128c0-45.238,0-90.473,0-135.703
			c0.162-0.234,0.401-0.447,0.477-0.712c3.043-10.263,9.185-14.845,19.938-14.845c55.634,0,111.272,0.013,166.901-0.017
			c12.889-0.003,22.658,5.405,29.214,16.512c10.872,18.455,21.682,36.953,32.644,55.353c0.771,1.3,2.4,2.502,3.86,2.898
			c8.367,2.284,16.812,4.309,25.224,6.418c6.245,1.565,9.267,5.414,9.275,11.832c0.005,11.205,0,22.411,0,33.611
			c0,1.036,0,2.068,0,3.388c4.428-0.72,7.557,0.623,9.381,4.442c0,9.279,0,18.557,0,27.841
			C416.251,331.58,414.882,333.827,412.202,333.887z"/>
		<path fill="#21939D" d="M318.736,197.962c-1.215-2.152-2.854-3.188-5.379-3.163c-7.438,0.081-14.879,0.089-22.316,0
			c-2.634-0.034-3.588,1.044-3.576,3.627c0.068,13.145,0.082,26.285,0.009,39.429c-0.016,2.63,1.002,3.628,3.606,3.593
			c7.825-0.081,15.651-0.025,23.479-0.025c7.826,0,15.651,0.013,23.48-0.008c3.674-0.017,4.543-1.501,2.731-4.685
			C333.438,223.799,326.059,210.898,318.736,197.962z"/>
	</g>
	<path fill-rule="evenodd" clip-rule="evenodd" fill="#E3E0D9" d="M167.362,193.546c0,4.365-3.001,7.902-6.696,7.902H82.899
		c-3.695,0-6.696-3.538-6.696-7.902v-6.904c0-4.36,3.001-7.897,6.696-7.897h77.767c3.695,0,6.696,3.537,6.696,7.897V193.546z"/>
	<path fill-rule="evenodd" clip-rule="evenodd" fill="#E3E0D9" d="M167.362,259.014c0,4.364-3.001,7.901-6.696,7.901H82.899
		c-3.695,0-6.696-3.537-6.696-7.901v-6.904c0-4.361,3.001-7.898,6.696-7.898h77.767c3.695,0,6.696,3.538,6.696,7.898V259.014z"/>
	<path fill-rule="evenodd" clip-rule="evenodd" fill="#E3E0D9" d="M166.361,225.944c0,4.364-4.484,7.901-10.012,7.901H40.061
		c-5.524,0-10.008-3.538-10.008-7.901v-6.905c0-4.36,4.484-7.897,10.008-7.897h116.289c5.528,0,10.012,3.538,10.012,7.897V225.944z"
		/>
	<g>
		<path fill="#CCCCCC" d="M242.436,245.873c-3.845-6.411-6.679-11.972-10.43-15.749c-3.751-3.772-7.322-2.545-9.151-0.759
			c-0.75,0.746-1.352,1.036-1.794,1.117c-0.635,0.128-1.108,0.102-1.722,0.025c-0.456-0.051-1.117-0.298-1.97-1.143
			c-1.833-1.786-5.399-3.013-9.151,0.759c-3.75,3.776-6.588,9.338-10.429,15.749c-3.844,6.424-8.601,13.119-7.322,18.307
			c1.283,5.187,4.757,7.543,10.157,6.695c5.396-0.845,8.14-1.978,10.335-0.474c2.199,1.515,4.65,2.153,9.151,2.17
			c5.2-0.052,6.956-0.655,9.151-2.17c2.195-1.504,4.94-0.371,10.336,0.474c5.4,0.848,8.879-1.509,10.157-6.695
			C251.037,258.992,246.276,252.297,242.436,245.873z"/>
		<path fill="#CCCCCC" d="M176.091,232.064c0,0-1.369-5.775-0.196-11.551c1.177-5.767,4.207-8.503,7.83-9.585
			c3.623-1.079,11.448,1.177,13.311,12.134c1.854,10.958-1.373,16.537-4.604,18.689c-3.226,2.153-7.044,2.054-9.099,1.467
			C181.278,242.633,177.562,239.693,176.091,232.064z"/>
		<path fill="#CCCCCC" d="M193.609,203.004c0,0,0.486-9.492,4.497-13.797c4.015-4.304,8.511-3.819,11.158-2.838
			c2.643,0.98,7.339,4.888,7.046,13.208c-0.294,8.32-1.079,14.773-7.147,17.219c-6.065,2.451-12.13-0.093-14.185-3.618
			C192.922,209.658,193.609,203.004,193.609,203.004z"/>
		<path fill="#CCCCCC" d="M219.437,203.883c0,0-1.274-7.928,2.25-12.625c3.521-4.692,9.59-5.672,14.871-2.736
			c5.285,2.937,8.511,11.742,6.652,18.979c-1.858,7.246-5.22,10.071-9.977,10.766c-4.701,0.682-9.296-1.957-11.546-5.967
			C219.437,208.281,219.437,203.883,219.437,203.883z"/>
		<path fill="#CCCCCC" d="M241.157,232.651c0,0-0.976-8.025,2.251-14.09c3.23-6.07,7.338-7.046,10.08-6.854
			c2.741,0.2,9.295,2.348,10.374,13.11c1.073,10.767-5.192,17.714-10.669,17.909C247.712,242.919,242.236,241.065,241.157,232.651z"
			/>
	</g>
</g>
</svg>
