<?xml version="1.0" encoding="utf-8"?>
<!-- Generator: Adobe Illustrator 16.0.0, SVG Export Plug-In . SVG Version: 6.00 Build 0)  -->
<!DOCTYPE svg PUBLIC "-//W3C//DTD SVG 1.1//EN" "http://www.w3.org/Graphics/SVG/1.1/DTD/svg11.dtd">
<svg version="1.1" id="Layer_1" xmlns="http://www.w3.org/2000/svg" xmlns:xlink="http://www.w3.org/1999/xlink" x="0px" y="0px"
	 width="200px" height="200px" viewBox="0 0 200 200" enable-background="new 0 0 200 200" xml:space="preserve">
<path fill="#434343" d="M181.75,5.75H18.25c-6.627,0-12,5.373-12,12v163.5c0,6.627,5.373,12,12,12h163.5c6.627,0,12-5.373,12-12
	V17.75C193.75,11.123,188.377,5.75,181.75,5.75z M167.99,62.256c-2.151,2.225-4.674,4.088-6.977,6.173
	c-0.393,0.355-0.734,1.023-0.721,1.536c0.409,15.936-3.185,30.94-10.617,44.998c-9.528,18.02-23.408,31.484-42.238,39.604
	c-12.551,5.41-25.706,7.516-39.324,6.99c-11.491-0.441-22.478-3.047-32.926-7.807c-3.683-1.678-7.199-3.721-10.791-5.598
	c0.031-0.131,0.062-0.264,0.092-0.395c16.689,1.535,31.763-2.592,45.413-12.875c-14.255-1.195-23.766-8.328-29.041-21.678
	c4.785,0.678,9.245,0.688,13.927-0.627c-7.392-1.734-13.332-5.336-17.901-11.059c-4.554-5.702-6.823-12.222-6.814-19.797
	c4.361,2.231,8.779,3.595,13.956,3.796c-6.786-4.927-11.164-11.108-12.92-18.976c-1.752-7.85-0.592-15.298,3.387-22.463
	c16.853,19.806,38.121,30.684,64.081,32.495c-0.195-1.924-0.421-3.678-0.542-5.438c-0.479-6.953,1.219-13.406,5.211-19.057
	c7.24-10.248,17.254-14.837,29.771-13.482c6.801,0.736,12.693,3.658,17.607,8.446c0.781,0.761,1.439,1.035,2.591,0.767
	c5.808-1.355,11.345-3.377,16.555-6.283c0.466-0.261,0.948-0.489,1.665-0.855c-1.076,3.716-2.869,6.788-5.072,9.63
	c-2.193,2.825-4.859,5.162-7.813,7.226c5.838-0.553,11.371-2.188,16.75-4.435c0.102,0.13,0.203,0.259,0.305,0.388
	C173.079,56.418,170.678,59.476,167.99,62.256z"/>
</svg>
