<?xml version="1.0" encoding="utf-8"?>
<!-- Generator: Adobe Illustrator 16.0.0, SVG Export Plug-In . SVG Version: 6.00 Build 0)  -->
<!DOCTYPE svg PUBLIC "-//W3C//DTD SVG 1.1//EN" "http://www.w3.org/Graphics/SVG/1.1/DTD/svg11.dtd">
<svg version="1.1" id="Layer_1" xmlns="http://www.w3.org/2000/svg" xmlns:xlink="http://www.w3.org/1999/xlink" x="0px" y="0px"
	 width="500px" height="500px" viewBox="0 0 500 500" enable-background="new 0 0 500 500" xml:space="preserve">
<path fill="#91B6C1" d="M460.943,270.136c0,117.929-95.6,213.514-213.518,213.514S33.912,388.064,33.912,270.136
	c0-117.918,95.595-213.513,213.513-213.513S460.943,152.217,460.943,270.136z"/>
<g>
	<rect x="198.069" y="406.008" fill="#E6E6E6" width="96.89" height="49.651"/>
	<path fill="#E6E6E6" d="M149.316,458.099c0,4.05,3.282,7.337,7.327,7.337h181.568c4.045,0,7.322-3.287,7.322-7.337
		c0-4.04-3.277-7.328-7.322-7.328H156.644C152.599,450.771,149.316,454.059,149.316,458.099
		C149.316,458.099,149.316,454.059,149.316,458.099z"/>
	<path fill="#595558" d="M17.666,400.07c0,7.769,6.298,14.063,14.073,14.063h435.945c7.76,0,14.073-6.294,14.073-14.063V122.887
		c0-7.769-6.313-14.067-14.073-14.067H31.739c-7.774,0-14.073,6.298-14.073,14.067V400.07z"/>
	<path fill="#FFFFFF" d="M31.979,388.606c0,7.774,6.304,14.063,14.068,14.063h407.859c7.765,0,14.063-6.289,14.063-14.063V137.477
		c0-7.764-6.299-14.058-14.063-14.058H46.048c-7.765,0-14.068,6.294-14.068,14.058V388.606z"/>
	<polygon fill="#B3B3B3" points="199.906,414.133 253.433,450.771 294.959,450.771 294.959,414.133 	"/>
</g>
<path fill-rule="evenodd" clip-rule="evenodd" fill="#FFFFFF" d="M364.325,142.099c0,64.894-52.603,117.498-117.492,117.498
	c-64.894,0-117.497-52.604-117.497-117.498c0-64.889,52.603-117.492,117.497-117.492C311.723,24.607,364.325,77.21,364.325,142.099z
	"/>
<g>
	<path fill-rule="evenodd" clip-rule="evenodd" fill="#CCCCCC" d="M254.256,16.477c3.81,0.487,7.629,0.888,11.423,1.471
		c30.42,4.647,55.72,18.645,75.71,41.998c16.196,18.921,25.651,40.879,28.462,65.637c7.112,62.741-33.365,120.147-94.671,134.271
		c-19.338,4.456-38.65,4.241-57.898-0.612c-0.457-0.115-0.893-0.286-1.606-0.522c2.108-7.839,4.196-15.604,6.279-23.368
		c54.595,14.138,103.84-19.172,118.983-63.138c15.357-44.593-2.484-93.226-43.258-117.592c-39.9-23.845-91.74-15.97-123.254,18.721
		c-31.815,35.021-32.131,83.725-12.01,116.277c3.694-3.724,7.393-7.458,11.614-11.709c5.666,21.049,11.122,41.311,16.713,62.063
		c-20.648-5.551-40.975-11.012-61.657-16.567c4.678-4.688,9.024-9.175,13.536-13.476c1.596-1.521,1.887-2.54,0.607-4.563
		c-10.977-17.33-17.13-36.281-18.58-56.749c-0.065-0.863-0.296-1.711-0.452-2.56c0-4.336,0-8.672,0-13.009
		c0.161-0.773,0.412-1.536,0.472-2.314c1.561-21.998,8.412-42.229,20.964-60.337c19.674-28.377,46.605-45.767,80.644-51.945
		c4.793-0.868,9.661-1.325,14.495-1.978C245.267,16.477,249.759,16.477,254.256,16.477z"/>
	<path fill-rule="evenodd" clip-rule="evenodd" fill="#CCCCCC" d="M178.672,111.188c3.267-5.631,6.469-11.157,9.747-16.813
		c7.016,4.041,13.822,7.945,20.612,11.865c9.792,5.646,19.559,11.333,29.401,16.894c0.943,0.537,2.444,0.658,3.503,0.352
		c6.665-1.922,12.622-0.768,17.581,4.08c4.949,4.849,6.279,10.761,4.452,17.476c-0.307,1.125-0.07,2.695,0.507,3.725
		c4.918,8.728,9.968,17.38,14.977,26.058c0.472,0.818,0.928,1.646,1.5,2.665c-5.696,3.277-11.222,6.454-16.948,9.752
		c-2.841-4.894-5.571-9.586-8.292-14.289c-2.734-4.712-5.375-9.485-8.24-14.118c-0.612-0.983-1.942-1.882-3.087-2.118
		c-6.755-1.385-12.326-6.635-13.591-13.36c-0.316-1.696-1.054-2.655-2.495-3.478c-15.925-9.134-31.815-18.319-47.709-27.494
		C179.972,112.026,179.384,111.63,178.672,111.188z"/>
</g>
<g>
	<path fill="#CCCCCC" d="M84.221,344.234v-35.308c0-1.546,0.562-2.881,1.687-4.005c1.124-1.124,2.459-1.687,4.005-1.687h18.409
		c1.521,0,2.841,0.563,3.95,1.687c1.114,1.124,1.671,2.459,1.671,4.005v35.308c0,1.571-0.557,2.911-1.671,4.025
		c-1.109,1.109-2.449,1.666-4.02,1.666H89.913c-1.591,0-2.941-0.557-4.04-1.666C84.773,347.146,84.221,345.806,84.221,344.234z
		 M108.111,344.024v-34.816H90.124v34.816H108.111z"/>
	<path fill="#CCCCCC" d="M127.68,344.234v-35.308c0-1.546,0.562-2.881,1.687-4.005c1.124-1.124,2.459-1.687,4.005-1.687h18.409
		c1.521,0,2.841,0.563,3.95,1.687c1.114,1.124,1.671,2.459,1.671,4.005v35.308c0,1.571-0.557,2.911-1.671,4.025
		c-1.109,1.109-2.449,1.666-4.021,1.666h-18.339c-1.591,0-2.941-0.557-4.04-1.666C128.232,347.146,127.68,345.806,127.68,344.234z
		 M151.569,344.024v-34.816h-17.987v34.816H151.569z"/>
	<path fill="#CCCCCC" d="M214.597,344.234v-35.308c0-1.546,0.563-2.881,1.687-4.005s2.459-1.687,4.005-1.687h18.409
		c1.521,0,2.841,0.563,3.95,1.687c1.114,1.124,1.671,2.459,1.671,4.005v35.308c0,1.571-0.557,2.911-1.671,4.025
		c-1.109,1.109-2.449,1.666-4.021,1.666h-18.339c-1.591,0-2.941-0.557-4.04-1.666C215.149,347.146,214.597,345.806,214.597,344.234z
		 M238.487,344.024v-34.816h-17.988v34.816H238.487z"/>
	<path fill="#CCCCCC" d="M258.056,344.234v-35.308c0-1.546,0.562-2.881,1.687-4.005c1.124-1.124,2.459-1.687,4.005-1.687h18.409
		c1.521,0,2.841,0.563,3.949,1.687c1.114,1.124,1.672,2.459,1.672,4.005v35.308c0,1.571-0.558,2.911-1.672,4.025
		c-1.108,1.109-2.449,1.666-4.02,1.666h-18.339c-1.591,0-2.941-0.557-4.04-1.666C258.607,347.146,258.056,345.806,258.056,344.234z
		 M281.945,344.024v-34.816h-17.988v34.816H281.945z"/>
	<path fill="#CCCCCC" d="M344.973,344.234v-35.308c0-1.546,0.562-2.881,1.686-4.005c1.125-1.124,2.46-1.687,4.006-1.687h18.409
		c1.521,0,2.841,0.563,3.95,1.687c1.113,1.124,1.671,2.459,1.671,4.005v35.308c0,1.571-0.558,2.911-1.671,4.025
		c-1.109,1.109-2.449,1.666-4.021,1.666h-18.339c-1.592,0-2.941-0.557-4.041-1.666C345.524,347.146,344.973,345.806,344.973,344.234
		z M368.862,344.024v-34.816h-17.987v34.816H368.862z"/>
	<path fill="#CCCCCC" d="M388.431,344.234v-35.308c0-1.546,0.563-2.881,1.687-4.005s2.459-1.687,4.005-1.687h18.409
		c1.521,0,2.841,0.563,3.95,1.687c1.114,1.124,1.671,2.459,1.671,4.005v35.308c0,1.571-0.557,2.911-1.671,4.025
		c-1.109,1.109-2.449,1.666-4.021,1.666h-18.339c-1.591,0-2.94-0.557-4.04-1.666C388.982,347.146,388.431,345.806,388.431,344.234z
		 M412.32,344.024v-34.816h-17.987v34.816H412.32z"/>
</g>
<rect x="183.153" y="313.59" fill="#CCCCCC" width="6.424" height="6.424"/>
<rect x="183.153" y="334.146" fill="#CCCCCC" width="6.424" height="6.425"/>
<rect x="311.637" y="313.59" fill="#CCCCCC" width="6.424" height="6.424"/>
<rect x="311.637" y="334.146" fill="#CCCCCC" width="6.424" height="6.425"/>
</svg>
