<?xml version="1.0" encoding="utf-8"?>
<!-- Generator: Adobe Illustrator 16.0.0, SVG Export Plug-In . SVG Version: 6.00 Build 0)  -->
<!DOCTYPE svg PUBLIC "-//W3C//DTD SVG 1.1//EN" "http://www.w3.org/Graphics/SVG/1.1/DTD/svg11.dtd">
<svg version="1.1" id="Layer_1" xmlns="http://www.w3.org/2000/svg" xmlns:xlink="http://www.w3.org/1999/xlink" x="0px" y="0px"
	 width="500px" height="500px" viewBox="0 0 500 500" enable-background="new 0 0 500 500" xml:space="preserve">
<path fill="#91B6C1" d="M468.868,262.583c0,120.985-98.078,219.047-219.053,219.047c-120.975,0-219.047-98.062-219.047-219.047
	c0-120.976,98.072-219.048,219.047-219.048C370.79,43.535,468.868,141.607,468.868,262.583z"/>
<g>
	<path fill="#C7403B" d="M198.789,288.199l-66.463,50.764c0,0-38.288,33.875-34.416,94.236
		c22.439,19.864,43.869,66.267,140.345,63.688c96.477-2.58,159.932-70.165,159.932-70.165s15.103-50.62-53.719-93.896
		c-68.821-43.272-80.9-44.626-80.9-44.626H198.789z"/>
	<path fill="#323232" d="M268.943,25.818c0,0-66.555-52.108-130.526,26.831c-63.976,78.934-33.02,143.419-33.02,143.419
		s1.55-18.058,2.579-23.217c1.035-5.159,16.508,95.446,16.508,95.446s17.542,8.769,25.281,7.224c1.03-6.709,2.58-11.354,2.58-11.354
		l1.029,11.534c0,0,61.556,17.357,74.114,16.327c12.563-1.029,57.962-11.348,62.087-14.447c4.129-3.095,0-13.414,0-13.414
		l6.709,11.869c0,0,33.02-9.289,33.535-12.384C330.335,260.559,388.632,35.106,268.943,25.818z"/>
	<path fill="#CCA173" d="M196.462,254.926c0,0-7.904,32.325,0,63.971c7.914,31.646,38.112,89.881,38.112,89.881l37.212-92.975
		c0,0,6.884-26.142,3.444-60.877C271.786,220.186,196.462,254.926,196.462,254.926z"/>
	<path fill="#DFB280" d="M146.939,161.544c0,0-28.896-13.928-21.152,23.217c7.734,37.145,30.95,32.5,30.95,32.5
		s32.506,75.324,77.389,74.809c44.883-0.515,76.354-74.294,76.354-74.294s23.731-3.609,32.5-37.145
		c8.774-33.535-24.246-24.247-25.791-19.087c-37.149,3.095-50.563-52.107-50.563-52.107s-10.834,41.789-52.108,59.332
		c23.217-21.672,29.411-39.209,29.411-39.209s-32.505,43.333-90.802,38.174c13.413-3.094,22.702-8.769,22.702-8.769
		S154.879,163.872,146.939,161.544z"/>
	<path fill="#262424" d="M207.944,182.65c0,6.019-4.912,10.905-11.003,10.905c-6.06,0-10.982-4.887-10.982-10.905
		c0-6.024,4.922-10.9,10.982-10.9C203.032,171.75,207.944,176.626,207.944,182.65z"/>
	<path fill="#FFFFFF" d="M208.119,177.331c0,2.24-1.838,4.068-4.099,4.068c-2.245,0-4.058-1.828-4.058-4.068
		c0-2.26,1.813-4.099,4.058-4.099C206.281,173.232,208.119,175.071,208.119,177.331z"/>
	<path fill="#262424" d="M274.551,182.65c0,6.019-4.901,10.905-10.978,10.905c-6.081,0-10.998-4.887-10.998-10.905
		c0-6.024,4.917-10.9,10.998-10.9C269.649,171.75,274.551,176.626,274.551,182.65z"/>
	<path fill="#FFFFFF" d="M274.716,177.331c0,2.24-1.817,4.068-4.073,4.068c-2.244,0-4.078-1.828-4.078-4.068
		c0-2.26,1.834-4.099,4.078-4.099C272.898,173.232,274.716,175.071,274.716,177.331z"/>
	<path fill="#444645" d="M211.847,227.631h43.941c0,0,4.547,24.545-21.971,24.545C207.3,252.177,211.847,227.631,211.847,227.631z"
		/>
	<rect x="211.023" y="227.631" fill="#FFFFFF" width="45.553" height="7.976"/>
	<path fill="#D56C60" d="M219.761,249.175c3.203,1.833,7.507,3.002,13.29,3.002c6.096,0,10.524-1.303,13.773-3.301
		c-0.468-4.026-6.328-7.208-13.521-7.208C225.95,241.667,219.972,245.024,219.761,249.175z"/>
	<path fill="#C7403B" d="M353.649,409.467c0,0-26.312,26.481-22.872,41.614c3.445,15.138,15.823,37.489,43.339,32.33
		c27.517-5.159,41.439-51.587,18.058-77.038C368.787,380.921,353.649,409.467,353.649,409.467z"/>
	<path fill="#B73B34" d="M340.756,399.494c0,0-6.889,6.873-10.323,18.912c0.345-34.735,31.661-37.485-55.882-116.249
		c0,0,1.148-6.977,0.818-9.247c0,0,128.328,49.955,124.199,122.978C388.739,390.205,358.906,388.006,340.756,399.494z"/>
	<path fill="#B73B34" d="M343.007,441.818c0,0-7.209,15.462,1.457,22.336c8.671,6.874,36.687,15.803,47.19,0
		c10.509-15.802,0.834-22.336,0.834-22.336H343.007z"/>
	<path fill="#CCA173" d="M428.149,196.547c-5.957-3.769-11.456,5.911-11.456,5.911s-18.325,35.703-20.987,35.703
		c-2.657,0,5.777-36.779,6.323-39.147c0.556-2.369,6.967-32.264-1.648-33.34c-8.613-1.071-12.002,26.775-14.844,40.116
		c-2.843,13.336-6.596,25.091-8.188,24.736c-1.586-0.355-1.462-6.38-1.462-6.38s0.242-48.467,0-53.915
		c-0.247-5.448-1.715-14.912-9.063-14.623c-7.347,0.283-6.58,15.035-6.58,15.035s0.247,43.462,0.247,50.918
		c0,7.461-4.155,9.752-8.794-5.447c-8.306-28.958-14.417-48.75-23.217-45.018c-8.8,3.723,8.552,50.465,10.262,57.643
		c1.71,7.167,1.22,24.658,1.22,24.658c-0.046,2.781-1.709,6.313-1.709,6.313s-2.683,3.718-3.908,1.432
		c-11.971-29.539-40.559-28.103-40.806-19.216c-0.247,8.893,14.412,8.887,20.529,25.009c15.144,42.505,34.204,45.537,34.204,45.537
		l-2.688,137.652c0,0,3.244,18.418,26.703,19.351c23.463,0.932,23.392-21.935,23.392-21.935s-3.913-115.853-4.366-131.629
		c9.066-3.331,16.765-30.111,16.492-49.574c-0.273-19.463,8.248-30.327,12.095-37.85
		C423.747,220.953,434.102,200.306,428.149,196.547z"/>
	<path fill="#B29B7E" d="M239.6,209.502c0,0.973-2.832,1.75-6.307,1.75c-3.486,0-6.302-0.777-6.302-1.75
		c0-0.968,2.816-1.756,6.302-1.756C236.768,207.746,239.6,208.534,239.6,209.502z"/>
</g>
</svg>
