<?xml version="1.0" encoding="utf-8"?>
<!-- Generator: Adobe Illustrator 16.0.0, SVG Export Plug-In . SVG Version: 6.00 Build 0)  -->
<!DOCTYPE svg PUBLIC "-//W3C//DTD SVG 1.1//EN" "http://www.w3.org/Graphics/SVG/1.1/DTD/svg11.dtd">
<svg version="1.1" id="Layer_1" xmlns="http://www.w3.org/2000/svg" xmlns:xlink="http://www.w3.org/1999/xlink" x="0px" y="0px"
	 width="500px" height="500px" viewBox="0 0 500 500" enable-background="new 0 0 500 500" xml:space="preserve">
<path fill="#91B6C1" d="M454.123,275.596c0,114.218-92.591,206.793-206.797,206.793c-114.208,0-206.793-92.575-206.793-206.793
	c0-114.207,92.585-206.792,206.793-206.792C361.532,68.803,454.123,161.389,454.123,275.596z"/>
<g>
	<rect x="199.781" y="407.19" fill="#E6E6E6" width="93.84" height="48.089"/>
	<path fill="#E6E6E6" d="M152.562,457.643c0,3.922,3.179,7.106,7.097,7.106h175.853c3.918,0,7.093-3.185,7.093-7.106
		c0-3.913-3.175-7.098-7.093-7.098H159.659C155.741,450.545,152.562,453.729,152.562,457.643
		C152.562,457.643,152.562,453.729,152.562,457.643z"/>
	<path fill="#595558" d="M25.056,401.44c0,7.524,6.1,13.62,13.63,13.62h422.224c7.515,0,13.63-6.096,13.63-13.62V132.982
		c0-7.525-6.115-13.625-13.63-13.625H38.686c-7.53,0-13.63,6.1-13.63,13.625V401.44z"/>
	<path fill="#FFFFFF" d="M38.919,390.338c0,7.529,6.105,13.62,13.625,13.62h395.022c7.52,0,13.62-6.091,13.62-13.62V147.113
		c0-7.52-6.101-13.616-13.62-13.616H52.544c-7.52,0-13.625,6.096-13.625,13.616V390.338z"/>
	<polygon fill="#B3B3B3" points="201.56,415.061 253.401,450.545 293.621,450.545 293.621,415.061 	"/>
</g>
<g>
	<path fill-rule="evenodd" clip-rule="evenodd" fill="#E3E0D9" d="M437.383,242.032c-0.073,39.393-32.034,71.266-71.358,71.159
		c-39.389-0.106-71.237-32.111-71.091-71.426c0.146-39.32,32.077-71.105,71.354-71.018
		C405.592,170.829,437.45,202.78,437.383,242.032z M389.9,239.071c0-0.855,0-1.395,0-1.939c0-11.579,0-23.152,0-34.731
		c0-2.654-0.714-3.402-3.305-3.402c-13.558-0.005-27.114-0.01-40.672-0.005c-2.901,0.005-3.523,0.666-3.523,3.636
		c0,11.579,0,23.158-0.005,34.731c0,0.53-0.049,1.05-0.073,1.696c-0.69,0-1.229,0-1.765,0c-4.997,0-9.994,0-14.996,0.005
		c-1.146,0-2.221,0.243-2.707,1.415c-0.501,1.21,0.024,2.158,0.904,3.043c13.45,13.421,26.881,26.867,40.321,40.297
		c1.497,1.497,2.648,1.473,4.17-0.054c13.373-13.362,26.735-26.73,40.117-40.078c0.899-0.899,1.595-1.823,1.104-3.126
		c-0.51-1.356-1.716-1.497-2.95-1.497c-3.515,0.005-7.029,0.005-10.538,0.01C394.014,239.071,392.05,239.071,389.9,239.071z"/>
</g>
<path fill-rule="evenodd" clip-rule="evenodd" fill="#CCCCCC" d="M366.287,170.746c-0.044,0-0.088,0-0.127,0v28.252
	c6.811,0,13.62-0.005,20.436,0c2.591,0,3.305,0.749,3.305,3.402c0,11.579,0,23.153,0,34.731c0,0.544,0,1.084,0,1.939
	c2.149,0,4.113,0,6.082,0c3.509-0.005,7.023-0.005,10.538-0.01c1.234,0,2.44,0.141,2.95,1.497c0.491,1.303-0.204,2.227-1.104,3.126
	c-13.382,13.348-26.744,26.716-40.117,40.078c-0.763,0.763-1.429,1.152-2.09,1.161v28.267c39.262,0.034,71.149-31.805,71.223-71.159
	C437.45,202.78,405.592,170.829,366.287,170.746z"/>
<rect x="96.555" y="68.803" fill="#FFFFFF" width="305.217" height="96.65"/>
<g>
	<path fill-rule="evenodd" clip-rule="evenodd" fill="#E3E0D9" d="M277.721,298.594c-6.11,0-11.948,0-17.781,0
		c-46.893-0.016-93.781-0.006-140.67-0.049c-20.401-0.02-35.567-12.692-38.829-32.733c-0.763-4.672-0.418-9.537-0.418-14.315
		c-0.019-54.136-0.043-108.268,0.01-162.403c0.015-18.656,12.08-33.924,30.308-37.594c6.212-1.25,12.784-0.928,19.191-0.943
		c33.627-0.078,67.255-0.073,100.883,0.043c3.14,0.015,5.031-0.714,6.309-3.743c1.964-4.647,4.302-9.139,6.572-13.645
		c5.293-10.524,13.081-16.294,25.646-16.026c25.004,0.525,50.028,0.141,75.047,0.131c13.484,0,21.704,8.152,21.831,21.66
		c0.033,3.67,0.005,7.335,0.005,11.632c5.162,0,9.916-0.189,14.655,0.029c16.328,0.763,27.857,8.764,34.274,23.726
		c1.585,3.689,2.008,7.894,2.795,11.895c0.287,1.454,0.126,2.999,0.126,4.501c0.005,21.184,0,42.368,0,63.722
		c-6.883-2.722-13.591-5.245-20.144-8.113c-0.831-0.365-1.21-2.547-1.215-3.889c-0.078-16.678-0.01-33.351-0.088-50.034
		c-0.015-2.98-0.063-6.091-0.88-8.915c-2.144-7.398-8.438-11.549-16.906-11.554c-39.509-0.015-79.019-0.005-118.523-0.005
		c-46.344,0-92.688-0.078-139.032,0.131c-4.156,0.02-8.759,1.099-12.361,3.101c-5.585,3.097-7.224,8.886-7.219,15.142
		c0.034,33.492,0.015,66.979,0.02,100.475c0.005,22.555-0.044,45.109,0.058,67.665c0.059,12.424,6.611,18.816,19.152,18.826
		c47.705,0.02,95.415,0.029,143.125-0.093c3.631-0.01,5.483,0.759,6.723,4.55C272.223,287.408,275.091,292.712,277.721,298.594z"/>
</g>
<path fill-rule="evenodd" clip-rule="evenodd" fill="#CCCCCC" d="M244.205,51.109h114.299c0,0,3.554-28.436-16.954-28.164
	c-20.509,0.277-64.529,0-64.529,0s-19.687-2.183-24.883,8.755C246.941,42.637,244.205,51.109,244.205,51.109z"/>
</svg>
