<?xml version="1.0" encoding="utf-8"?>
<!-- Generator: Adobe Illustrator 16.0.0, SVG Export Plug-In . SVG Version: 6.00 Build 0)  -->
<!DOCTYPE svg PUBLIC "-//W3C//DTD SVG 1.1//EN" "http://www.w3.org/Graphics/SVG/1.1/DTD/svg11.dtd">
<svg version="1.1" id="Layer_1" xmlns="http://www.w3.org/2000/svg" xmlns:xlink="http://www.w3.org/1999/xlink" x="0px" y="0px"
	 width="500px" height="500px" viewBox="0 0 500 500" enable-background="new 0 0 500 500" xml:space="preserve">
<g>
	<path fill="#299B83" d="M214.345,438.158c0.875-33.609,1.834-67.22,2.732-100.83c-5.061,3.625-8.882,8.461-11.464,14.184
		c-3.935,8.706-9.397,15.671-17.971,20.114c-0.9,0.468-1.749,2.059-1.726,3.1c0.485,21.159,1.126,42.314,1.676,63.474
		c0.11,4.28,0.008,8.57-0.017,13.012c8.651,2.903,17.567,5.224,26.707,6.914C214.217,451.405,214.18,444.772,214.345,438.158z"/>
	<path fill="#299B83" d="M170.372,355.673c1.486-2.553,2.503-4.952,4.098-6.878c1.672-2.017,3.735-3.826,5.921-5.279
		c2.167-1.45,4.711-2.345,7.082-3.472C179.363,339.567,171.812,346.296,170.372,355.673z"/>
	<path fill="#299B83" d="M367.719,330.619c-2.586,4.704-5.344,9.314-7.871,14.051c-0.885,1.653-1.412,3.589-1.686,5.461
		c-0.869,6.093-1.186,12.281-2.381,18.306c-0.977,4.948-3.621,9.246-7.414,12.772c-0.646,0.586-0.838,1.936-0.795,2.916
		c0.609,16.888,1.26,33.767,1.908,50.646c2.288-1.332,4.549-2.705,6.777-4.124c0.101-1.371,0.181-2.567,0.314-3.758
		C360.304,394.804,364.041,362.714,367.719,330.619z"/>
	<path fill="#299B83" d="M154.569,373.512c-4.289-3.98-7.275-8.842-8.378-14.43c-1.354-6.807-1.713-13.804-2.694-20.688
		c-0.305-2.112-0.904-4.303-1.903-6.175c-3.199-5.988-6.734-11.795-9.946-17.783c-0.143-0.268-0.272-0.548-0.409-0.821
		c-1.214,1.771-2.567,3.477-4.049,5.11c-1.003,1.108-1.14,3.471-0.927,5.161c4.234,34.416,8.584,68.818,12.904,103.225
		c4.558,3.116,9.25,6.05,14.071,8.783c0.759-19.693,1.52-39.386,2.231-59.084C155.514,375.702,155.296,374.176,154.569,373.512z"/>
	<path fill="#299B83" d="M395.955,283.722c2.693-3.912,4.635-7.633,7.424-10.522c2.932-3.035,6.471-5.68,10.156-7.746
		c3.658-2.046,7.842-3.158,11.795-4.686C412.385,259.005,399.428,268.859,395.955,283.722z"/>
	<path fill="#299B83" d="M482.543,240.608c-12.306-4.16-28.32,2.061-35.445,8.109c-0.507-6.573-1.335-13.057-2.472-19.434
		l14.39-35.596c0,0,5.088-14.104-4.217-19.483c-8.658-5.006-17.564-4.716-24.033,9.866c-13.717-30.861-35.115-57.55-61.774-77.635
		c-1.561-5.243-4.953-9.896-10.575-13.035c-4.108-2.296-8.318-2.587-12.248-1.805c-5.578-3.104-11.32-5.943-17.214-8.505
		c0.841-11.599-1.117-27.935-17.845-31.564c-16.387-3.555-24.506,8.326-28.322,17.948c-2.177-0.36-4.363-0.691-6.564-0.979
		c-0.966-21.511-5.299-34.24-26.551-33.603c-20.716,0.625-23.901,21.495-24.019,33.459c-3.968,0.497-7.896,1.119-11.787,1.848
		c-4.769-8.81-12.925-16.014-28.677-12.657c-14.114,3.008-16.457,15.729-15.707,26.571
		c-47.845,21.539-85.548,61.594-103.999,111.034c-6.372-12.561-14.833-12.592-23.067-7.832c-9.305,5.379-4.217,19.482-4.217,19.482
		l15.74,38.936c-0.437,4.722-0.71,9.49-0.808,14.303c-7.004-6.11-23.233-12.521-35.673-8.312
		c-13.186,4.461-6.202,19.383-0.967,19.964c5.234,0.582,20.45,10.277,27.138,24.817c5.192,11.286,13.359,18.364,16.755,20.968
		c4.969,17.732,12.359,34.45,21.781,49.785c-0.843-14.181-1.696-28.36-2.597-42.537c-0.109-1.596-1.617-3.903-3.044-4.489
		c-13.658-5.647-22.909-15.548-30.06-28.302c-5.966-10.655-14.744-18.906-26.357-23.622c-3.003-1.218-5.089-3.472-4.53-6.689
		c0.591-3.506,3.376-5.406,6.924-5.688c8.324-0.664,16.143,1.408,22.945,6.007c5.734,3.88,10.805,8.751,16.966,13.839
		c2.462-8.424,3.489-16.72,0.427-24.958c-5.675-15.208-11.745-30.26-17.538-45.422c-1.894-4.971-0.713-8.642,3.008-10.664
		c4.671-2.531,8.828-0.968,11.364,4.466c6.288,13.527,12.486,27.099,18.747,40.633c0.731,1.55,1.645,3.003,2.517,4.576
		c3.499-1.136,3.949-3.385,3.626-6.297c-1.799-16.321-3.53-32.641-5.229-48.971c-0.159-1.582-0.259-3.253,0.063-4.78
		c0.904-4.366,4.026-6.202,8.21-6.625c4.107-0.418,6.292,2.072,7.547,5.407c0.872,2.299,1.299,4.807,1.581,7.266
		c1.822,16.166,3.553,32.345,5.33,48.52c0.15,1.273,0.414,2.54,0.622,3.808c0.455,0.182,0.909,0.354,1.381,0.522
		c0.823-1.813,2.04-3.548,2.417-5.457c2.912-14.776,5.647-29.587,8.496-44.382c0.382-1.99,0.578-4.498,1.858-5.725
		c1.927-1.845,4.753-3.771,7.17-3.735c1.758,0.027,4.389,2.894,4.993,4.971c0.968,3.262,1.077,6.988,0.636,10.395
		c-1.917,14.803-4.175,29.552-6.247,44.323c-0.218,1.604-0.059,3.258-0.078,4.884c0.405,0.109,0.792,0.227,1.183,0.332
		c0.771-1.268,1.604-2.508,2.298-3.816c5.429-10.218,10.8-20.469,16.27-30.665c0.959-1.79,1.895-4.18,3.481-4.912
		c2.399-1.109,5.611-1.849,7.969-1.113c1.514,0.467,3.071,3.966,2.899,5.952c-0.358,3.844-1.54,7.742-3.071,11.318
		c-4.103,9.546-8.738,18.87-12.813,28.429c-1.277,2.98-1.913,6.397-2.094,9.659c-0.582,10.628-0.204,21.342-1.368,31.896
		c-0.303,2.797-0.921,5.502-1.815,8.108c0.842,0.58,1.481,1.806,2.097,2.76c4.139,6.325,8.214,12.695,12.327,19.038
		c0.522,0.817,1.131,1.572,1.704,2.358c0.254-0.096,0.495-0.188,0.754-0.287c-0.1-1.055-0.096-2.145-0.323-3.171
		c-2.186-9.501-4.49-18.975-6.57-28.498c-0.478-2.194-0.613-4.63-0.172-6.807c0.277-1.39,1.827-3.398,2.971-3.517
		c1.568-0.163,3.522,0.937,4.875,2.026c0.905,0.728,1.173,2.345,1.536,3.622c2.685,9.469,5.298,18.955,8.034,28.411
		c0.35,1.218,1.24,2.28,1.885,3.416c0.286-0.137,0.577-0.272,0.868-0.418c0.063-0.836,0.163-1.682,0.186-2.517
		c0.245-10.632,0.459-21.26,0.736-31.883c0.046-1.617,0.178-3.275,0.618-4.821c0.627-2.239,1.909-3.988,4.608-3.947
		c2.749,0.041,4.879,1.063,5.716,3.848c0.304,0.981,0.327,2.072,0.309,3.108c-0.182,10.732-0.387,21.454-0.631,32.177
		c-0.046,1.913,0.372,3.354,2.707,3.898c0.487-1.076,1-2.075,1.382-3.126c3.312-9.164,6.583-18.347,9.918-27.506
		c1.34-3.681,3.948-4.935,7.138-3.553c2.535,1.107,3.512,3.435,2.558,6.773c-2.908,10.196-6.012,20.343-8.846,30.56
		c-1.531,5.535-0.396,10.878,1.681,16.227c3.721-3.663,6.747-7.12,10.264-9.969c3.702-3,8.035-4.74,12.778-5.122
		c0.399-15.24,0.786-30.48,1.135-45.721c0.059-2.586-2.045-6.516-4.267-7.669c-21.223-10.996-34.74-28.234-44.476-49.785
		c-8.116-17.983-21.11-32.509-39.157-41.732c-4.657-2.381-7.71-6.298-6.375-11.396c1.454-5.57,6.202-8.251,11.958-8.206
		c13.5,0.086,25.808,4.521,36.122,12.886c8.709,7.047,16.188,15.602,25.399,24.653c5.152-13.222,7.955-26.444,4.166-40.138
		c-7.015-25.285-14.694-50.397-21.896-75.632c-2.362-8.26,0.05-14.004,6.338-16.752c7.888-3.421,14.349-0.323,17.666,8.782
		c8.242,22.672,16.338,45.39,24.54,68.081c0.949,2.59,2.222,5.062,3.421,7.72c5.775-1.34,6.815-4.903,6.702-9.632
		c-0.618-26.548-1.118-53.087-1.578-79.626c-0.036-2.572,0.027-5.271,0.772-7.702c2.063-6.892,7.338-9.409,14.15-9.519
		c6.674-0.1,9.841,4.226,11.399,9.769c1.09,3.817,1.422,7.934,1.525,11.927c0.678,26.293,1.215,52.592,1.818,78.899
		c0.066,2.081,0.313,4.152,0.473,6.229c0.709,0.35,1.422,0.687,2.141,1.031c1.594-2.808,3.797-5.434,4.666-8.451
		c6.76-23.399,13.23-46.875,19.877-70.307c0.908-3.153,2.203-6.579,3.803-8.96c2.594-3.862,7.857-7.378,12.068-5.016
		c2.475,1.391,6.656,5.271,7.348,8.701c1.1,5.384,0.76,11.413-0.434,16.843c-5.143,23.572-10.84,47.007-16.252,70.525
		c-0.563,2.544-0.545,5.229-0.803,7.851c0.635,0.236,1.254,0.468,1.867,0.7c1.412-1.94,2.936-3.817,4.225-5.834
		c10.17-15.699,20.26-31.456,30.502-47.118c1.785-2.753,4.27-5.452,6.297-7.428c2.74-2.676,9.121-2.98,12.994-0.682
		c2.195,1.305,4.395,6.82,3.832,9.992c-1.119,6.134-3.566,12.259-6.535,17.811c-7.945,14.803-16.711,29.179-24.615,44
		c-2.469,4.634-3.959,10.05-4.717,15.275c-2.422,17.039-3.318,34.35-6.666,51.197c-2.73,13.831-10.119,25.853-20.734,35.699
		c-1.787,1.649-2.334,5.42-2.225,8.183c0.652,18.034,1.323,36.068,2.001,54.102c3.017,0.698,5.805,2.054,8.272,4.052
		c3.111,2.522,5.793,5.579,9.082,8.819c1.84-4.73,2.846-9.46,1.49-14.358c-2.506-9.041-5.256-18.019-7.828-27.042
		c-0.846-2.953,0.018-5.007,2.264-5.988c2.82-1.228,5.129-0.119,6.314,3.139c2.953,8.106,5.848,16.234,8.779,24.34
		c0.34,0.927,0.795,1.818,1.221,2.763c2.068-0.478,2.436-1.754,2.398-3.444c-0.217-9.491-0.398-18.982-0.557-28.475
		c-0.02-0.918,0.004-1.886,0.271-2.754c0.742-2.461,2.627-3.366,5.057-3.402c2.391-0.036,3.521,1.509,4.076,3.494
		c0.391,1.367,0.508,2.834,0.551,4.266c0.244,9.401,0.43,18.807,0.648,28.217c0.023,0.735,0.109,1.48,0.164,2.226
		c0.26,0.128,0.518,0.245,0.768,0.368c0.572-1.004,1.361-1.944,1.672-3.021c2.416-8.369,4.73-16.766,7.105-25.144
		c0.324-1.128,0.559-2.563,1.357-3.203c1.201-0.968,2.934-1.937,4.318-1.795c1.014,0.1,2.385,1.885,2.629,3.111
		c0.387,1.928,0.27,4.085-0.152,6.021c-1.842,8.432-3.881,16.81-5.816,25.226c-0.199,0.909-0.195,1.867-0.281,2.803
		c0.227,0.087,0.441,0.168,0.664,0.25c0.508-0.69,1.045-1.363,1.506-2.081c3.641-5.615,7.248-11.249,10.91-16.852
		c0.641-0.986,1.305-2.313,2.26-2.658c1.238-0.45,2.831-0.707,4.098-0.411c0.115-1.014,0.234-2.028,0.35-3.042
		c0.203-1.781,0.045-4.257-1.023-5.415c-6.396-6.916-10.586-15.081-11.658-24.182c-1.322-11.087-1.035-22.354-1.754-33.522
		c-0.221-3.426-0.922-7.015-2.285-10.137c-4.385-10.005-9.332-19.76-13.75-29.756c-1.639-3.749-2.926-7.837-3.328-11.877
		c-0.219-2.081,1.393-5.77,2.98-6.279c2.465-0.8,5.859-0.046,8.391,1.09c1.674,0.758,2.676,3.257,3.713,5.134
		c5.838,10.664,11.586,21.382,17.396,32.073c0.736,1.372,1.623,2.667,2.449,3.994c0.404-0.118,0.822-0.236,1.232-0.363
		c-0.033-1.708,0.121-3.453-0.119-5.125c-2.322-15.516-4.838-30.996-6.996-46.535c-0.506-3.58-0.418-7.501,0.566-10.941
		c0.619-2.189,3.354-5.229,5.195-5.271c2.547-0.059,5.537,1.94,7.58,3.857c1.357,1.272,1.58,3.913,2.006,6.002
		c3.145,15.521,6.156,31.069,9.365,46.572c0.418,1.999,1.701,3.807,2.588,5.716c0.49-0.191,0.967-0.373,1.455-0.563
		c0.199-1.336,0.467-2.672,0.607-4.017c1.717-17.02,3.377-34.04,5.145-51.051c0.273-2.585,0.691-5.234,1.58-7.656
		c1.291-3.517,3.559-6.157,7.893-5.757c4.404,0.409,7.697,2.309,8.691,6.879c0.352,1.609,0.27,3.367,0.113,5.034
		c-1.635,17.179-3.289,34.354-5.029,51.529c-0.303,3.063,0.191,5.425,3.871,6.584c0.904-1.663,1.859-3.199,2.598-4.834
		c6.453-14.294,12.846-28.615,19.326-42.901c2.613-5.733,6.955-7.419,11.898-4.798c3.932,2.09,5.211,5.939,3.264,11.177
		c-5.949,15.994-12.178,31.882-17.994,47.921c-3.139,8.691-1.979,17.397,0.686,26.23c6.426-5.407,11.711-10.578,17.699-14.712
		c7.111-4.894,15.311-7.156,24.066-6.538c3.736,0.268,6.678,2.24,7.342,5.92c0.605,3.372-1.563,5.762-4.705,7.07
		c-12.168,5.071-21.311,13.831-27.486,25.085c-7.383,13.481-17.01,23.977-31.322,30.038c-1.494,0.636-3.059,3.076-3.148,4.758
		c-1.01,18.565-1.945,37.136-2.872,55.708c13.539-20.718,23.295-44.134,28.271-69.271c3.871-3.694,8.867-9.476,12.449-17.261
		c6.688-14.54,21.904-24.231,27.139-24.813C488.744,259.995,495.727,245.065,482.543,240.608z"/>
	<path fill="#299B83" d="M319.141,438.448c0.488-18.719,1.055-37.443,1.486-56.167c0.02-0.922-0.732-2.331-1.529-2.744
		c-7.584-3.931-12.42-10.096-15.9-17.802c-1.7-3.77-4.017-7.096-6.928-9.881c1.301,34.406,2.631,68.811,3.96,103.214
		c6.44-1.677,12.755-3.665,18.923-5.959C319.123,445.482,319.051,441.962,319.141,438.448z"/>
	<path fill="#299B83" d="M214.635,195.259c5.875,2.799,12.172,5.002,17.534,8.587c5.402,3.603,10.509,8.078,14.644,13.076
		c3.944,4.762,6.471,10.696,10.143,17.024C253.388,210.739,234.704,194.082,214.635,195.259z"/>
	<path fill="#299B83" d="M319.246,351.589c2.1,1.004,4.354,1.79,6.27,3.071c1.932,1.286,3.758,2.891,5.238,4.676
		c1.41,1.704,2.314,3.825,3.627,6.088C333.107,357.128,326.424,351.167,319.246,351.589z"/>
	<path fill="#299B83" d="M72.604,272.049c3.771,1.414,7.765,2.432,11.263,4.354c3.521,1.931,6.906,4.416,9.723,7.274
		c2.686,2.726,4.553,6.252,7.152,9.945C97.307,279.515,84.912,270.255,72.604,272.049z"/>
	<path fill="#299B83" d="M368.648,328.931c1.063-1.981,1.943-4.171,2.34-6.366c0.205-1.136-0.525-3.229-1.367-3.571
		c-0.173-0.07-0.355-0.126-0.545-0.17c-0.449,3.933-0.907,7.863-1.357,11.796C368.028,330.056,368.345,329.497,368.648,328.931z"/>
</g>
</svg>
