<?xml version="1.0" encoding="utf-8"?>
<!-- Generator: Adobe Illustrator 16.0.0, SVG Export Plug-In . SVG Version: 6.00 Build 0)  -->
<!DOCTYPE svg PUBLIC "-//W3C//DTD SVG 1.1//EN" "http://www.w3.org/Graphics/SVG/1.1/DTD/svg11.dtd">
<svg version="1.1" id="Layer_1" xmlns="http://www.w3.org/2000/svg" xmlns:xlink="http://www.w3.org/1999/xlink" x="0px" y="0px"
	 width="500px" height="500px" viewBox="0 0 500 500" enable-background="new 0 0 500 500" xml:space="preserve">
<g>
	<path fill="#F2D08C" d="M448.352,256.619c0,111.273-90.195,201.461-201.455,201.461c-111.264,0-201.456-90.188-201.456-201.461
		c0-111.253,90.192-201.456,201.456-201.456C358.156,55.164,448.352,145.366,448.352,256.619z"/>
	<g>
		<rect x="201.267" y="385.693" fill="#E6E6E6" width="89.557" height="45.895"/>
		<path fill="#E6E6E6" d="M156.203,433.842c0,3.744,3.034,6.781,6.773,6.781h167.829c3.738,0,6.768-3.037,6.768-6.781
			c0-3.734-3.029-6.773-6.768-6.773H162.976C159.237,427.068,156.203,430.107,156.203,433.842
			C156.203,433.842,156.203,430.107,156.203,433.842z"/>
		<path fill="#595558" d="M34.516,380.205c0,7.182,5.822,12.998,13.008,12.998h402.953c7.172,0,13.008-5.816,13.008-12.998V123.998
			c0-7.181-5.836-13.003-13.008-13.003H47.523c-7.186,0-13.008,5.822-13.008,13.003V380.205z"/>
		<path fill="#FFFFFF" d="M47.746,369.609c0,7.186,5.827,12.998,13.003,12.998h376.997c7.172,0,12.998-5.813,12.998-12.998V137.484
			c0-7.177-5.826-12.994-12.998-12.994H60.75c-7.177,0-13.003,5.817-13.003,12.994V369.609z"/>
		<polygon fill="#B3B3B3" points="202.965,393.203 252.441,427.068 290.824,427.068 290.824,393.203 		"/>
	</g>
	<g>
		<path fill-rule="evenodd" clip-rule="evenodd" fill="#B3B3B3" d="M252.404,151.944c8.628,0.464,23.83,1.123,39.005,2.194
			c5.011,0.357,9.964,1.702,14.901,2.783c1.529,0.33,2.986,1.165,4.359,1.953c2.074,1.174,3.197,2.941,2.992,5.446
			c-0.105,1.392-0.189,2.82,0,4.203c0.529,3.859-1.457,6.179-4.74,7.376c-2.084,0.761-2.77,1.818-2.82,4.003
			c-0.199,7.622-1.063,15.166-3.063,22.551c-2.945,10.902-8.995,19.864-17.262,27.384c-4.996,4.532-10.197,8.828-15.254,13.282
			c-1.842,1.633-3.664,3.335-5.288,5.187c-2.552,2.914-2.644,4.931,0.06,7.728c3.142,3.256,6.682,6.129,9.993,9.232
			c5.78,5.432,11.881,10.586,17.188,16.449c7.775,8.592,11.203,19.271,12.623,30.6c0.551,4.436,0.816,8.898,1.08,13.361
			c0.07,1.27,0.492,1.883,1.676,2.281c1.057,0.361,2.055,0.938,3.02,1.531c1.887,1.17,2.941,2.797,2.783,5.154
			c-0.121,1.73-0.111,3.475,0.018,5.201c0.191,2.76-1.002,4.832-3.4,5.799c-3.438,1.377-6.977,2.746-10.604,3.381
			c-12.781,2.25-25.742,2.566-38.69,2.975c-17.16,0.537-34.325,0.268-51.434-1.021c-7.492-0.557-15.072-1.383-22.333-3.182
			c-10.661-2.65-9.231-5.197-8.912-14.66c0.056-1.828,1.364-3.336,3.146-3.809c3.767-1.025,4.36-3.457,4.462-7.051
			c0.302-10.801,2.106-21.354,7.093-31.148c4.013-7.885,10.043-14.088,16.576-19.869c4.694-4.156,9.533-8.154,14.228-12.324
			c1.387-1.23,2.575-2.701,3.729-4.162c1.304-1.66,1.424-3.563,0-5.14c-2.306-2.57-4.727-5.057-7.269-7.404
			c-6.17-5.697-12.688-11.055-18.626-16.993c-8.61-8.615-12.92-19.479-14.608-31.383c-0.715-5.005-0.96-10.085-1.294-15.142
			c-0.079-1.271-0.515-1.842-1.647-2.32c-1.396-0.584-2.95-1.206-3.925-2.282c-0.993-1.077-1.656-2.672-1.925-4.138
			c-0.325-1.883-0.116-3.864-0.116-5.799c-0.019-2.505,1.095-4.24,3.373-5.418c5.005-2.607,10.438-3.628,15.926-4.296
			C213.491,152.5,229.663,152.278,252.404,151.944z M193.325,179.087c0.255,3.438,0.51,6.945,0.793,10.452
			c0.937,11.774,4.904,22.291,13.491,30.618c7.771,7.524,15.796,14.775,23.747,22.101c6.421,5.9,6.435,13.963-0.042,19.864
			c-6.908,6.301-13.833,12.572-20.704,18.91c-9.334,8.605-15.146,19.037-16.283,31.842c-0.367,4.166-0.701,8.342-1.053,12.553
			c1.545-0.129,2.779-0.24,3.999-0.352c0.677,5.576,2.185,7.301,7.459,8.697c0.33,0.088,0.645,0.178,0.974,0.219
			c7.882,0.918,15.736,2.135,23.641,2.686c13.128,0.92,26.299,0.756,39.418-0.402c6.226-0.549,12.433-1.596,18.574-2.779
			c4.357-0.84,7.641-3.201,7.762-8.41c1.123,0.102,2.102,0.186,3.367,0.297c-0.156-2.617-0.324-5.188-0.459-7.766
			c-0.695-13.594-5.102-25.586-15.238-35.045c-7.428-6.916-15.004-13.672-22.365-20.662c-1.675-1.6-3.248-3.684-3.957-5.84
			c-1.666-5.025-0.529-9.623,3.488-13.301c7.288-6.671,14.595-13.328,21.883-20.008c10.271-9.431,15.336-21.266,16.129-35.067
			c0.168-2.895,0.344-5.79,0.516-8.605C263.291,182.645,228.452,182.641,193.325,179.087z"/>
		<path fill-rule="evenodd" clip-rule="evenodd" fill="#B3B3B3" d="M245.997,330.947c-12.233-0.273-24.434-0.617-36.523-2.691
			c-1.373-0.232-2.737-0.557-4.092-0.908c-1.633-0.414-2.05-1.393-1.062-2.799c2.296-3.273,4.435-6.674,6.977-9.76
			c9.139-11.102,19.781-20.564,31.815-28.461c1.897-1.242,3.604-1.336,5.539-0.064c15.308,10.053,28.248,22.523,38.583,37.65
			c1.41,2.061,1.229,2.988-1.248,3.451c-5.313,0.988-10.643,1.963-16,2.395C262.012,330.4,253.99,330.576,245.997,330.947z"/>
		<path fill-rule="evenodd" clip-rule="evenodd" fill="#B3B3B3" d="M218.9,205.706c3.623,0.626,6.824,1.322,10.053,1.716
			c14.2,1.726,28.359,1.712,42.378-1.563c1.707-0.39,3.201-0.121,4.314,1.322c1.104,1.452,0.96,2.983,0.116,4.5
			c-3.508,6.305-8.518,11.264-14.149,15.629c-4.328,3.345-8.745,6.597-13.11,9.881c-1.559,1.173-3.238,1.401-4.806,0.186
			c-6.574-5.112-13.342-10.03-19.563-15.56c-3.229-2.867-5.641-6.717-8.082-10.359C214.289,208.795,216.251,205.655,218.9,205.706z"
			/>
	</g>
	<path fill-rule="evenodd" clip-rule="evenodd" fill="#E6E6E6" d="M253.383,295.945c0,0,5.172,29.629-21.957,29.844
		c27.454,0.941,46.182-0.316,46.566-3.906C278.369,318.283,265.5,302.385,253.383,295.945z"/>
	<path fill-rule="evenodd" clip-rule="evenodd" fill="#B3B3B3" d="M269.852,202.807c0,1.048-10.721,1.897-23.947,1.897
		c-13.221,0-23.942-0.849-23.942-1.897c0-1.04,10.721-1.888,23.942-1.888C259.131,200.918,269.852,201.767,269.852,202.807z"/>
	<path fill="#E6E6E6" d="M243.534,246.164c0,0.937-0.756,1.697-1.698,1.697s-1.707-0.761-1.707-1.697
		c0-0.947,0.765-1.708,1.707-1.708S243.534,245.217,243.534,246.164z"/>
	<path fill="#E6E6E6" d="M249.978,257.705c0,0.732-0.599,1.326-1.332,1.326c-0.729,0-1.322-0.594-1.322-1.326
		s0.594-1.316,1.322-1.316C249.379,256.389,249.978,256.973,249.978,257.705z"/>
	<path fill="#E6E6E6" d="M244.48,266.51c0,1.201-0.969,2.182-2.171,2.182s-2.18-0.98-2.18-2.182s0.979-2.176,2.18-2.176
		S244.48,265.309,244.48,266.51z"/>
	<path fill="#E6E6E6" d="M240.699,275.975c0,0.473-0.385,0.854-0.849,0.854c-0.473,0-0.858-0.381-0.858-0.854
		c0-0.465,0.385-0.85,0.858-0.85C240.314,275.125,240.699,275.51,240.699,275.975z"/>
	<path fill="#E6E6E6" d="M253.768,283.93c0,0.785-0.636,1.424-1.424,1.424c-0.784,0-1.42-0.639-1.42-1.424
		c0-0.783,0.636-1.424,1.42-1.424C253.132,282.506,253.768,283.146,253.768,283.93z"/>
	<path fill="#E6E6E6" d="M257.066,290.021c0,0.908-0.738,1.646-1.656,1.646c-0.904,0-1.643-0.738-1.643-1.646
		c0-0.91,0.738-1.643,1.643-1.643C256.328,288.379,257.066,289.111,257.066,290.021z"/>
	<path fill="#E6E6E6" d="M238.941,290.848c0,0.453-0.366,0.82-0.821,0.82c-0.459,0-0.826-0.367-0.826-0.82
		c0-0.455,0.366-0.826,0.826-0.826C238.575,290.021,238.941,290.393,238.941,290.848z"/>
	<path fill="#E6E6E6" d="M234.757,293.334c0,0.918-0.751,1.664-1.666,1.664c-0.918,0-1.666-0.746-1.666-1.664
		c0-0.92,0.747-1.666,1.666-1.666C234.005,291.668,234.757,292.414,234.757,293.334z"/>
	<path fill="#E6E6E6" d="M238.941,289.195c0,0.459-0.366,0.826-0.821,0.826c-0.459,0-0.826-0.367-0.826-0.826
		c0-0.455,0.366-0.816,0.826-0.816C238.575,288.379,238.941,288.74,238.941,289.195z"/>
	<path fill="#E6E6E6" d="M240.699,255.145c0,0.371,0,0.668,0,0.668S240.699,255.516,240.699,255.145c0-0.367,0-0.658,0-0.658
		S240.699,254.777,240.699,255.145z"/>
	<path fill="#E6E6E6" d="M248.646,249.466c0,0.366-0.292,0.668-0.659,0.668c-0.362,0-0.664-0.302-0.664-0.668
		c0-0.362,0.302-0.659,0.664-0.659C248.354,248.807,248.646,249.104,248.646,249.466z"/>
	<path fill="#E6E6E6" d="M253.192,241.608c0,0.631-0.501,1.141-1.132,1.141s-1.137-0.51-1.137-1.141
		c0-0.626,0.506-1.137,1.137-1.137S253.192,240.981,253.192,241.608z"/>
	<path fill="#E6E6E6" d="M242.973,239.901c0,0.315-0.25,0.57-0.566,0.57c-0.316,0-0.571-0.255-0.571-0.57
		c0-0.307,0.255-0.557,0.571-0.557C242.722,239.344,242.973,239.594,242.973,239.901z"/>
	<path fill="#E6E6E6" d="M243.626,251.494c0,0.338-0.278,0.607-0.617,0.607c-0.33,0-0.603-0.27-0.603-0.607
		c0-0.34,0.273-0.608,0.603-0.608C243.348,250.886,243.626,251.154,243.626,251.494z"/>
	<path fill="#E6E6E6" d="M252.061,255.051c0,0.316-0.26,0.576-0.562,0.576c-0.325,0-0.575-0.26-0.575-0.576
		c0-0.314,0.25-0.564,0.575-0.564C251.801,254.486,252.061,254.736,252.061,255.051z"/>
	<path fill="#E6E6E6" d="M248.646,266.51c0,0-0.144,0-0.325,0c-0.186,0-0.334,0-0.334,0s0.148,0,0.334,0
		C248.502,266.51,248.646,266.51,248.646,266.51z"/>
	<path fill="#E6E6E6" d="M247.639,274.268c0,0.473-0.38,0.857-0.858,0.857c-0.473,0-0.854-0.385-0.854-0.857
		c0-0.475,0.38-0.854,0.854-0.854C247.259,273.414,247.639,273.793,247.639,274.268z"/>
	<path fill="#E6E6E6" d="M254.046,274.693c0,0.236-0.19,0.432-0.423,0.432c-0.24,0-0.431-0.195-0.431-0.432
		c0-0.232,0.19-0.426,0.431-0.426C253.855,274.268,254.046,274.461,254.046,274.693z"/>
	<path fill="#E6E6E6" d="M252.07,268.115c0,0.316-0.26,0.576-0.571,0.576c-0.319,0-0.575-0.26-0.575-0.576
		c0-0.314,0.256-0.574,0.575-0.574C251.811,267.541,252.07,267.801,252.07,268.115z"/>
	<path fill="#E6E6E6" d="M242.973,281.262c0,0.158-0.125,0.289-0.283,0.289c-0.163,0-0.283-0.131-0.283-0.289
		c0-0.148,0.12-0.277,0.283-0.277C242.847,280.984,242.973,281.113,242.973,281.262z"/>
	<path fill="#E6E6E6" d="M262.414,290.848c0,0.453-0.371,0.82-0.83,0.82c-0.449,0-0.82-0.367-0.82-0.82
		c0-0.455,0.371-0.826,0.82-0.826C262.043,290.021,262.414,290.393,262.414,290.848z"/>
	<path fill="#E6E6E6" d="M261.719,282.033c0,0.26-0.218,0.473-0.478,0.473s-0.478-0.213-0.478-0.473c0-0.27,0.218-0.482,0.478-0.482
		S261.719,281.764,261.719,282.033z"/>
	<path fill="#E6E6E6" d="M260.764,273.125c0,0.27-0.209,0.479-0.469,0.479s-0.479-0.209-0.479-0.479c0-0.26,0.219-0.473,0.479-0.473
		S260.764,272.865,260.764,273.125z"/>
	<path fill="#E6E6E6" d="M236.714,269.154c0,0.26-0.209,0.473-0.469,0.473s-0.468-0.213-0.468-0.473
		c0-0.256,0.208-0.463,0.468-0.463S236.714,268.898,236.714,269.154z"/>
	<ellipse fill="#E6E6E6" cx="231.426" cy="281.885" rx="0" ry="0.621"/>
	<circle fill="#E6E6E6" cx="236.246" cy="282.357" r="0.469"/>
	<path fill-rule="evenodd" clip-rule="evenodd" fill="#B3B3B3" d="M139.632,189.334c0,0.993-0.807,1.8-1.805,1.8H65.031
		c-0.997,0-1.804-0.807-1.804-1.8l0,0c0-1.002,0.807-1.809,1.804-1.809h72.796C138.825,187.525,139.632,188.333,139.632,189.334
		L139.632,189.334z"/>
	<path fill-rule="evenodd" clip-rule="evenodd" fill="#B3B3B3" d="M150.701,205.697c0,0.997-0.923,1.805-2.069,1.805H65.292
		c-1.146,0-2.064-0.808-2.064-1.805l0,0c0-0.998,0.918-1.805,2.064-1.805h83.341C149.778,203.892,150.701,204.699,150.701,205.697
		L150.701,205.697z"/>
	<path fill-rule="evenodd" clip-rule="evenodd" fill="#B3B3B3" d="M161.84,223.358c0,0.997-1.04,1.809-2.329,1.809H65.556
		c-1.29,0-2.329-0.812-2.329-1.809l0,0c0-1.002,1.039-1.81,2.329-1.81h93.955C160.8,221.548,161.84,222.355,161.84,223.358
		L161.84,223.358z"/>
	<path fill-rule="evenodd" clip-rule="evenodd" fill="#B3B3B3" d="M149.073,240.829c0,1.002-0.909,1.809-2.032,1.809H65.254
		c-1.123,0-2.027-0.807-2.027-1.809l0,0c0-0.998,0.904-1.81,2.027-1.81h81.787C148.164,239.019,149.073,239.831,149.073,240.829
		L149.073,240.829z"/>
	<path fill-rule="evenodd" clip-rule="evenodd" fill="#B3B3B3" d="M139.632,258.184c0,0.996-0.807,1.805-1.805,1.805H65.031
		c-0.997,0-1.804-0.809-1.804-1.805l0,0c0-0.998,0.807-1.811,1.804-1.811h72.796C138.825,256.373,139.632,257.186,139.632,258.184
		L139.632,258.184z"/>
	<path fill-rule="evenodd" clip-rule="evenodd" fill="#B3B3B3" d="M150.701,274.777c0,0.992-0.923,1.805-2.069,1.805H65.292
		c-1.146,0-2.064-0.813-2.064-1.805l0,0c0-1.002,0.918-1.809,2.064-1.809h83.341C149.778,272.969,150.701,273.775,150.701,274.777
		L150.701,274.777z"/>
	<path fill-rule="evenodd" clip-rule="evenodd" fill="#B3B3B3" d="M161.84,292.434c0,1.002-1.04,1.809-2.329,1.809H65.556
		c-1.29,0-2.329-0.807-2.329-1.809l0,0c0-0.998,1.039-1.809,2.329-1.809h93.955C160.8,290.625,161.84,291.436,161.84,292.434
		L161.84,292.434z"/>
	<path fill-rule="evenodd" clip-rule="evenodd" fill="#B3B3B3" d="M149.073,309.908c0,0.998-0.909,1.805-2.032,1.805H65.254
		c-1.123,0-2.027-0.807-2.027-1.805l0,0c0-0.996,0.904-1.809,2.027-1.809h81.787C148.164,308.1,149.073,308.912,149.073,309.908
		L149.073,309.908z"/>
	<path fill-rule="evenodd" clip-rule="evenodd" fill="#B3B3B3" d="M149.073,326.131c0,1.002-0.909,1.811-2.032,1.811H65.254
		c-1.123,0-2.027-0.809-2.027-1.811l0,0c0-0.996,0.904-1.809,2.027-1.809h81.787C148.164,324.322,149.073,325.135,149.073,326.131
		L149.073,326.131z"/>
	<path fill-rule="evenodd" clip-rule="evenodd" fill="#B3B3B3" d="M354.277,189.334c0,0.993,0.809,1.8,1.805,1.8h72.795
		c1.002,0,1.809-0.807,1.809-1.8l0,0c0-1.002-0.807-1.809-1.809-1.809h-72.795C355.086,187.525,354.277,188.333,354.277,189.334
		L354.277,189.334z"/>
	<path fill-rule="evenodd" clip-rule="evenodd" fill="#B3B3B3" d="M343.209,205.697c0,0.997,0.924,1.805,2.068,1.805h83.34
		c1.15,0,2.068-0.808,2.068-1.805l0,0c0-0.998-0.918-1.805-2.068-1.805h-83.34C344.133,203.892,343.209,204.699,343.209,205.697
		L343.209,205.697z"/>
	<path fill-rule="evenodd" clip-rule="evenodd" fill="#B3B3B3" d="M332.07,223.358c0,0.997,1.039,1.809,2.328,1.809h93.959
		c1.289,0,2.328-0.812,2.328-1.809l0,0c0-1.002-1.039-1.81-2.328-1.81h-93.959C333.109,221.548,332.07,222.355,332.07,223.358
		L332.07,223.358z"/>
	<path fill-rule="evenodd" clip-rule="evenodd" fill="#B3B3B3" d="M344.838,240.829c0,1.002,0.908,1.809,2.031,1.809h81.785
		c1.123,0,2.031-0.807,2.031-1.809l0,0c0-0.998-0.908-1.81-2.031-1.81h-81.785C345.746,239.019,344.838,239.831,344.838,240.829
		L344.838,240.829z"/>
	<path fill-rule="evenodd" clip-rule="evenodd" fill="#B3B3B3" d="M354.277,258.184c0,0.996,0.809,1.805,1.805,1.805h72.795
		c1.002,0,1.809-0.809,1.809-1.805l0,0c0-0.998-0.807-1.811-1.809-1.811h-72.795C355.086,256.373,354.277,257.186,354.277,258.184
		L354.277,258.184z"/>
	<path fill-rule="evenodd" clip-rule="evenodd" fill="#B3B3B3" d="M343.209,274.777c0,0.992,0.924,1.805,2.068,1.805h83.34
		c1.15,0,2.068-0.813,2.068-1.805l0,0c0-1.002-0.918-1.809-2.068-1.809h-83.34C344.133,272.969,343.209,273.775,343.209,274.777
		L343.209,274.777z"/>
	<path fill-rule="evenodd" clip-rule="evenodd" fill="#B3B3B3" d="M332.07,292.434c0,1.002,1.039,1.809,2.328,1.809h93.959
		c1.289,0,2.328-0.807,2.328-1.809l0,0c0-0.998-1.039-1.809-2.328-1.809h-93.959C333.109,290.625,332.07,291.436,332.07,292.434
		L332.07,292.434z"/>
	<path fill-rule="evenodd" clip-rule="evenodd" fill="#B3B3B3" d="M344.838,309.908c0,0.998,0.908,1.805,2.031,1.805h81.785
		c1.123,0,2.031-0.807,2.031-1.805l0,0c0-0.996-0.908-1.809-2.031-1.809h-81.785C345.746,308.1,344.838,308.912,344.838,309.908
		L344.838,309.908z"/>
	<path fill-rule="evenodd" clip-rule="evenodd" fill="#B3B3B3" d="M344.838,326.131c0,1.002,0.908,1.811,2.031,1.811h81.785
		c1.123,0,2.031-0.809,2.031-1.811l0,0c0-0.996-0.908-1.809-2.031-1.809h-81.785C345.746,324.322,344.838,325.135,344.838,326.131
		L344.838,326.131z"/>
</g>
</svg>
