<?xml version="1.0" encoding="utf-8"?>
<!-- Generator: Adobe Illustrator 16.0.0, SVG Export Plug-In . SVG Version: 6.00 Build 0)  -->
<!DOCTYPE svg PUBLIC "-//W3C//DTD SVG 1.1//EN" "http://www.w3.org/Graphics/SVG/1.1/DTD/svg11.dtd">
<svg version="1.1" id="Layer_1" xmlns="http://www.w3.org/2000/svg" xmlns:xlink="http://www.w3.org/1999/xlink" x="0px" y="0px"
	 width="100px" height="100px" viewBox="0 0 100 100" enable-background="new 0 0 100 100" xml:space="preserve">
<path fill="#FFFFFF" d="M50,2.75C23.904,2.75,2.75,23.904,2.75,50S23.904,97.25,50,97.25S97.25,76.096,97.25,50S76.096,2.75,50,2.75
	z M73.283,54.13H54.808v18.476c0,2.19-1.776,3.967-3.967,3.967c-2.191,0-3.967-1.776-3.967-3.967V54.13H28.396
	c-2.191,0-3.967-1.776-3.967-3.968c0-2.191,1.776-3.968,3.967-3.968h18.477V27.718c0-2.191,1.776-3.968,3.967-3.968
	c2.191,0,3.967,1.776,3.967,3.968v18.476h18.476c2.192,0,3.969,1.776,3.969,3.968C77.252,52.354,75.476,54.13,73.283,54.13z"/>
</svg>
