<?xml version="1.0" encoding="utf-8"?>
<!-- Generator: Adobe Illustrator 16.0.0, SVG Export Plug-In . SVG Version: 6.00 Build 0)  -->
<!DOCTYPE svg PUBLIC "-//W3C//DTD SVG 1.1//EN" "http://www.w3.org/Graphics/SVG/1.1/DTD/svg11.dtd">
<svg version="1.1" id="Layer_1" xmlns="http://www.w3.org/2000/svg" xmlns:xlink="http://www.w3.org/1999/xlink" x="0px" y="0px"
	 width="200px" height="200px" viewBox="0 0 200 200" enable-background="new 0 0 200 200" xml:space="preserve">
<path fill="#FFFFFF" d="M180.875,37.75H19.125c-6.627,0-12,5.373-12,12v105c0,6.627,5.373,12,12,12h161.75c6.627,0,12-5.373,12-12
	v-105C192.875,43.123,187.502,37.75,180.875,37.75z M168.284,62.822c-21.92,12.917-43.84,25.833-65.76,38.75
	c-1.535,0.904-3.512,0.904-5.047,0c-21.921-12.917-43.841-25.834-65.761-38.75c-5.55-3.271-0.521-11.916,5.047-8.635
	c21.079,12.421,42.159,24.842,63.238,37.263c21.079-12.421,42.157-24.842,63.236-37.263
	C168.806,50.906,173.835,59.551,168.284,62.822z"/>
</svg>
